<svg width="201" height="50" viewBox="0 0 201 50" fill="none" xmlns="http://www.w3.org/2000/svg">
<path d="M0 35.7143C0 15.9899 14.9985 0 33.5 0H201V14.2857C201 34.0101 186.001 50 167.5 50H0V35.7143Z" fill="white"/>
<g filter="url(#filter0_d)">
<path d="M27.53 21.511C27.223 20.6217 26.894 20.016 26.541 19.694C26.204 19.3567 25.69 19.1573 25 19.096V18.636C25.077 18.636 25.192 18.6283 25.345 18.613C25.483 18.5977 25.629 18.59 25.782 18.59C26.625 18.59 27.384 18.7817 28.059 19.165C28.749 19.5483 29.301 20.3303 29.715 21.511L32.797 30.389L35.258 23.098L34.706 21.511C34.399 20.6217 34.07 20.016 33.717 19.694C33.38 19.3567 32.866 19.1573 32.176 19.096V18.636C32.253 18.636 32.36 18.6283 32.498 18.613C32.651 18.5977 32.805 18.59 32.958 18.59C33.801 18.59 34.56 18.7817 35.235 19.165C35.925 19.5483 36.477 20.3303 36.891 21.511L39.973 30.389L43.906 18.82H44.895L39.628 34.23H39.168L35.764 24.547L32.452 34.23H31.992L27.53 21.511ZM50.154 34.23C49.111 34.23 48.229 33.9847 47.509 33.494C46.788 32.988 46.244 32.3133 45.876 31.47C45.508 30.6113 45.324 29.653 45.324 28.595C45.324 27.5523 45.508 26.6017 45.876 25.743C46.244 24.8843 46.773 24.2097 47.463 23.719C48.168 23.213 48.988 22.96 49.924 22.96C51.472 22.96 52.622 23.397 53.374 24.271C54.14 25.1297 54.524 26.3793 54.524 28.02L54.478 28.94H47.509C47.509 30.228 47.785 31.2783 48.337 32.091C48.889 32.9037 49.648 33.31 50.614 33.31C51.334 33.31 51.94 33.1567 52.431 32.85C52.937 32.5433 53.404 32.0833 53.834 31.47L54.294 31.815C53.788 32.6583 53.197 33.2717 52.523 33.655C51.848 34.0383 51.058 34.23 50.154 34.23ZM52.339 28.02C52.339 26.6707 52.139 25.6433 51.741 24.938C51.342 24.2327 50.736 23.88 49.924 23.88C49.464 23.88 49.05 24.064 48.682 24.432C48.314 24.7847 48.022 25.2753 47.808 25.904C47.608 26.5327 47.509 27.238 47.509 28.02H52.339ZM62.35 34.23C61.568 34.23 60.924 34.1073 60.418 33.862C59.912 33.6167 59.521 33.3177 59.245 32.965H59.13L58.325 34H57.175V21.58C57.175 20.798 57.068 20.223 56.853 19.855C56.639 19.4717 56.209 19.28 55.565 19.28H55.105V18.82H57.175C57.743 18.82 58.164 18.8967 58.44 19.05C58.732 19.188 58.939 19.4487 59.061 19.832C59.184 20.2153 59.245 20.798 59.245 21.58V23.65C59.69 23.4353 60.135 23.2667 60.579 23.144C61.024 23.0213 61.538 22.96 62.12 22.96C63.546 22.96 64.627 23.489 65.363 24.547C66.115 25.605 66.49 26.9543 66.49 28.595C66.49 30.2203 66.13 31.5697 65.409 32.643C64.689 33.701 63.669 34.23 62.35 34.23ZM61.66 33.31C62.534 33.31 63.194 32.8807 63.638 32.022C64.083 31.148 64.305 30.0057 64.305 28.595C64.305 27.169 64.068 26.0267 63.592 25.168C63.132 24.3093 62.412 23.88 61.43 23.88C61.108 23.88 60.779 23.9413 60.441 24.064C60.104 24.1867 59.705 24.3553 59.245 24.57V31.93C59.521 32.344 59.843 32.6813 60.211 32.942C60.595 33.1873 61.078 33.31 61.66 33.31ZM75.746 21.58C75.746 20.798 75.639 20.223 75.424 19.855C75.21 19.4717 74.78 19.28 74.136 19.28H73.676V18.82H79.702C82.677 18.82 84.923 19.4793 86.441 20.798C87.975 22.1167 88.741 23.9567 88.741 26.318C88.741 27.836 88.419 29.1777 87.775 30.343C87.131 31.493 86.173 32.39 84.9 33.034C83.643 33.678 82.11 34 80.3 34H75.746V21.58ZM80.231 33.195C81.366 33.195 82.386 32.919 83.29 32.367C84.21 31.7997 84.931 31.01 85.452 29.998C85.974 28.9707 86.234 27.7747 86.234 26.41C86.234 25.076 85.974 23.8953 85.452 22.868C84.946 21.8407 84.233 21.0433 83.313 20.476C82.393 19.9087 81.351 19.625 80.185 19.625C79.449 19.625 78.683 19.7477 77.885 19.993V32.896C78.744 33.0953 79.526 33.195 80.231 33.195ZM95.615 34.23C94.572 34.23 93.69 33.9847 92.97 33.494C92.249 32.988 91.705 32.3133 91.337 31.47C90.969 30.6113 90.785 29.653 90.785 28.595C90.785 27.5523 90.969 26.6017 91.337 25.743C91.705 24.8843 92.234 24.2097 92.924 23.719C93.629 23.213 94.449 22.96 95.385 22.96C96.933 22.96 98.083 23.397 98.835 24.271C99.601 25.1297 99.985 26.3793 99.985 28.02L99.939 28.94H92.97C92.97 30.228 93.246 31.2783 93.798 32.091C94.35 32.9037 95.109 33.31 96.075 33.31C96.795 33.31 97.401 33.1567 97.892 32.85C98.398 32.5433 98.865 32.0833 99.295 31.47L99.755 31.815C99.249 32.6583 98.658 33.2717 97.984 33.655C97.309 34.0383 96.519 34.23 95.615 34.23ZM97.8 28.02C97.8 26.6707 97.6 25.6433 97.202 24.938C96.803 24.2327 96.197 23.88 95.385 23.88C94.925 23.88 94.511 24.064 94.143 24.432C93.775 24.7847 93.483 25.2753 93.269 25.904C93.069 26.5327 92.97 27.238 92.97 28.02H97.8ZM103.145 25.835C102.777 24.9763 102.424 24.3783 102.087 24.041C101.75 23.6883 101.305 23.4967 100.753 23.466V23.006C100.83 23.006 100.937 22.9983 101.075 22.983C101.228 22.9677 101.382 22.96 101.535 22.96C102.348 22.96 103.084 23.167 103.743 23.581C104.402 23.9797 104.97 24.731 105.445 25.835L107.515 30.78L110.735 23.19H111.885L107.17 34.23H106.71L103.145 25.835ZM130.585 34.23C129.788 34.23 129.083 33.9923 128.469 33.517C127.871 33.0263 127.204 32.1523 126.468 30.895L124.168 26.985H122.558V34H120.488V21.58C120.488 20.798 120.381 20.223 120.166 19.855C119.952 19.4717 119.522 19.28 118.878 19.28H118.418V18.82H124.398C125.84 18.82 127.158 19.1113 128.354 19.694C129.55 20.2613 130.148 21.3423 130.148 22.937C130.148 24.133 129.796 25.03 129.09 25.628C128.4 26.2107 127.526 26.6247 126.468 26.87L128.883 30.895C129.451 31.8457 129.957 32.5127 130.401 32.896C130.861 33.264 131.39 33.4787 131.988 33.54V34C131.85 34.0613 131.651 34.115 131.39 34.161C131.13 34.207 130.861 34.23 130.585 34.23ZM124.214 26.18C124.72 26.18 125.257 26.065 125.824 25.835C126.392 25.605 126.867 25.2447 127.25 24.754C127.649 24.2633 127.848 23.65 127.848 22.914C127.848 22.178 127.649 21.5647 127.25 21.074C126.852 20.5833 126.369 20.223 125.801 19.993C125.249 19.7477 124.72 19.625 124.214 19.625C123.724 19.625 123.172 19.7017 122.558 19.855V26.18H124.214ZM137.667 34.23C136.624 34.23 135.72 33.9847 134.953 33.494C134.186 32.988 133.604 32.3057 133.205 31.447C132.806 30.5883 132.607 29.6377 132.607 28.595C132.607 27.5523 132.806 26.6017 133.205 25.743C133.604 24.8843 134.186 24.2097 134.953 23.719C135.72 23.213 136.624 22.96 137.667 22.96C138.71 22.96 139.614 23.213 140.381 23.719C141.148 24.2097 141.73 24.8843 142.129 25.743C142.528 26.6017 142.727 27.5523 142.727 28.595C142.727 29.6377 142.528 30.5883 142.129 31.447C141.73 32.3057 141.148 32.988 140.381 33.494C139.614 33.9847 138.71 34.23 137.667 34.23ZM137.667 33.31C138.234 33.31 138.733 33.103 139.162 32.689C139.607 32.275 139.944 31.7077 140.174 30.987C140.419 30.2663 140.542 29.469 140.542 28.595C140.542 27.721 140.419 26.9237 140.174 26.203C139.944 25.4823 139.607 24.915 139.162 24.501C138.733 24.087 138.234 23.88 137.667 23.88C137.1 23.88 136.594 24.087 136.149 24.501C135.72 24.915 135.382 25.4823 135.137 26.203C134.907 26.9237 134.792 27.721 134.792 28.595C134.792 29.469 134.907 30.2663 135.137 30.987C135.382 31.7077 135.72 32.275 136.149 32.689C136.594 33.103 137.1 33.31 137.667 33.31ZM149.863 34.23C148.759 34.23 147.824 33.9847 147.057 33.494C146.306 32.988 145.739 32.3133 145.355 31.47C144.987 30.6113 144.803 29.653 144.803 28.595C144.803 27.537 144.987 26.5863 145.355 25.743C145.739 24.8843 146.306 24.2097 147.057 23.719C147.824 23.213 148.759 22.96 149.863 22.96C151.55 22.96 152.662 23.2283 153.198 23.765C153.459 24.0257 153.62 24.3477 153.681 24.731C153.743 25.099 153.773 25.7737 153.773 26.755H153.313C153.252 25.8043 152.953 25.0913 152.416 24.616C151.88 24.1253 151.182 23.88 150.323 23.88C149.219 23.88 148.384 24.317 147.816 25.191C147.264 26.065 146.988 27.1997 146.988 28.595C146.988 29.9903 147.264 31.125 147.816 31.999C148.384 32.873 149.219 33.31 150.323 33.31C151.105 33.31 151.749 33.1643 152.255 32.873C152.761 32.5663 153.229 32.0987 153.658 31.47L154.118 31.815C153.612 32.6737 153.014 33.2947 152.324 33.678C151.634 34.046 150.814 34.23 149.863 34.23ZM164.707 34.23C163.404 34.23 162.292 33.6167 161.372 32.39L158.612 28.71V34H156.542V21.58C156.542 20.798 156.435 20.223 156.22 19.855C156.006 19.4717 155.576 19.28 154.932 19.28H154.472V18.82H156.542C157.11 18.82 157.531 18.8967 157.807 19.05C158.099 19.188 158.306 19.4487 158.428 19.832C158.551 20.2153 158.612 20.798 158.612 21.58V28.365L161.487 24.685C161.886 24.1943 162.308 23.8263 162.752 23.581C163.197 23.3203 163.772 23.19 164.477 23.19H165.167V23.765C164.753 23.765 164.355 23.8493 163.971 24.018C163.588 24.1867 163.258 24.4473 162.982 24.8L160.452 28.02L163.327 31.7C163.772 32.2827 164.186 32.7197 164.569 33.011C164.968 33.3023 165.397 33.4863 165.857 33.563V34C165.52 34.1533 165.137 34.23 164.707 34.23ZM171.316 34.23C169.553 34.23 168.365 33.9233 167.751 33.31C167.491 33.0493 167.33 32.758 167.268 32.436C167.207 32.0987 167.176 31.585 167.176 30.895H167.636C167.774 31.6617 168.104 32.2597 168.625 32.689C169.162 33.103 169.906 33.31 170.856 33.31C171.7 33.31 172.328 33.1643 172.742 32.873C173.172 32.5817 173.386 32.1907 173.386 31.7C173.386 31.2553 173.218 30.872 172.88 30.55C172.558 30.228 172.037 29.9213 171.316 29.63L169.936 29.055C169.016 28.687 168.326 28.2577 167.866 27.767C167.406 27.2763 167.176 26.6707 167.176 25.95C167.176 25.0147 167.529 24.2863 168.234 23.765C168.94 23.2283 169.852 22.96 170.971 22.96C172.658 22.96 173.808 23.2667 174.421 23.88C174.682 24.1407 174.843 24.432 174.904 24.754C174.966 25.076 174.996 25.5897 174.996 26.295H174.536C174.414 25.5283 174.092 24.938 173.57 24.524C173.049 24.0947 172.336 23.88 171.431 23.88C170.711 23.88 170.143 24.0333 169.729 24.34C169.331 24.6313 169.131 25.0147 169.131 25.49C169.131 26.2873 169.745 26.939 170.971 27.445L172.351 28.02C173.394 28.4493 174.153 28.9093 174.628 29.4C175.104 29.8753 175.341 30.4887 175.341 31.24C175.341 32.1753 174.966 32.9113 174.214 33.448C173.463 33.9693 172.497 34.23 171.316 34.23Z" fill="black"/>
</g>
<defs>
<filter id="filter0_d" x="21" y="18.59" width="158.341" height="23.64" filterUnits="userSpaceOnUse" color-interpolation-filters="sRGB">
<feFlood flood-opacity="0" result="BackgroundImageFix"/>
<feColorMatrix in="SourceAlpha" type="matrix" values="0 0 0 0 0 0 0 0 0 0 0 0 0 0 0 0 0 0 127 0"/>
<feOffset dy="4"/>
<feGaussianBlur stdDeviation="2"/>
<feColorMatrix type="matrix" values="0 0 0 0 0 0 0 0 0 0 0 0 0 0 0 0 0 0 0.25 0"/>
<feBlend mode="normal" in2="BackgroundImageFix" result="effect1_dropShadow"/>
<feBlend mode="normal" in="SourceGraphic" in2="effect1_dropShadow" result="shape"/>
</filter>
</defs>
</svg>
