<svg width="278" height="278" viewBox="0 0 278 278" fill="none" xmlns="http://www.w3.org/2000/svg">
<g filter="url(#filter0_d)">
<circle cx="139" cy="135" r="135" fill="#FBFBFB"/>
<g filter="url(#filter1_d)">
<path d="M249.376 96.3362C249.539 96.6495 249.58 96.4244 249.169 95.5484C249.019 95.36 248.863 95.174 248.704 94.99L249.376 96.3362Z" fill="black"/>
<path d="M247.149 90.2495C246.552 89.2675 245.707 88.2163 245.741 88.9991C246.535 89.8738 246.542 90.1647 247.373 91.1269C247.815 91.9887 247.998 92.688 247.842 92.5749C248.035 92.8648 248.398 93.9625 248.731 94.3899C248.544 93.7158 248.317 93.0522 248.056 92.4015C247.737 91.6639 247.36 90.9494 246.932 90.2638C246.844 89.9148 247.064 90.1962 247.149 90.2495Z" fill="black"/>
<path d="M178.479 26.3652L179.022 26.739C178.868 26.58 178.684 26.4528 178.479 26.3652Z" fill="black"/>
<path d="M117.653 20.686C118.111 20.5651 118.275 20.3608 118.269 20.1994C117.856 20.386 117.52 20.5523 117.653 20.686Z" fill="black"/>
<path d="M106.762 21.0498C107.001 21.0439 107.195 21.0174 107.408 21.0015C107.13 20.9076 106.869 20.8848 106.762 21.0498Z" fill="black"/>
<path d="M178.479 26.3692L177.083 25.3949C176.82 25.8136 177.761 26.0083 178.479 26.3692Z" fill="black"/>
<path d="M239.944 79.3591C240.12 79.5879 240.316 79.8017 240.53 79.9989C240.364 79.7851 240.205 79.578 240.046 79.3605C240.012 79.3639 239.978 79.3635 239.944 79.3591Z" fill="black"/>
<path d="M203.235 37.0013L203.655 37.2683C203.87 37.2225 204.079 37.1553 204.28 37.0678L203.235 37.0013Z" fill="black"/>
<path d="M219.69 49.337C219.383 48.9841 218.65 49.5415 218.255 49.7129C218.454 49.6635 218.661 49.6582 218.862 49.6973C219.063 49.7365 219.252 49.8192 219.415 49.9391C219.565 49.7682 219.66 49.5592 219.69 49.337Z" fill="black"/>
<path d="M239.252 74.6317L239.613 75.076C239.516 74.9619 239.367 74.7617 239.252 74.6317Z" fill="black"/>
<path d="M190.333 29.644C190.375 29.4915 190.378 29.3316 190.342 29.1775C190.282 29.3272 190.279 29.4922 190.333 29.644Z" fill="black"/>
<path d="M249.939 165.235C249.972 165.26 250.001 165.246 250.033 165.259C250.02 165.142 249.994 165.101 249.939 165.235Z" fill="black"/>
<path d="M256.552 143.498L256.528 143.817C256.555 143.853 256.582 143.89 256.609 143.892L256.552 143.498Z" fill="black"/>
<path d="M87.387 25.8305C87.4186 25.8296 87.4498 25.8265 87.4807 25.8212C87.887 25.4534 87.6276 25.6006 87.387 25.8305Z" fill="black"/>
<path d="M26.6728 173.278C26.5774 172.286 27.0289 172.969 27.4294 173.532C27.8326 174.097 28.1867 174.54 27.9681 173.086C27.8533 173.418 26.1409 170.91 26.6728 173.278Z" fill="black"/>
<path d="M239.717 78.906C239.567 78.6857 239.416 78.461 239.272 78.2316C239.406 78.4654 239.554 78.6908 239.717 78.906Z" fill="black"/>
<path d="M27.9668 173.085L27.9715 173.084L27.9233 172.785C27.9413 172.909 27.9515 172.979 27.9668 173.085Z" fill="black"/>
<path d="M50.9088 52.4377C51.1555 52.529 51.4206 52.564 51.6833 52.5395C51.5655 52.4482 51.3632 52.398 50.9088 52.4377Z" fill="black"/>
<path d="M78.5408 33.7527L77.7173 33.9828C78.0035 33.9518 78.2818 33.874 78.5408 33.7527Z" fill="black"/>
<path d="M41.3765 66.7561C41.033 67.0538 40.7893 67.0683 40.5897 67.6623C40.6739 67.6573 40.7567 67.6393 40.8351 67.6091C40.8063 67.3253 40.904 67.0388 41.3765 66.7561Z" fill="black"/>
<path d="M32.094 81.676C32.2264 81.6278 32.3554 81.5711 32.4799 81.5067C32.54 81.3417 32.6103 81.1489 32.6721 80.9792L32.094 81.676Z" fill="black"/>
<path d="M223.604 207.466C224.021 207.413 224.445 207.435 224.854 207.532C224.105 207.225 225.565 205.294 223.604 207.466Z" fill="black"/>
<path d="M240.165 79.2309C239.978 79.183 239.817 79.0656 239.718 78.9034C239.831 79.0636 239.94 79.2173 240.046 79.3673C240.133 79.3752 240.195 79.3528 240.165 79.2309Z" fill="black"/>
<path d="M49.8845 73.4803L48.1561 75.397C48.7871 74.8064 49.3655 74.1653 49.8845 73.4803Z" fill="black"/>
<path d="M113.883 241.511L114.516 241.511C114.311 241.453 114.088 241.453 113.883 241.511Z" fill="black"/>
<path d="M44.0834 81.7664C43.5039 81.9032 42.9663 82.17 42.5138 82.5451C42.5318 82.692 42.5807 82.8339 42.6581 82.9615L44.0834 81.7664Z" fill="black"/>
<path d="M224.864 207.533C224.862 207.533 224.86 207.533 224.859 207.533C224.857 207.532 224.855 207.532 224.854 207.53C224.855 207.532 224.857 207.532 224.859 207.533C224.86 207.533 224.862 207.533 224.864 207.533Z" fill="black"/>
<path d="M234.057 192.984C232.559 194.951 234.379 194.555 234.664 195.359C234.518 195.628 234.357 195.889 234.181 196.141C234.066 196.298 233.929 196.439 233.774 196.56C233.694 196.634 233.595 196.685 233.487 196.708C233.378 196.732 233.266 196.725 233.161 196.691C232.803 196.573 232.494 196.196 231.911 196.41C231.526 197.189 231.242 198.011 231.066 198.857C230.977 199.234 230.865 199.607 230.733 199.972C230.603 200.301 230.415 200.605 230.177 200.872C229.935 200.825 229.695 200.982 229.684 200.584C229.46 201.634 228.517 202.76 227.576 203.931C226.584 205.066 225.59 206.241 225.334 207.539C225.181 207.581 225.019 207.581 224.866 207.538C225.524 207.678 226.118 208.018 226.562 208.506C225.828 209.38 225.758 210.633 224.77 210.338C225.286 209.855 225.048 209.57 225.064 209.151L224.518 210.263C222.764 210.144 225.329 208.804 224.593 208.17C223.93 209.12 223.326 210.26 222.693 211.297C222.401 211.796 222.071 212.274 221.706 212.727C221.385 213.111 221.002 213.443 220.573 213.712C219.957 213.372 220.646 212.593 221.164 211.999C221.657 211.379 221.981 210.955 220.715 211.382L223.03 209.798C220.014 209.881 224.317 208.74 221.316 208.604C220.738 209.046 220.2 209.536 219.711 210.069C219.32 210.513 218.989 210.881 218.684 211.274C217.931 212.272 217.018 213.148 215.98 213.87C215.888 214.927 216.966 214.504 216.867 215.564C215.36 217.702 213.992 217.723 212.812 217.637C211.619 217.55 210.587 217.335 209.707 219.165C209.623 219.813 209.789 220.542 209.632 221.223C209.486 221.914 208.972 222.514 207.574 222.907L207.33 221.117C205.853 222.03 205.8 222.773 205.654 223.443C205.507 224.107 205.283 224.733 203.397 225.245C203.486 224.808 203.988 224.336 204.398 223.987C204.797 223.624 205.101 223.38 204.828 223.453C204.365 223.47 203.915 223.599 203.518 223.829C203.417 223.91 203.334 224.01 203.276 224.123C203.217 224.236 203.184 224.36 203.178 224.487C203.111 224.993 203.193 225.598 202.419 226.087L201.271 225.084C198.291 227.223 195.245 230.075 191.665 232.193C191.658 231.692 192.058 230.961 190.986 230.992C188.722 232.454 186.241 233.574 183.626 234.314C182.965 234.512 182.302 234.698 181.642 234.875C180.984 235.055 180.303 235.166 179.642 235.299C178.312 235.546 177.019 235.783 175.768 235.954L174.387 237.761C173.956 237.877 173.411 237.434 173.787 237.05C171.78 237.141 173.956 237.877 173.223 238.65C172.183 239.068 171.591 238.355 172.141 237.768C171.287 238.365 170.389 238.899 169.453 239.368C168.937 239.637 168.394 239.904 167.834 240.161C167.272 240.43 166.694 240.667 166.103 240.872C163.732 241.67 161.247 242.228 159.315 241.807L159.943 241.302C158.502 241.286 157.835 242.082 157.157 242.791C156.853 243.152 156.477 243.451 156.049 243.667C155.515 243.865 154.923 243.865 154.389 243.667L154.864 243.377C154.083 243.406 153.298 243.462 152.509 243.543C152.116 243.587 151.721 243.63 151.326 243.674L150.734 243.748L150.139 243.799C148.551 243.946 146.967 244.094 145.428 244.237C142.341 244.36 139.412 244.348 137.074 243.418C136.607 244.265 135.066 244.093 133.597 243.98C132.13 243.811 130.726 243.742 130.429 244.852C129.352 244.465 128.311 243.989 127.319 243.427C126.546 243.037 125.591 242.671 123.166 242.146C122.51 242.063 121.972 242.311 121.38 242.6C120.752 242.964 120.037 243.167 119.304 243.189L119.459 242.144C118.651 242.414 117.838 242.675 117.018 242.925C116.702 242.476 116.399 241.995 116.096 241.534L114.516 241.522C115.109 241.684 115.707 242.192 115.551 242.462C114.244 242.401 112.963 242.084 111.788 241.529C111.315 241.328 110.87 241.072 110.461 240.767C110.142 240.527 109.962 240.325 109.98 240.206L107.077 239.963C106.593 239.917 106.103 239.883 105.621 239.822L104.18 239.612C104.418 239.308 105.376 239.466 106.183 239.42C104.564 239.476 104.506 239.194 104.48 238.946C104.453 238.689 104.464 238.441 102.98 238.46C103.278 238.743 102.614 238.889 102.494 239.034C102.122 238.778 101.721 238.564 101.298 238.396C101.053 238.293 100.789 238.192 100.51 238.094C100.237 237.982 99.9493 237.872 99.6526 237.765C98.4463 237.338 97.2165 236.976 95.9691 236.678L96.611 236.324C96.1148 236.14 95.5961 235.989 95.0931 235.786C94.5863 235.592 94.0707 235.401 93.547 235.213C92.5002 234.835 91.4232 234.464 90.3268 234.088C89.2515 233.67 88.1663 233.229 87.0724 232.778C86.5262 232.549 85.9784 232.319 85.4282 232.089C84.8793 231.856 84.3566 231.571 83.821 231.307C85.2452 232.258 84.5093 232.773 83.2212 232.177L83.0627 231.334C82.0434 231.273 84.2405 232.234 82.3231 231.808C80.7675 230.902 81.6408 230.611 82.6676 230.885L80.611 230.09C80.5998 229.867 81.1083 230.013 81.3567 229.86C81.0251 229.805 80.7111 229.676 80.4396 229.484C80.0903 229.267 79.7176 228.961 79.3215 228.67C78.532 228.083 77.6821 227.508 76.9397 227.461L76.936 227.25C76.4214 226.95 75.9286 226.69 75.4829 226.417L74.2236 225.64C73.4233 225.156 72.7047 224.721 72.0095 224.3C71.6606 224.09 71.3174 223.884 70.9729 223.677C70.6416 223.452 70.309 223.227 69.9679 222.996C69.2873 222.532 68.5766 222.039 67.7843 221.476C67.4249 221.789 66.2416 220.835 65.1144 220.36C64.0544 219.395 62.9546 218.364 61.8151 217.267C60.7086 216.138 59.5369 214.978 58.2508 213.835C56.371 212.294 57.4813 213.596 56.5211 213.006C56.6799 212.61 54.2357 210.2 55.6993 211.273C54.2011 209.854 53.3308 208.87 52.3223 207.824C51.8186 207.3 51.2861 206.756 50.6456 206.113C50.0196 205.458 49.3276 204.67 48.4406 203.71C48.6657 204.248 49.0116 204.786 48.6962 204.611C48.0466 203.914 47.4719 202.836 47.7122 202.828L47.902 202.998C46.8182 201.879 45.8589 200.653 45.0399 199.342C44.5973 198.67 44.1543 197.988 43.7392 197.291L42.5872 195.153C42.2084 194.448 41.834 193.75 41.4681 193.07C41.3761 192.901 41.2845 192.733 41.1935 192.566C41.1086 192.395 41.0245 192.226 40.941 192.058C40.7723 191.723 40.6025 191.396 40.4322 191.077C39.8327 189.908 39.1125 188.8 38.2819 187.771L38.44 187.979L35.8315 183.942C34.9185 181.945 36.7399 184.969 36.2738 183.394C35.6275 182.414 35.0522 181.391 34.5522 180.334C34.3207 179.852 34.1089 179.385 33.9138 178.925C33.818 178.695 33.7237 178.467 33.6303 178.243C33.5513 178.012 33.4725 177.784 33.3948 177.558C33.0873 176.651 32.797 175.77 32.4627 174.88C32.1287 173.99 31.7241 173.101 31.2805 172.139C31.3765 171.027 31.2713 169.908 30.9689 168.831C30.8939 168.514 30.8094 168.191 30.7153 167.859C30.6332 167.525 30.549 167.183 30.4631 166.835C30.2843 166.14 30.082 165.425 29.8715 164.703C29.6631 163.981 29.4523 163.25 29.2439 162.527C29.0762 161.794 28.9174 161.068 28.785 160.363C28.653 159.658 28.5474 158.974 28.4883 158.326C28.415 157.718 28.4211 157.104 28.5063 156.497L28.0837 156.834C27.4785 155.804 28.1591 155.436 28.1611 154.601C27.8102 154.78 27.9076 155.883 27.557 155.236C27.3221 154.067 27.095 152.886 26.9178 151.69C26.7875 150.487 26.6809 149.276 26.5974 148.056C26.557 147.447 26.5122 146.837 26.4891 146.225C26.4935 145.611 26.4983 144.995 26.5027 144.378C26.5214 143.146 26.5533 141.913 26.6055 140.682C26.7196 139.447 26.8448 138.215 26.9803 136.987L27.1843 135.15L27.4887 133.324C27.6914 132.115 27.893 130.908 28.0946 129.704C28.3434 128.509 28.6024 127.324 28.8308 126.147C28.9903 125.518 28.9211 124.856 28.6353 124.271C28.3977 123.873 28.1102 123.505 27.7799 123.175C27.1961 122.499 26.7922 121.693 27.9734 119.597L29.0352 121.007C28.9917 120.112 29.0032 119.216 29.0701 118.322C29.1624 117.433 29.2904 116.543 29.4435 115.656C29.6051 114.771 29.7564 113.881 29.9849 113.007C30.2215 112.134 30.4713 111.264 30.7225 110.398L31.0979 109.099C31.2265 108.667 31.329 108.23 31.4824 107.807C31.7672 106.954 32.0401 106.102 32.2872 105.248C32.4101 104.82 32.5255 104.392 32.6338 103.962C32.7458 103.534 32.8289 103.098 32.9522 102.676C33.1809 101.824 33.3615 100.96 33.4939 100.09C33.6673 100.584 34.0804 100.73 33.8333 101.36C34.5994 100.837 35.0943 99.5911 35.2932 98.4232C35.541 97.2739 35.4979 96.1969 35.0861 96.0282C35.6126 95.0676 35.9351 96.0791 36.6217 95.6314C37.2191 95.0795 37.249 94.1117 37.3291 93.2428C37.4292 92.3844 37.5399 91.6115 38.2174 91.4795C38.4407 91.432 38.3633 91.9896 38.3226 92.2619C38.2574 91.1964 40.4176 88.3428 38.8463 88.6249C39.6409 87.6416 40.2628 86.5394 40.6877 85.3626C40.9012 84.8287 41.1456 84.3067 41.4199 83.7992C41.7081 83.3254 42.078 82.9025 42.5139 82.5484C42.2291 81.6208 42.9765 80.7437 43.5929 79.9399C43.747 79.7386 43.893 79.5411 44.0131 79.3473C44.1333 79.1735 44.2304 78.9858 44.3016 78.7882C44.3671 78.5958 44.3705 78.3887 44.3111 78.1942C44.2514 77.9997 44.1319 77.8277 43.968 77.7004C45.7371 78.9644 48.0245 74.842 48.2451 72.9694C48.46 73.7844 49.6914 72.2159 50.0587 73.2583C50.5712 72.6022 50.9779 71.8748 51.2643 71.1009C51.467 70.4777 51.3804 69.9767 50.8122 69.7628C51.7507 69.5497 52.583 69.0276 53.1651 68.2867C53.4251 67.954 53.6505 67.598 53.8389 67.2229C54.0303 66.8516 54.2252 66.4924 54.4013 66.132C55.1182 64.7064 55.795 63.44 57.782 63.8741C60.618 59.3291 63.9929 55.1172 67.8383 51.3234C68.5331 52.2799 67.4792 53.213 66.4714 54.1243C65.4637 55.0357 64.5027 55.9216 65.4416 56.7512C66.1927 55.8096 66.8329 54.9234 67.4059 54.0456C67.6927 53.604 67.9703 53.1763 68.2432 52.7558C68.3811 52.5443 68.5175 52.3345 68.6533 52.1265C68.7996 51.9289 68.9455 51.732 69.0911 51.5355C69.6804 50.7399 70.3348 49.9914 71.0483 49.2968C71.4308 48.9309 71.8357 48.5871 72.2604 48.2672C72.7393 47.9384 73.2403 47.641 73.7603 47.3769C74.9975 46.9393 73.7898 48.6031 73.6931 49.155C75.3716 47.5239 77.2741 46.1217 79.347 44.9876C80.3303 44.4099 81.2749 43.8062 82.1934 43.1855C83.1347 42.5882 84.0029 41.8901 84.7812 41.1046C84.8844 41.3056 84.5986 41.7433 84.307 42.113C85.0154 41.6349 86.2211 41.4713 85.5897 40.5612L85.0069 41.2208C84.0026 40.8582 84.3227 39.7311 84.8875 38.572C85.4563 37.4277 86.3032 36.3189 86.1698 35.9025C86.3467 39.3464 90.4877 34.6692 90.2246 39.2653C90.6306 38.8332 91.0287 38.0532 90.58 37.447C91.4418 37.2811 91.8794 37.5839 91.4771 38.6692C94.0157 36.9178 92.5192 36.2809 95.1066 35.1867C95.3164 35.6822 94.8826 36.0961 94.8813 36.7845C95.719 35.2467 96.6751 33.7936 99.0776 33.3633C99.0637 33.7144 99.4771 34.008 98.8139 34.2513C99.2694 34.0559 99.71 33.8296 100.132 33.5742C100.547 33.3246 100.939 33.0498 101.333 32.7988C102.115 32.2797 102.852 31.7096 103.62 31.1685C104.004 30.898 104.396 30.6347 104.804 30.3882C105.211 30.131 105.642 29.9112 106.092 29.7317C107.074 29.3402 108.118 29.1131 109.179 29.0601C108.536 31.6432 110.872 29.3839 111.618 31.2523C112.336 30.8652 113.068 30.5092 113.798 30.1346L112.621 29.4079C113.657 29.1905 114.547 28.6244 115.43 28.1403C115.85 27.8955 116.295 27.6927 116.758 27.5352C117.211 27.4026 117.69 27.3708 118.158 27.4419C117.691 27.8044 117.225 28.1549 116.767 28.5231L120.613 27.4524L118.245 27.1102C120.197 25.7291 117.54 24.6871 120.495 24.7323C120.221 24.8814 120.76 24.794 121.528 24.7882C121.951 24.7793 122.374 24.8229 122.785 24.9177C123.206 25.0005 123.602 25.1732 123.944 25.423C123.944 25.423 123.937 25.4239 123.937 25.4292C124.906 24.6759 125.936 23.888 127.587 24.1696C128.064 24.7371 127.487 26.3568 127.799 26.7355C128.226 25.8568 129.471 25.6647 130.747 25.4309C132.026 25.2094 133.337 24.9451 133.964 24.0651C133.537 24.476 133.572 25.5045 133.727 25.6925L134.543 24.3604C135.563 24.7487 135.712 24.9442 135.58 25.7511C138.57 25.8904 134.553 23.3549 138.149 24.2897C137.87 24.4028 138.006 24.5913 137.427 24.8067C138.304 24.8949 139.187 24.9102 140.067 24.8525C140.933 24.8216 141.789 24.7331 142.639 24.648C144.299 24.4012 145.992 24.4465 147.636 24.7815C148.467 26.6868 144.75 25.1031 145.76 26.7316C146.344 26.7143 146.936 26.673 147.534 26.6155C148.133 26.5587 148.738 26.4764 149.344 26.4279L153.026 26.0385C155.482 25.8719 157.952 25.7994 160.172 26.4134L159.364 26.0807C159.901 24.8867 160.704 25.3425 161.666 25.9828C162.161 26.3367 162.68 26.6585 163.22 26.9461C163.763 27.233 164.399 27.3118 165 27.1669C164.4 27.2326 163.964 28.3633 164.175 28.123C164.93 28.3661 165.707 28.542 166.496 28.6485C167.346 28.7884 168.204 28.8856 169.064 28.9397L170.482 29.0256C170.972 29.05 171.47 29.107 171.992 29.1488C173.032 29.2433 174.153 29.3413 175.358 29.4989C175.107 29.6277 174.85 29.7741 174.598 29.9122C175.571 30.4764 176.604 30.9372 177.681 31.2864C178.257 31.4987 178.85 31.679 179.393 31.9071C179.939 32.1294 180.452 32.3521 180.894 32.581C181.667 32.2341 182.708 32.7127 182.38 31.6905C184.633 34.2948 187.47 34.9576 190.29 35.7103C193.093 36.4458 195.857 37.2729 197.596 39.6521C197.019 39.3492 195.993 39.3226 196.448 39.565L198.613 40.4407C199.325 40.752 200.03 41.0779 200.741 41.3979C200.899 40.4838 200.504 40.6525 200.028 39.576C200.815 39.4363 202.172 39.789 203.171 40.395C202.106 40.0833 201.92 40.381 202.062 40.8543C202.201 41.3329 202.68 41.9689 202.922 42.4099C202.942 42.1128 203.366 42.0415 203.451 41.7814C204.638 44.3302 204.769 40.6103 206.991 43.2624L206.586 43.5163C207.754 44.0262 209.027 44.2627 210.06 45.1381C209.945 46.1888 208.705 44.7124 208.166 45.2779C208.95 45.7957 209.998 45.9602 210.92 46.2664C211.841 46.5717 212.669 46.9755 213.064 47.8349C212.264 47.5399 211.342 46.8474 210.544 46.5636C211.353 48.5072 211.695 48.4094 212.691 49.3546L212.597 49.2567C212.976 49.6239 213.337 50.0106 213.696 50.3974L214.781 51.5464L214.333 50.8441C215.047 50.7813 215.766 50.9018 216.416 51.1937C216.995 51.47 217.524 51.8342 217.983 52.2721C218.474 52.6994 218.968 53.1597 219.55 53.5819C219.851 53.8022 220.168 54.0025 220.497 54.1814C220.853 54.3864 221.224 54.5639 221.608 54.7126C220.039 54.0877 219.784 54.1756 219.865 54.4149C219.943 54.6586 220.303 55.1195 219.896 55.3585C220.308 56.0801 221.01 57.0869 220.574 57.0268C221.38 57.2742 221.736 57.7895 222.18 58.319C222.685 59.0172 223.404 59.5464 224.235 59.8322C224.102 60.0752 225.348 60.9594 224.609 61.1614C226.142 62.365 224.631 60.5446 224.995 60.4364C225.715 60.843 226.344 61.382 226.847 62.0228C227.407 62.6769 227.941 63.4196 228.515 64.1792C229.071 64.9945 229.674 65.7783 230.323 66.5267C230.659 66.9116 231.033 67.2772 231.411 67.6479C231.797 68.0277 232.206 68.3844 232.637 68.7164C233.304 69.3705 233.866 69.8731 234.371 70.2988C234.863 70.7329 235.288 71.0971 235.712 71.4545C236.133 71.813 236.546 72.1694 236.994 72.6025C237.218 72.8194 237.451 73.0553 237.699 73.32C237.938 73.5902 238.185 73.8937 238.453 74.2351C238.646 74.801 238.376 74.6856 238.052 74.4361C237.806 74.2372 237.573 74.025 237.352 73.8003C237.716 74.5702 238.143 75.3111 238.63 76.0158C239.085 76.6797 239.595 77.2964 240.13 78.0052C239.817 77.773 239.903 78.1477 240.032 78.6881C240.829 79.853 241.038 79.2081 241.826 80.8978C241.359 80.6487 240.924 80.3476 240.53 80.0003C240.788 80.3303 241.053 80.6558 241.32 80.9809C241.584 81.3082 241.832 81.6449 242.089 81.9795C242.598 82.6509 243.103 83.3362 243.585 84.0575C243.616 84.5507 242.754 83.3121 242.3 82.8672C242.835 83.6733 243.558 84.7089 244.125 85.6372C244.712 86.5561 245.235 87.3255 245.51 87.5299L245.038 86.3813C245.374 87.0031 244.963 86.8137 244.665 86.3813C244.278 85.8996 243.979 85.3592 243.779 84.7825C243.68 84.5653 243.653 84.3247 243.701 84.0921C243.932 84.4326 244.149 84.7812 244.359 85.1349C244.41 84.4119 243.779 83.341 242.998 82.1846C242.598 81.6109 242.182 81.0044 241.735 80.4372C241.311 79.9056 240.92 79.3507 240.564 78.775C240.944 78.9552 241.32 79.1409 241.69 79.3313C241.096 78.6888 240.491 78.0571 239.876 77.436C239.818 77.1586 239.819 76.8942 239.935 76.8189C240.052 76.7422 240.282 76.8559 240.636 77.3609C240.027 75.6499 239.564 76.1617 239.103 74.6506C239.069 74.4731 239.142 74.5182 239.252 74.6353L238.115 73.2847C238.441 73.484 238.441 72.7355 238.913 73.7097C238.633 73.0536 238.272 72.4324 237.838 71.8591C237.491 71.3958 237.119 70.9501 236.723 70.5238C236.408 70.1932 236.111 69.8467 235.834 69.4852C235.599 69.2116 235.447 68.881 235.395 68.5293L235.597 68.7099C234.174 67.0345 233.966 67.0572 233.794 67.2185C233.619 67.3851 233.491 67.675 232.15 66.6476C232.151 65.7413 232.162 64.8129 232.185 63.8615L231.328 63.98C231.065 63.6137 230.547 62.8857 230.889 62.8246C230.156 62.3324 230.12 62.4553 230.169 62.6202C230.211 62.7906 230.317 63.0218 229.8 62.813C229.354 61.7835 228.303 60.7069 227.438 59.7561C226.546 58.8275 225.836 58.021 226.171 57.3869C225.154 57.2528 227.235 59.2253 225.302 57.8438C225.611 57.1208 225.114 56.6578 224.405 56.1728C223.686 55.6949 222.771 55.1884 222.312 54.2462C223.319 54.1162 224.36 55.759 223.449 53.8477C223.008 53.8565 222.581 53.6977 222.261 53.4054C221.896 53.0714 221.572 52.6981 221.296 52.2924C220.686 51.4361 220.131 50.4202 219.415 49.9382C219.205 50.1334 218.915 50.0917 218.549 49.9075C218.083 49.6519 217.647 49.3475 217.249 48.9998C216.269 48.1995 215.103 47.0824 213.84 46.3759C214.04 46.2778 213.103 45.3138 211.874 44.1288C211.242 43.5548 210.545 42.9208 209.881 42.3182C209.221 41.7073 208.602 41.1139 208.113 40.6485L208.307 40.516C207.705 40.9011 206.872 40.6617 205.963 40.2162C205.509 39.9935 205.036 39.7174 204.561 39.4441C204.076 39.1861 203.592 38.9286 203.128 38.7251C203.649 38.0785 204.133 37.9992 205.262 38.2853L203.655 37.2702C203.034 37.3993 202.407 37.2808 201.283 36.7669L202.245 36.1372C201.69 35.8106 201.102 35.5379 200.492 35.3231C199.873 35.0953 199.243 34.863 198.591 34.6229C197.311 34.1044 195.951 33.5748 194.69 32.48C194.366 32.8919 194.598 33.8219 194.485 34.5168C194.374 35.2137 193.922 35.682 192.267 35.2386C192.417 34.6893 192.75 33.7809 193.648 33.9872C193.353 33.9198 192.516 33.9132 192.091 33.4631C192.648 33.3682 193.195 33.2993 193.745 33.2345C193.191 32.7095 192.926 32.7974 192.674 32.9453C192.541 33.0641 192.369 33.1346 192.187 33.1448C192.006 33.1549 191.826 33.104 191.679 33.0007C192.067 32.2937 191.154 32.1155 191.595 31.6145C191.904 31.6763 192.374 32.356 192.926 32.2706C191.791 31.5694 190.549 30.4363 190.332 29.641C190.233 30.1166 189.857 30.6214 188.92 30.3196C186.574 29.3678 188.543 29.0727 187.356 28.0828C186.554 28.3631 185.303 27.1475 184.764 28.3105C184.076 28.0349 184.174 27.4387 184.036 27.0138C183.312 27.0366 181.87 26.4889 180.7 26.2161C179.525 25.9534 178.654 25.9109 179.117 26.8017L179.403 26.9962C179.334 27.001 179.264 26.9782 179.181 26.98L179.191 26.9834L179.181 26.98C178.078 26.9201 176.99 26.7096 175.948 26.3546C174.889 26.0215 173.853 25.6215 172.848 25.1572L172.082 24.8128C171.825 24.7009 171.566 24.5999 171.308 24.4942C170.791 24.2856 170.273 24.0824 169.752 23.8969C168.738 23.5018 167.67 23.2468 166.582 23.1396L166.696 22.6948C165.384 22.6799 163.986 22.4266 162.654 22.3093C161.32 22.2072 160.066 22.1835 159.09 22.5264C158.358 22.3816 157.476 21.405 157.884 20.8862C156.885 20.923 156.315 21.0681 155.659 21.0566C155.281 21.0477 154.907 20.9912 154.544 20.8885C154.326 20.8314 154.086 20.7493 153.815 20.6571C153.544 20.5681 153.242 20.4582 152.902 20.3227C153.931 20.0064 153.787 19.8051 153.715 19.7317C153.643 19.6652 153.652 19.6955 154.986 19.9604C154.367 19.7629 153.87 19.566 153.426 19.4149C153.025 19.2609 152.614 19.1344 152.195 19.0363C151.396 18.8722 150.544 18.9086 149.121 19.441C150.167 18.2612 147.302 17.7313 146.049 18.0199L147.795 19.0447C146.414 19.143 145.228 18.9265 144.013 18.774C144.254 18.2258 144.497 17.6697 144.743 17.1336C142.114 16.0285 139.655 16.7584 137.443 17.5358C136.414 17.9286 135.33 18.1694 134.227 18.25C133.965 18.2562 133.703 18.2411 133.444 18.205C133.18 18.1766 132.918 18.1258 132.663 18.0532C132.086 17.8784 131.548 17.6004 131.078 17.2339C129.768 18.5256 134.008 17.8965 132.84 19.3792C131.634 19.3439 130.358 18.751 129.266 18.1694C128.178 17.5913 127.277 17.0124 126.893 17.0478C125.16 16.7517 124.445 17.4733 123.742 18.2361C123.403 18.6441 123.001 18.9993 122.55 19.2893C122.289 19.4405 122.004 19.5494 121.706 19.6117C121.532 19.6483 121.355 19.6719 121.177 19.6821C120.973 19.7032 120.768 19.7109 120.563 19.705C121.108 20.25 121.757 21.8327 119.364 22.8413C117.002 23.0101 115.955 20.7345 117.375 19.9865C117.941 19.8389 118.255 19.989 118.269 20.2033C118.999 19.8489 119.976 19.4166 118.903 18.9024L118.701 19.5729C117.396 19.1358 114.076 19.7549 114.642 18.6178C113.794 19.1091 113.659 19.4047 113.908 19.5813C114.099 19.6868 114.311 19.7501 114.531 19.7667C114.807 19.8021 115.141 19.8236 115.496 19.8524C115.115 19.8053 114.73 19.7905 114.345 19.8083C114.001 19.8199 113.658 19.8481 113.317 19.893C112.69 19.9814 112.07 20.1046 111.458 20.2618C110.133 20.6224 108.778 20.8716 107.408 21.0065C108.002 21.2115 108.652 21.8116 108.16 21.937C105.779 22.1703 105.359 22.6003 105.174 23.1027C104.989 23.6142 105.016 24.1699 103.553 24.7531C101.542 24.3796 103.437 22.3425 100.65 24.104C98.5627 24.0851 99.6764 22.6316 100.267 21.8931C99.7161 22.3679 99.063 22.7197 98.3546 22.9232C97.7094 23.0914 97.0475 23.1918 96.3802 23.2227C95.0924 23.2977 93.8701 23.1532 93.0249 23.3535L94.3086 22.3117C93.64 22.8247 92.8827 23.2197 92.0715 23.4785L93.4112 24.3422C92.4652 24.4632 91.7331 24.7359 91.5365 24.2404C91.2589 24.7961 91.6448 25.2199 91.9333 25.7221C92.2256 26.2289 92.4085 26.7884 91.8016 27.6864C90.4269 27.5758 88.7631 29.7803 87.6402 28.4157C89.5037 27.9125 89.225 27.5684 88.8343 27.1563C88.4433 26.7446 87.9321 26.2694 89.3727 25.4859C88.762 25.9775 88.0197 26.2927 87.2312 26.3952C87.0215 26.2798 87.1976 26.025 87.387 25.8346C86.3728 25.866 85.8158 26.0363 85.5032 26.2931C85.2306 26.5653 85.0792 26.9293 85.0816 27.3075C84.9873 28.0994 84.9689 29.056 83.2704 29.8818C83.2518 28.8193 81.6188 28.6783 81.1558 29.1408C82.5468 28.4621 82.5692 30.2181 81.6884 31.4772C79.201 31.9834 79.6789 33.2267 78.5408 33.7566L79.9681 33.3589C80.0299 34.417 78.9308 34.8864 77.6488 35.9476C77.1305 35.3885 78.6912 34.7799 78.0032 34.7903C77.9299 35.0391 77.7988 35.2684 77.6196 35.4607C77.4404 35.6531 77.2177 35.8033 76.9689 35.9C76.433 36.107 75.8695 36.2405 75.2952 36.2964C74.0641 36.4754 72.6962 36.6659 71.922 37.8128C70.5541 37.9473 70.8042 36.4162 69.677 36.665C68.8294 38.0043 67.9961 38.1942 67.1184 38.3851C66.2511 38.5825 65.3058 38.7377 64.407 40.0964C65.8927 40.5361 65.8092 40.217 64.8802 42.4788C65.448 41.8592 66.0112 41.2279 66.5899 40.6117L68.3804 38.8166L67.6129 40.4734C67.3611 41.0237 67.1051 41.5618 66.8794 42.1325C67.0308 42.0184 67.1751 41.8959 67.3115 41.7656C67.4554 41.641 67.5946 41.5085 67.7293 41.372C67.9988 41.0989 68.2514 40.8095 68.4931 40.5352C68.9764 39.9867 69.416 39.4978 69.8498 39.3279C69.2116 41.0302 69.1617 40.679 70.3691 41.1207C68.9727 40.9391 68.2904 41.7315 67.6621 42.6222C67.0461 43.5367 66.4612 44.5183 65.1286 44.7385L63.2099 42.299C62.3497 42.5597 61.5704 43.0229 60.9428 43.6466C60.3505 44.2828 59.8183 44.9686 59.3522 45.6959C58.8482 46.4742 58.2966 47.2231 57.7009 47.9389C57.0448 48.7688 56.2604 49.497 55.3755 50.0982L56.832 49.4587C57.2264 50.7494 54.8667 51.5192 54.1345 52.8898C53.5039 52.0891 52.5885 52.5059 51.6829 52.5412C52.2826 52.9903 49.2621 54.9597 50.4691 56.5781C49.6639 56.777 48.8989 57.0207 48.107 57.2508C46.6695 58.4853 46.5093 59.7409 46.3925 60.9696C46.3083 62.2292 46.2724 63.4678 45.0389 64.7325C44.8559 63.2645 43.2915 64.1181 44.1781 61.7825C43.4256 62.7129 42.613 63.4515 43.1445 63.8673C42.9137 63.9128 42.7352 64.147 42.5756 64.4756C42.3998 64.8615 42.2552 65.2603 42.1432 65.668C41.8659 66.5434 41.5316 67.4248 40.8351 67.6078C40.8917 68.2531 41.6317 68.9489 40.7923 69.9675C40.5455 69.9767 40.3992 69.7014 40.3992 69.7014C40.5978 69.8361 40.4227 70.3382 40.4108 70.7713C40.4043 71.2088 40.5398 71.5598 41.2974 71.3731C40.1932 71.7461 39.2251 72.4206 38.5113 73.3146C37.7239 74.2491 37.0542 75.2707 36.5168 76.3579C35.9914 77.4156 35.3957 78.4393 34.7335 79.423C34.5712 79.6487 34.4019 79.8629 34.2277 80.0655C34.0672 80.2692 33.8937 80.463 33.7077 80.6456C33.3537 80.9996 32.9382 81.2912 32.48 81.5074C32.2495 82.1085 32.0075 82.7405 31.7608 83.3844C31.6342 83.7035 31.5065 84.0256 31.3782 84.3484L31.1834 84.8304L31.0093 85.3209C30.5443 86.6246 30.0653 87.8839 29.6139 88.948C29.4258 88.7084 29.2011 88.7664 29.4703 88.4039C28.9435 89.0498 28.7789 89.5502 28.7918 89.9775C28.8488 90.3892 28.9931 90.785 29.2164 91.1404C29.6027 91.881 29.9567 92.6468 28.8542 94.1453C26.8221 95.3602 28.8359 92.0938 27.8991 92.9706C26.4358 92.6851 26.1181 93.7567 25.8764 95.0991C25.6867 96.4647 25.5567 98.0786 24.3762 98.9954L24.402 98.3784C23.6484 99.1278 23.5235 100.303 23.5513 101.658C23.5551 103.009 23.6104 104.507 23.1087 105.951C23.1087 105.951 22.9115 105.749 22.7092 105.833C23.1471 107.021 23.2852 108.593 23.2537 110.22C23.2469 110.627 23.2306 111.037 23.2078 111.447L23.1719 112.061C23.1668 112.266 23.1617 112.471 23.1566 112.675C23.1325 113.488 23.0928 114.278 23.0588 115.003C22.2065 113.944 22.7472 113.611 21.6288 113.974C21.5572 115.286 23.346 113.898 23.1797 116.479C22.7758 116.973 22.4007 117.489 22.0562 118.023C21.6641 118.575 21.2191 119.051 20.6733 119.105C20.7494 118.286 20.7986 117.462 20.9296 116.649C20.5691 116.869 20.3054 117.21 20.1893 117.606C20.0953 117.995 20.0712 118.397 20.118 118.794C20.1863 119.618 20.3943 120.457 20.207 121.09L19.6303 120.855C19.5834 121.621 19.6201 122.389 19.7399 123.148C19.8624 123.7 20.0152 124.245 20.1978 124.782C20.637 126.094 20.7786 127.482 20.6129 128.852L21.063 128.46C21.1967 128.692 21.305 128.936 21.3861 129.19C21.4479 129.363 21.4822 129.544 21.4883 129.727C21.4818 129.994 21.4021 130.256 21.2568 130.484C21.0111 130.932 20.7314 131.386 21.2212 132.491L19.8482 133.129C20.1167 134.604 21.2894 138.222 21.6 140.781C21.1068 140.072 20.6995 138.959 20.3258 137.783C20.1455 137.193 19.9612 136.589 19.7861 136.016C19.6961 135.727 19.6089 135.446 19.5254 135.178C19.4453 134.91 19.3771 134.653 19.3 134.415C19.3122 135.455 19.4008 136.492 19.5661 137.519C19.7365 138.662 19.9789 139.711 20.3105 140.073C20.1598 139.498 19.8041 138.774 19.9724 138.193C20.5505 139.133 20.9805 140.15 21.2483 141.211C21.6156 142.461 21.8474 143.744 21.9401 145.041C20.7623 144.881 20.7514 146.763 21.062 148.944C21.1961 150.036 21.3583 151.205 21.4062 152.246C21.4659 153.285 21.4781 154.188 21.1852 154.768C21.638 155.977 22.0056 157.214 22.286 158.47C22.6298 159.709 22.9129 160.97 23.1909 162.262C23.3351 162.906 23.4543 163.564 23.6209 164.219C23.7995 164.871 23.9804 165.532 24.164 166.202C24.351 166.872 24.5486 167.55 24.7607 168.237C24.87 168.58 24.98 168.926 25.091 169.274C25.204 169.622 25.3537 169.963 25.4905 170.311C26.002 167.948 26.1517 171.926 27.2939 171.177C27.8488 172.441 28.0077 172.939 27.971 173.081C28.1744 174.478 28.5308 175.83 28.8498 177.203C28.9136 178.244 28.0664 176.092 27.8519 176.305C28.9988 179.126 27.8777 177.661 28.4109 179.627C28.5257 179.358 28.7792 179.543 29.0705 180.001C29.4717 180.626 29.8053 181.288 30.066 181.978C29.8715 181.174 29.6488 180.383 29.488 179.572C30.6994 181.368 30.8891 182.276 31.0775 183.204C31.2716 184.126 31.4478 185.076 32.7865 186.816L31.8032 185.779C32.4427 186.698 33.4379 188.479 34.5108 190.207C35.6618 191.894 36.8678 193.539 37.7836 194.251C37.841 194.421 37.8542 194.602 37.823 194.779C37.7765 194.871 37.6261 194.828 37.3427 194.432C37.6712 195.003 38.0813 195.547 38.477 196.113C38.8782 196.675 39.2964 197.241 39.7221 197.806C40.1528 198.368 40.5713 198.943 41.0255 199.491C41.4857 200.034 41.944 200.575 42.3968 201.109C42.8438 201.645 43.285 202.175 43.7158 202.691C44.1397 203.212 44.5471 203.724 44.9656 204.2C45.7218 205.074 46.4217 205.992 47.0602 206.949L46.6233 206.781C47.3066 207.5 48.0347 207.85 48.6942 208.9C48.5781 208.912 48.2499 208.749 48.5455 209.097C48.9576 209.438 50.6113 210.783 51.3777 211.843L50.4372 211.18C50.8441 211.68 51.2195 212.16 51.6255 212.573C52.0294 212.988 52.4242 213.371 52.8115 213.731C53.5874 214.449 54.3318 215.076 55.0646 215.673C55.2492 215.821 55.4325 215.968 55.6151 216.114L56.1864 216.528C56.5659 216.805 56.946 217.082 57.3337 217.364C58.1038 217.933 58.8821 218.54 59.7008 219.244C59.5814 219.366 59.656 219.652 59.8862 220.008C60.1957 220.456 60.5399 220.881 60.9157 221.279C61.7741 222.227 62.8755 223.297 63.6124 224.009L63.4909 224.041C65.5692 225.785 67.7901 227.364 70.1322 228.764C70.6773 229.087 71.2197 229.409 71.7641 229.732C72.3127 230.048 72.8452 230.391 73.4239 230.682C74.5658 231.287 75.7348 231.911 76.9571 232.606C77.3012 232.99 77.6797 233.344 78.0877 233.665C78.5415 234.022 79.0585 234.396 79.6212 234.786C80.184 235.175 80.7943 235.578 81.4365 235.991C81.759 236.196 82.0875 236.405 82.4222 236.617C82.7623 236.819 83.115 237.012 83.4683 237.212C84.8892 238.007 86.3684 238.836 87.8018 239.638C89.2613 240.397 90.6628 241.165 91.8783 241.943C91.1774 241.376 92.3461 241.252 93.3118 241.55C94.4509 242.284 97.0023 242.237 96.4138 243.134L95.9827 242.93C96.2519 243.604 97.0468 244.162 98.0223 244.658C99.0152 245.109 100.191 245.487 101.197 245.887L102.015 244.602C102.607 245.111 103.252 245.558 103.939 245.939C104.679 246.313 105.442 246.639 106.226 246.916C107.844 247.499 109.515 247.936 111.217 248.222C112.049 248.376 112.863 248.52 113.634 248.673C114.02 248.749 114.395 248.828 114.757 248.911L115.289 249.04C115.465 249.079 115.636 249.117 115.805 249.155C117.148 249.472 118.234 249.915 118.89 250.667C119.64 250.608 120.393 250.612 121.142 250.678C121.893 250.711 122.647 250.672 123.39 250.562L123.176 251.564C124.112 251.782 124.931 251.973 125.705 252.153C126.457 252.336 127.218 252.481 127.986 252.586C129.523 252.791 131.183 252.973 133.553 253.074C133.218 253.326 132.882 253.538 132.543 253.769C133.139 253.861 133.75 253.746 134.266 253.444C134.759 253.151 135.211 252.8 135.612 252.398C136.454 251.613 137.249 250.788 138.456 250.803L139.178 252.556C140.338 252.597 141.503 252.661 142.675 252.787L144.437 252.975C145.025 253.034 145.615 253.111 146.202 253.118C147.374 253.171 148.548 253.135 149.713 253.012C150.294 252.943 150.87 252.836 151.437 252.694C152.014 252.53 152.574 252.316 153.111 252.055C153.107 252.288 153.017 252.513 152.858 252.689C152.699 252.865 152.481 252.982 152.242 253.018C153.34 252.939 155.507 253.041 157.263 252.851C159.014 252.618 160.322 252.054 159.706 250.85C159.873 251.672 161.077 251.531 162.521 251.043C163.29 250.77 164.035 250.438 164.749 250.05C165.482 249.672 166.178 249.287 166.744 248.978L166.65 250.277C167.508 249.283 167.914 248.677 168.455 248.19C168.99 247.678 169.654 247.274 171.001 246.696C171.712 246.681 171.862 247.514 170.883 247.435C172.09 247.463 172.446 247.062 172.854 246.649C173.07 246.411 173.331 246.214 173.623 246.07C174.103 245.853 174.623 245.732 175.152 245.716L174.401 246.793C176.7 246.178 176.392 245.821 177.326 244.548C178.583 243.678 181.639 243.393 182.397 244.332C182.468 243.834 182.697 243.368 183.053 243C183.26 242.77 183.504 242.574 183.777 242.42C184.073 242.259 184.394 242.146 184.728 242.087C185.067 242.407 184.706 242.852 184.516 243.062C186.512 242.702 187.728 241.784 188.805 240.994C189.074 240.794 189.336 240.605 189.598 240.426C189.849 240.24 190.114 240.07 190.39 239.92C190.97 239.603 191.624 239.43 192.291 239.418C192.365 239.55 192.472 239.661 192.603 239.742C192.734 239.823 192.885 239.87 193.04 239.879C192.324 240.209 191.643 240.522 191.027 240.805C190.411 241.086 189.86 241.337 189.388 241.507C188.454 241.866 187.907 242.053 187.998 241.965C188.464 243.019 190.935 242.185 189.702 244.433C190.092 244.027 190.545 243.545 191.024 243.006C191.5 242.458 192.014 241.881 192.556 241.34C193.077 240.808 193.646 240.322 194.256 239.888C194.541 239.688 194.841 239.51 195.155 239.356C195.442 239.202 195.746 239.076 196.061 238.981C196.232 239.014 196.394 239.078 196.539 239.17L196.373 239.404C196.891 239.233 197.344 238.917 197.674 238.497C198.364 238.345 199.032 238.114 199.665 237.81C200.027 238.137 200.754 237.914 201.493 237.471C202.24 237.039 203.032 236.448 203.593 236.136C202.85 235.155 204.376 234.471 202.503 234.419C202.721 234.388 202.376 234.663 201.682 235.138C201.532 235.248 201.399 235.377 201.286 235.522C201.29 235.476 201.296 235.431 201.304 235.386C200.957 235.614 200.555 235.872 200.108 236.154C199.66 236.435 199.147 236.705 198.612 237.008C198.868 236.501 199.21 236.038 199.624 235.639C200.092 235.202 200.707 234.942 201.357 234.907C201.498 233.905 201.67 232.866 201.805 232.348C202.433 232.486 203.077 232.55 203.722 232.54C204.371 232.522 205.019 232.472 205.663 232.39C206.904 232.254 207.978 232.123 208.471 232.414C208.826 232.074 209.207 231.734 209.603 231.394C209.997 231.054 210.385 230.681 210.788 230.324C211.59 229.601 212.407 228.871 213.157 228.133C213.88 227.437 214.516 226.662 215.052 225.824C215.536 225.112 215.861 224.311 216.007 223.472C216.666 222.592 217.388 223.169 217.915 223.15C217.596 223.735 216.974 224.157 216.919 224.614C217.603 223.74 218.759 222.62 219.691 221.568C220.619 220.512 221.322 219.529 220.985 218.817C223.402 217.414 220.834 220.848 223.353 218.08L223.306 218.747C224.885 217.972 226.236 216.827 227.237 215.417C227.704 214.771 228.133 214.099 228.522 213.406C228.914 212.721 229.283 212.03 229.618 211.307C230.285 209.846 231.093 208.449 232.031 207.133C232.524 206.419 233.085 205.749 233.706 205.133C234.031 204.81 234.383 204.493 234.764 204.18C235.141 203.865 235.568 203.568 235.984 203.246C235.536 203.613 235.289 203.778 235.045 203.743C238.234 200.383 240.675 196.29 242.805 192.122L243.626 190.572C243.762 190.313 243.904 190.06 244.037 189.799L244.42 189.013C244.933 187.968 245.459 186.935 246.009 185.919L246.423 185.16L246.81 184.391C247.071 183.88 247.339 183.373 247.614 182.872C247.889 182.37 248.171 181.873 248.459 181.381C248.748 180.889 249.054 180.406 249.322 179.909C250.482 177.623 250.024 177.143 250.191 175.559C250.482 175.471 250.781 175.384 251.06 175.289C251.073 174.353 251.1 173.428 251.138 172.513C251.307 171.641 251.596 170.793 251.993 169.993C252.332 169.203 252.733 168.445 253.113 167.646C253.527 166.813 253.877 165.95 254.152 165.066C254.42 164.014 254.573 162.938 254.613 161.855L254.142 162.371C254.254 161.962 254.369 161.427 254.491 160.861C254.607 160.295 254.742 159.701 254.824 159.159C255.007 158.081 255.184 157.253 255.326 157.424C255.204 157.02 255.224 156.588 255.387 156.197L255.608 156.185C255.652 155.488 255.733 154.798 255.767 154.102L255.869 152.019C256.141 150.435 256.277 150.578 256.429 150.539C256.507 150.52 256.585 150.454 256.674 150.099C256.823 149.383 256.901 148.653 256.901 147.922C256.901 147.042 256.86 145.788 256.83 144.842C256.796 143.894 256.779 143.252 256.728 143.576C256.68 144.277 256.545 145.361 256.433 145.404L256.528 143.817C256.416 143.665 256.334 143.281 256.205 143.418C256.083 143.555 255.866 144.211 255.391 146.112C255.296 147.006 255.211 147.902 255.156 148.8C255.031 149.078 254.895 149.353 254.759 149.627C254.939 148.888 255.051 148.141 255.187 147.394C255.014 147.921 254.888 148.462 254.814 149.01C254.736 149.482 254.715 149.915 254.681 150.371C254.447 150.696 254.274 151.057 254.165 151.438C254.121 152.319 254.108 153.208 254.114 154.102C253.965 154.24 253.914 153.932 253.843 153.804C253.805 153.74 253.761 153.721 253.697 153.824C253.571 154.067 253.466 154.318 253.378 154.575C253.337 155.193 253.558 154.931 253.724 154.762C253.897 154.594 254.023 154.519 253.86 155.532C253.259 156.735 253.096 156.317 252.974 157.831C252.743 158.001 252.713 157.669 252.797 157.078C252.716 157.745 252.519 158.61 252.339 159.394C252.132 160.174 251.976 160.881 252.078 161.26C251.66 161.851 251.345 162.937 251.053 163.839C250.941 164.229 250.781 164.604 250.574 164.955C250.404 165.22 250.228 165.352 250.034 165.266C250.004 166.473 249.824 167.672 249.495 168.837C249.417 168.226 249.284 168.195 249.101 168.468C248.982 168.664 248.877 168.868 248.796 169.078C248.677 169.335 248.538 169.632 248.395 169.941C247.835 171.18 247.183 172.599 246.684 172.113C246.756 172.69 246.705 173.275 246.538 173.832C246.301 174.558 246.026 175.272 245.71 175.97C245.381 176.728 245.021 177.516 244.705 178.296C244.373 179.024 244.094 179.776 243.877 180.545C243.823 180.286 243.87 180.018 244.006 179.79C243.13 181.207 242.547 181.469 241.813 182.288C242.737 182.944 241.636 185.267 241.589 186.811C240.585 187.444 240.43 187.01 240.377 186.446C240.322 185.878 240.368 185.176 239.728 185.208C240.17 185.373 239.926 186.226 239.708 187.016C239.653 187.214 239.602 187.408 239.56 187.585C239.516 187.736 239.485 187.891 239.469 188.048C239.45 188.31 239.53 188.464 239.801 188.413C238.328 189.378 238.769 189.374 237.45 189.549C238.63 190.521 236.897 190.877 236.999 192.417C235.025 193.846 235.387 192.118 234.364 194.357C233.812 194.695 233.733 194.345 233.794 193.918C233.85 193.599 233.938 193.286 234.057 192.984ZM191.855 232.562L191.843 232.541C192.285 232.28 192.661 232.058 192.902 231.916C192.684 232.05 192.382 232.237 191.855 232.562ZM187.318 234.685C187.893 234.474 188.587 234.162 189.313 233.818C189.668 234.13 189.695 234.606 189.223 234.799C189.344 234.426 188.154 234.702 187.318 234.685ZM201.218 237.292C200.581 237.887 200.193 237.794 199.966 237.637C200.136 237.532 200.321 237.417 200.523 237.278C200.721 237.132 200.937 236.966 201.179 236.772C201.176 236.72 201.193 236.649 201.187 236.592C201.251 236.82 201.262 237.059 201.218 237.292Z" fill="black"/>
<path d="M201.682 235.136C201.756 235.042 201.84 234.957 201.932 234.881C201.74 234.876 201.548 234.884 201.357 234.904C201.338 235.067 201.316 235.231 201.304 235.386C201.431 235.301 201.563 235.214 201.682 235.136Z" fill="black"/>
<path d="M179.117 26.7976L179.021 26.735C179.093 26.8023 179.148 26.8849 179.181 26.9761C179.153 26.919 179.131 26.8592 179.117 26.7976Z" fill="black"/>
<path d="M119.496 241.9L119.459 242.14L119.931 241.984L119.496 241.9Z" fill="black"/>
<path d="M202.922 42.4061C202.924 42.5593 202.979 42.7072 203.08 42.8248C203.105 42.7595 203.026 42.5957 202.922 42.4061Z" fill="black"/>
<path d="M212.691 49.3506C213.08 49.763 213.44 50.2077 213.812 50.636C213.478 50.1768 213.103 49.7465 212.691 49.3506Z" fill="black"/>
<path d="M219.508 55.4875C219.645 55.4699 219.777 55.4247 219.896 55.3545C219.892 55.3494 219.889 55.3436 219.887 55.3378L219.508 55.4875Z" fill="black"/>
<path d="M84.3067 42.1095C84.2062 42.1712 84.1159 42.2474 84.0392 42.3355C83.4808 42.9794 83.9027 42.6147 84.3067 42.1095Z" fill="black"/>
<path d="M123.937 25.4255C123.534 25.7557 123.099 26.0481 122.639 26.2987C123.43 26.3129 124.032 26.2654 123.937 25.4255Z" fill="black"/>
<path d="M50.0747 73.2723C50.071 73.2635 50.0652 73.2655 50.0581 73.2547C50.002 73.3358 49.945 73.402 49.8846 73.4801L50.0747 73.2723Z" fill="black"/>
<path d="M120.628 26.6078C121.316 26.7404 122.029 26.6292 122.639 26.2943C122.297 26.2745 121.954 26.2828 121.614 26.3192C121.269 26.3481 120.933 26.4463 120.628 26.6078Z" fill="black"/>
<path d="M244.176 86.3392L244.38 86.735C244.397 86.7191 244.424 86.7347 244.454 86.7588L244.176 86.3392Z" fill="black"/>
<path d="M244.454 86.7532L244.729 87.171C244.658 87.019 244.566 86.8781 244.454 86.7532Z" fill="black"/>
<path d="M245.299 88.0424L244.729 87.1664C244.879 87.4824 245.069 87.777 245.299 88.0424Z" fill="black"/>
<path d="M237.873 75.9947L237.633 75.9788C237.668 75.9992 237.709 76.011 237.751 76.0138C237.793 76.0165 237.835 76.01 237.873 75.9947Z" fill="black"/>
<path d="M235.658 73.0444C235.902 73.4089 236.155 73.9001 236.435 74.4235C236.706 74.9733 237.042 75.491 237.438 75.9652L237.632 75.9811C237.054 75.6641 236.465 73.5203 235.658 73.0444Z" fill="black"/>
<path d="M228.188 59.2026L230.091 61.7412C229.943 61.1499 229.764 60.3475 230.748 61.413C228.806 57.8106 230.803 62.437 228.188 59.2026Z" fill="black"/>
<path d="M221.657 51.7892C223.017 52.8611 221.978 51.4375 222.175 51.3642C221.171 50.8204 220.923 50.7026 221.657 51.7892Z" fill="black"/>
<path d="M157.225 20.3064L157.588 19.1128C156.201 19.0844 157.505 19.5843 157.225 20.3064Z" fill="black"/>
<path d="M142.994 25.6336L144.214 26.445L144.86 25.2972C144.237 25.3823 143.614 25.5143 142.994 25.6336Z" fill="black"/>
<path d="M134.756 16.396L135.358 16.2C134.587 16.3728 133.818 16.528 133.054 16.7221C133.619 16.5937 134.187 16.5055 134.756 16.396Z" fill="black"/>
<path d="M32.522 78.3698L34.0382 78.7212C34.2544 77.8176 32.878 76.8431 32.522 78.3698Z" fill="black"/>
<path d="M20.0001 128.356C19.3725 128.879 19.0406 130.325 19.5857 131.235C19.6587 130.079 20.0911 128.949 20.0001 128.356Z" fill="black"/>
<path d="M104.172 246.586L103.612 246.565L103.061 246.519C103.716 246.696 104.396 246.797 105.063 246.933L104.172 246.586Z" fill="black"/>
<path d="M67.1296 120.642C66.2352 118.047 65.2733 116.28 64.2445 115.341C63.2605 114.357 61.7619 113.775 59.7487 113.596V112.254C59.9724 112.254 60.3078 112.232 60.7551 112.187C61.1577 112.142 61.5827 112.12 62.03 112.12C64.4905 112.12 66.7046 112.679 68.673 113.798C70.6861 114.916 72.2964 117.197 73.5044 120.642L82.4955 146.542L89.6755 125.272L88.0649 120.642C87.1701 118.047 86.2086 116.28 85.1797 115.341C84.1954 114.357 82.6968 113.775 80.684 113.596V112.254C80.9077 112.254 81.2206 112.232 81.6232 112.187C82.0706 112.142 82.5179 112.12 82.9653 112.12C85.4258 112.12 87.6399 112.679 89.6083 113.798C91.6214 114.916 93.2317 117.197 94.4394 120.642L103.431 146.542L114.905 112.791H117.79L102.424 157.748H101.082L91.1516 129.499L81.4891 157.748H80.147L67.1296 120.642Z" fill="black"/>
<path d="M127.131 120.843C127.131 118.562 126.818 116.884 126.192 115.811C125.566 114.692 124.313 114.133 122.434 114.133H121.092V112.791H138.673C147.351 112.791 153.904 114.714 158.333 118.562C162.806 122.409 165.043 127.777 165.043 134.666C165.043 139.094 164.103 143.009 162.225 146.408C160.346 149.763 157.55 152.38 153.837 154.259C150.169 156.138 145.696 157.077 140.417 157.077H127.131V120.843ZM140.216 154.729C143.526 154.729 146.501 153.923 149.14 152.313C151.824 150.658 153.927 148.354 155.448 145.402C156.969 142.404 157.729 138.915 157.729 134.934C157.729 131.042 156.969 127.598 155.448 124.601C153.971 121.604 151.891 119.277 149.207 117.622C146.523 115.967 143.481 115.139 140.082 115.139C137.934 115.139 135.698 115.498 133.371 116.213V153.856C135.877 154.438 138.158 154.729 140.216 154.729Z" fill="black"/>
<path d="M204.095 157.748C201.769 157.748 199.712 157.055 197.922 155.668C196.178 154.237 194.232 151.687 192.085 148.019L185.375 136.612H180.678V157.077H174.638V120.843C174.638 118.562 174.326 116.884 173.699 115.811C173.073 114.692 171.821 114.133 169.941 114.133H168.6V112.791H186.046C190.25 112.791 194.098 113.641 197.587 115.341C201.076 116.996 202.821 120.15 202.821 124.802C202.821 128.291 201.792 130.908 199.734 132.653C197.721 134.352 195.171 135.56 192.085 136.276L199.13 148.019C200.785 150.792 202.262 152.738 203.559 153.856C204.901 154.93 206.444 155.556 208.189 155.735V157.077C207.786 157.256 207.205 157.413 206.444 157.547C205.684 157.681 204.901 157.748 204.095 157.748ZM185.509 134.263C186.985 134.263 188.551 133.928 190.206 133.256C191.861 132.585 193.248 131.534 194.366 130.103C195.529 128.671 196.111 126.882 196.111 124.735C196.111 122.588 195.529 120.798 194.366 119.367C193.203 117.935 191.794 116.884 190.139 116.213C188.528 115.498 186.985 115.139 185.509 115.139C184.077 115.139 182.467 115.363 180.678 115.811V134.263H185.509Z" fill="black"/>
</g>
</g>
<defs>
<filter id="filter0_d" x="0" y="0" width="278" height="278" filterUnits="userSpaceOnUse" color-interpolation-filters="sRGB">
<feFlood flood-opacity="0" result="BackgroundImageFix"/>
<feColorMatrix in="SourceAlpha" type="matrix" values="0 0 0 0 0 0 0 0 0 0 0 0 0 0 0 0 0 0 127 0"/>
<feOffset dy="4"/>
<feGaussianBlur stdDeviation="2"/>
<feColorMatrix type="matrix" values="0 0 0 0 0 0 0 0 0 0 0 0 0 0 0 0 0 0 0.25 0"/>
<feBlend mode="normal" in2="BackgroundImageFix" result="effect1_dropShadow"/>
<feBlend mode="normal" in="SourceGraphic" in2="effect1_dropShadow" result="shape"/>
</filter>
<filter id="filter1_d" x="15.3" y="16.2" width="245.601" height="245.6" filterUnits="userSpaceOnUse" color-interpolation-filters="sRGB">
<feFlood flood-opacity="0" result="BackgroundImageFix"/>
<feColorMatrix in="SourceAlpha" type="matrix" values="0 0 0 0 0 0 0 0 0 0 0 0 0 0 0 0 0 0 127 0"/>
<feOffset dy="4"/>
<feGaussianBlur stdDeviation="2"/>
<feColorMatrix type="matrix" values="0 0 0 0 0 0 0 0 0 0 0 0 0 0 0 0 0 0 0.25 0"/>
<feBlend mode="normal" in2="BackgroundImageFix" result="effect1_dropShadow"/>
<feBlend mode="normal" in="SourceGraphic" in2="effect1_dropShadow" result="shape"/>
</filter>
</defs>
</svg>
