<svg width="246" height="246" viewBox="0 0 246 246" fill="none" xmlns="http://www.w3.org/2000/svg">
<g filter="url(#filter0_d)">
<path d="M234.376 80.3362C234.539 80.6495 234.58 80.4244 234.169 79.5484C234.019 79.36 233.863 79.174 233.704 78.99L234.376 80.3362Z" fill="black"/>
<path d="M232.149 74.2495C231.552 73.2675 230.707 72.2163 230.741 72.9991C231.535 73.8738 231.542 74.1647 232.373 75.1269C232.815 75.9887 232.998 76.688 232.842 76.5749C233.035 76.8648 233.398 77.9625 233.731 78.3899C233.544 77.7158 233.317 77.0522 233.056 76.4015C232.737 75.6639 232.36 74.9494 231.932 74.2638C231.844 73.9148 232.064 74.1962 232.149 74.2495Z" fill="black"/>
<path d="M163.479 10.3652L164.022 10.739C163.868 10.58 163.684 10.4528 163.479 10.3652Z" fill="black"/>
<path d="M102.653 4.686C103.111 4.56516 103.275 4.36086 103.269 4.19946C102.856 4.38601 102.52 4.5523 102.653 4.686Z" fill="black"/>
<path d="M91.762 5.0498C92.0009 5.04393 92.1951 5.01739 92.4079 5.0015C92.1296 4.90758 91.8692 4.88487 91.762 5.0498Z" fill="black"/>
<path d="M163.479 10.3692L162.083 9.3949C161.82 9.81358 162.761 10.0083 163.479 10.3692Z" fill="black"/>
<path d="M224.944 63.3591C225.12 63.5879 225.316 63.8017 225.53 63.999C225.364 63.7851 225.205 63.5781 225.046 63.3605C225.012 63.3639 224.978 63.3635 224.944 63.3591Z" fill="black"/>
<path d="M188.235 21.0013L188.655 21.2683C188.87 21.2225 189.079 21.1553 189.28 21.0679L188.235 21.0013Z" fill="black"/>
<path d="M204.69 33.337C204.383 32.9841 203.65 33.5415 203.255 33.7129C203.454 33.6635 203.661 33.6582 203.862 33.6973C204.063 33.7365 204.252 33.8192 204.415 33.9391C204.565 33.7682 204.66 33.5592 204.69 33.337Z" fill="black"/>
<path d="M224.252 58.6317L224.613 59.076C224.516 58.9619 224.367 58.7617 224.252 58.6317Z" fill="black"/>
<path d="M175.333 13.644C175.375 13.4914 175.378 13.3316 175.342 13.1775C175.282 13.3271 175.279 13.4922 175.333 13.644Z" fill="black"/>
<path d="M234.939 149.235C234.972 149.26 235.001 149.246 235.033 149.259C235.02 149.142 234.994 149.101 234.939 149.235Z" fill="black"/>
<path d="M241.552 127.498L241.528 127.817C241.555 127.853 241.582 127.89 241.609 127.892L241.552 127.498Z" fill="black"/>
<path d="M72.387 9.83054C72.4185 9.82959 72.4498 9.82647 72.4806 9.82117C72.8869 9.45337 72.6276 9.60058 72.387 9.83054Z" fill="black"/>
<path d="M11.6728 157.278C11.5774 156.286 12.0288 156.969 12.4294 157.532C12.8326 158.097 13.1866 158.54 12.968 157.086C12.8533 157.418 11.1409 154.91 11.6728 157.278Z" fill="black"/>
<path d="M224.717 62.906C224.567 62.6857 224.416 62.461 224.272 62.2316C224.406 62.4654 224.554 62.6908 224.717 62.906Z" fill="black"/>
<path d="M12.9667 157.085L12.9715 157.084L12.9233 156.785C12.9413 156.909 12.9514 156.979 12.9667 157.085Z" fill="black"/>
<path d="M35.9087 36.4377C36.1555 36.529 36.4205 36.564 36.6833 36.5396C36.5655 36.4483 36.3632 36.398 35.9087 36.4377Z" fill="black"/>
<path d="M63.5408 17.7527L62.7173 17.9829C63.0034 17.9519 63.2818 17.874 63.5408 17.7527Z" fill="black"/>
<path d="M26.3765 50.756C26.033 51.0537 25.7893 51.0683 25.5897 51.6623C25.6739 51.6572 25.7567 51.6392 25.8351 51.609C25.8063 51.3253 25.904 51.0388 26.3765 50.756Z" fill="black"/>
<path d="M17.094 65.676C17.2264 65.6278 17.3554 65.5711 17.4799 65.5067C17.54 65.3417 17.6103 65.1489 17.6721 64.9792L17.094 65.676Z" fill="black"/>
<path d="M208.604 191.466C209.021 191.413 209.445 191.435 209.854 191.532C209.105 191.225 210.565 189.294 208.604 191.466Z" fill="black"/>
<path d="M225.165 63.2309C224.978 63.183 224.817 63.0656 224.718 62.9033C224.831 63.0635 224.94 63.2173 225.046 63.3673C225.133 63.3751 225.195 63.3527 225.165 63.2309Z" fill="black"/>
<path d="M34.8845 57.4803L33.1561 59.397C33.7871 58.8064 34.3655 58.1653 34.8845 57.4803Z" fill="black"/>
<path d="M98.8834 225.511L99.5158 225.511C99.3108 225.453 99.0884 225.453 98.8834 225.511Z" fill="black"/>
<path d="M29.0833 65.7664C28.5039 65.9032 27.9663 66.17 27.5138 66.5451C27.5318 66.692 27.5807 66.8339 27.658 66.9615L29.0833 65.7664Z" fill="black"/>
<path d="M209.864 191.533C209.862 191.533 209.86 191.533 209.859 191.533C209.857 191.532 209.855 191.532 209.854 191.531C209.855 191.532 209.857 191.532 209.859 191.533C209.86 191.533 209.862 191.533 209.864 191.533Z" fill="black"/>
<path d="M219.057 176.984C217.559 178.951 219.379 178.555 219.664 179.359C219.518 179.628 219.357 179.889 219.181 180.141C219.066 180.298 218.929 180.439 218.774 180.56C218.694 180.634 218.595 180.685 218.487 180.708C218.378 180.732 218.266 180.725 218.161 180.691C217.803 180.573 217.494 180.196 216.911 180.41C216.526 181.189 216.242 182.011 216.066 182.857C215.977 183.234 215.865 183.606 215.733 183.972C215.603 184.301 215.415 184.605 215.177 184.872C214.935 184.825 214.695 184.982 214.684 184.584C214.46 185.634 213.517 186.76 212.576 187.931C211.584 189.066 210.59 190.241 210.334 191.539C210.181 191.581 210.019 191.581 209.866 191.538C210.524 191.678 211.118 192.018 211.562 192.506C210.828 193.38 210.758 194.633 209.77 194.338C210.286 193.855 210.048 193.57 210.064 193.151L209.518 194.263C207.764 194.144 210.329 192.804 209.593 192.17C208.93 193.12 208.326 194.26 207.693 195.297C207.401 195.796 207.071 196.274 206.706 196.727C206.385 197.111 206.002 197.443 205.573 197.712C204.957 197.372 205.646 196.593 206.164 195.999C206.657 195.379 206.981 194.955 205.715 195.382L208.03 193.798C205.014 193.881 209.317 192.74 206.316 192.604C205.738 193.046 205.2 193.536 204.711 194.069C204.32 194.513 203.989 194.881 203.684 195.274C202.931 196.272 202.018 197.148 200.98 197.87C200.888 198.927 201.966 198.504 201.867 199.564C200.36 201.702 198.992 201.723 197.812 201.637C196.619 201.55 195.587 201.335 194.707 203.165C194.623 203.813 194.789 204.542 194.632 205.223C194.486 205.914 193.972 206.514 192.574 206.907L192.33 205.117C190.853 206.03 190.8 206.773 190.654 207.443C190.507 208.107 190.283 208.733 188.397 209.245C188.486 208.808 188.988 208.336 189.398 207.987C189.797 207.624 190.101 207.38 189.828 207.453C189.365 207.47 188.915 207.599 188.518 207.829C188.417 207.91 188.334 208.01 188.276 208.123C188.217 208.236 188.184 208.36 188.178 208.487C188.111 208.993 188.193 209.598 187.419 210.087L186.271 209.084C183.291 211.223 180.245 214.075 176.665 216.193C176.658 215.692 177.058 214.961 175.986 214.992C173.722 216.454 171.241 217.574 168.626 218.314C167.965 218.512 167.302 218.698 166.642 218.875C165.984 219.055 165.303 219.166 164.642 219.299C163.312 219.546 162.019 219.783 160.768 219.954L159.387 221.761C158.956 221.877 158.411 221.434 158.787 221.05C156.78 221.141 158.956 221.877 158.223 222.65C157.183 223.068 156.591 222.355 157.141 221.768C156.287 222.364 155.389 222.899 154.453 223.368C153.937 223.637 153.394 223.904 152.834 224.161C152.272 224.43 151.694 224.667 151.103 224.872C148.732 225.67 146.247 226.228 144.315 225.807L144.943 225.302C143.502 225.286 142.835 226.082 142.157 226.791C141.853 227.152 141.477 227.451 141.049 227.667C140.515 227.865 139.923 227.865 139.389 227.667L139.864 227.376C139.083 227.406 138.298 227.462 137.509 227.543C137.116 227.587 136.721 227.63 136.326 227.674L135.734 227.748L135.139 227.799C133.551 227.946 131.967 228.094 130.428 228.237C127.341 228.36 124.412 228.348 122.074 227.418C121.607 228.265 120.066 228.093 118.597 227.98C117.13 227.811 115.726 227.742 115.429 228.852C114.352 228.465 113.311 227.989 112.319 227.427C111.546 227.037 110.591 226.671 108.165 226.146C107.51 226.063 106.972 226.311 106.38 226.6C105.752 226.964 105.037 227.167 104.304 227.189L104.459 226.144C103.651 226.414 102.838 226.675 102.018 226.925C101.702 226.476 101.399 225.995 101.096 225.534L99.5158 225.522C100.109 225.684 100.707 226.192 100.551 226.462C99.2436 226.401 97.9633 226.084 96.7879 225.529C96.3154 225.328 95.8697 225.072 95.4614 224.767C95.142 224.527 94.9624 224.325 94.9804 224.206L92.0773 223.963C91.5929 223.917 91.1031 223.883 90.6211 223.822L89.1802 223.612C89.4182 223.308 90.3764 223.466 91.1832 223.42C89.5641 223.476 89.5064 223.194 89.4796 222.946C89.4531 222.689 89.4637 222.441 87.9804 222.46C88.2777 222.743 87.6138 222.889 87.494 223.033C87.1219 222.778 86.7207 222.564 86.2981 222.396C86.0531 222.293 85.789 222.192 85.5103 222.094C85.2371 221.982 84.9493 221.872 84.6526 221.765C83.4463 221.338 82.2165 220.976 80.9691 220.678L81.611 220.323C81.1147 220.14 80.5961 219.989 80.0931 219.786C79.5863 219.592 79.0707 219.401 78.547 219.213C77.5002 218.835 76.4231 218.464 75.3268 218.088C74.2515 217.67 73.1663 217.229 72.0723 216.778C71.5262 216.549 70.9784 216.319 70.4282 216.089C69.8793 215.856 69.3566 215.571 68.821 215.307C70.2452 216.258 69.5093 216.773 68.2212 216.177L68.0627 215.334C67.0434 215.273 69.2405 216.234 67.3231 215.808C65.7675 214.902 66.6408 214.611 67.6676 214.885L65.611 214.09C65.5998 213.867 66.1082 214.013 66.3567 213.86C66.0251 213.805 65.7111 213.676 65.4396 213.484C65.0903 213.267 64.7176 212.961 64.3215 212.67C63.532 212.083 62.6821 211.508 61.9397 211.461L61.936 211.25C61.4214 210.95 60.9286 210.69 60.4829 210.417L59.2236 209.64C58.4233 209.156 57.7047 208.72 57.0095 208.3C56.6606 208.09 56.3174 207.884 55.9729 207.677C55.6416 207.452 55.309 207.227 54.9679 206.996C54.2873 206.532 53.5765 206.039 52.7843 205.476C52.4249 205.788 51.2416 204.835 50.1144 204.36C49.0543 203.395 47.9546 202.364 46.8151 201.267C45.7086 200.138 44.5369 198.978 43.2508 197.835C41.371 196.294 42.4813 197.596 41.5211 197.006C41.6799 196.61 39.2357 194.2 40.6993 195.273C39.2011 193.854 38.3308 192.87 37.3223 191.824C36.8186 191.3 36.286 190.756 35.6455 190.113C35.0196 189.458 34.3275 188.67 33.4406 187.71C33.6657 188.247 34.0115 188.786 33.6962 188.611C33.0465 187.914 32.4719 186.836 32.7122 186.828L32.9019 186.998C31.8181 185.879 30.8589 184.653 30.0399 183.342C29.5973 182.67 29.1543 181.988 28.7392 181.291L27.5872 179.152C27.2084 178.448 26.834 177.75 26.4681 177.07C26.3761 176.901 26.2844 176.733 26.1935 176.566C26.1086 176.395 26.0244 176.226 25.9409 176.058C25.7723 175.723 25.6025 175.396 25.4321 175.077C24.8327 173.908 24.1124 172.8 23.2819 171.771L23.44 171.979L20.8315 167.942C19.9185 165.945 21.7398 168.969 21.2738 167.394C20.6275 166.414 20.0522 165.391 19.5522 164.334C19.3207 163.852 19.1089 163.385 18.9138 162.925C18.818 162.695 18.7237 162.467 18.6303 162.243C18.5512 162.012 18.4725 161.784 18.3948 161.558C18.0872 160.651 17.797 159.77 17.4627 158.88C17.1287 157.99 16.7241 157.101 16.2805 156.139C16.3765 155.027 16.2713 153.907 15.9689 152.83C15.8939 152.514 15.8093 152.191 15.7153 151.859C15.6332 151.525 15.549 151.183 15.4631 150.835C15.2842 150.14 15.0819 149.425 14.8715 148.703C14.6631 147.981 14.4523 147.25 14.2439 146.527C14.0762 145.794 13.9174 145.068 13.785 144.363C13.6529 143.658 13.5474 142.974 13.4883 142.326C13.415 141.718 13.4211 141.104 13.5063 140.497L13.0837 140.834C12.4785 139.804 13.1591 139.436 13.1611 138.601C12.8101 138.78 12.9076 139.883 12.5569 139.236C12.3221 138.067 12.095 136.885 11.9178 135.69C11.7874 134.487 11.6809 133.276 11.5974 132.056C11.557 131.447 11.5122 130.837 11.4891 130.225C11.4935 129.611 11.4983 128.995 11.5027 128.378C11.5213 127.146 11.5532 125.913 11.6055 124.682C11.7196 123.447 11.8448 122.215 11.9802 120.987L12.1842 119.15L12.4887 117.324C12.6913 116.114 12.893 114.908 13.0946 113.704C13.3434 112.509 13.6024 111.324 13.8308 110.147C13.9903 109.518 13.9211 108.856 13.6353 108.271C13.3977 107.873 13.1102 107.505 12.7799 107.175C12.1961 106.499 11.7922 105.693 12.9734 103.597L14.0351 105.007C13.9917 104.112 14.0032 103.216 14.0701 102.322C14.1624 101.433 14.2904 100.543 14.4435 99.6563C14.605 98.7707 14.7564 97.8807 14.9849 97.0067C15.2214 96.134 15.4713 95.2644 15.7224 94.3975L16.0978 93.0988C16.2265 92.6674 16.329 92.2303 16.4824 91.807C16.7672 90.9543 17.0401 90.1024 17.2872 89.248C17.4101 88.8203 17.5255 88.392 17.6338 87.9623C17.7458 87.5343 17.8289 87.0981 17.9521 86.6755C18.1809 85.8235 18.3615 84.9604 18.4939 84.0897C18.6673 84.5843 19.0804 84.7302 18.8333 85.3599C19.5994 84.8368 20.0943 83.5911 20.2932 82.4231C20.541 81.2738 20.4979 80.1968 20.0861 80.0281C20.6126 79.0675 20.935 80.079 21.6217 79.6313C22.2191 79.0794 22.249 78.1117 22.3291 77.2428C22.4292 76.3844 22.5399 75.6115 23.2174 75.4794C23.4407 75.4319 23.3633 75.9896 23.3226 76.2618C23.2574 75.1964 25.4175 72.3428 23.8463 72.6248C24.6409 71.6415 25.2628 70.5394 25.6877 69.3626C25.9012 68.8287 26.1456 68.3066 26.4199 67.7992C26.708 67.3254 27.078 66.9024 27.5139 66.5484C27.2291 65.6207 27.9765 64.7437 28.5929 63.9399C28.747 63.7386 28.893 63.5411 29.0131 63.3472C29.1333 63.1735 29.2303 62.9858 29.3016 62.7882C29.3671 62.5958 29.3705 62.3887 29.3111 62.1942C29.2514 61.9997 29.1319 61.8276 28.968 61.7003C30.7371 62.9644 33.0245 58.842 33.2451 56.9694C33.46 57.7844 34.6914 56.2159 35.0587 57.2582C35.5712 56.6021 35.9778 55.8747 36.2643 55.1008C36.467 54.4776 36.3804 53.9766 35.8122 53.7628C36.7507 53.5496 37.583 53.0276 38.1651 52.2866C38.4251 51.954 38.6505 51.5979 38.8389 51.2229C39.0303 50.8515 39.2252 50.4924 39.4013 50.1319C40.1182 48.7063 40.795 47.4399 42.782 47.8741C45.618 43.3291 48.9929 39.1171 52.8383 35.3233C53.5331 36.2798 52.4792 37.2129 51.4714 38.1243C50.4636 39.0357 49.5027 39.9216 50.4416 40.7511C51.1927 39.8096 51.8329 38.9233 52.4059 38.0456C52.6927 37.604 52.9703 37.1763 53.2432 36.7557C53.381 36.5443 53.5175 36.3345 53.6533 36.1264C53.7995 35.9289 53.9455 35.732 54.0911 35.5355C54.6804 34.7399 55.3348 33.9914 56.0483 33.2968C56.4308 32.9309 56.8357 32.5871 57.2604 32.2672C57.7393 31.9384 58.2403 31.6409 58.7603 31.3769C59.9975 30.9392 58.7898 32.6031 58.6931 33.155C60.3716 31.5239 62.2741 30.1217 64.347 28.9875C65.3303 28.4099 66.2749 27.8062 67.1934 27.1854C68.1346 26.5881 69.0029 25.8901 69.7812 25.1045C69.8844 25.3055 69.5986 25.7433 69.307 26.113C70.0154 25.6349 71.2211 25.4713 70.5897 24.5611L70.0069 25.2208C69.0026 24.8581 69.3226 23.7311 69.8874 22.572C70.4563 21.4276 71.3032 20.3188 71.1698 19.9025C71.3466 23.3463 75.4877 18.6692 75.2246 23.2653C75.6306 22.8332 76.0287 22.0531 75.58 21.447C76.4418 21.2811 76.8793 21.5839 76.4771 22.6691C79.0157 20.9178 77.5192 20.2809 80.1066 19.1867C80.3164 19.6822 79.8826 20.096 79.8812 20.7844C80.719 19.2467 81.6751 17.7936 84.0776 17.3633C84.0637 17.7144 84.4771 18.008 83.8139 18.2513C84.2694 18.0558 84.71 17.8296 85.1322 17.5742C85.5467 17.3246 85.9387 17.0498 86.3328 16.7987C87.1148 16.2796 87.8517 15.7095 88.6198 15.1685C89.0041 14.898 89.3958 14.6347 89.8038 14.3882C90.2107 14.1309 90.6418 13.9112 91.0916 13.7317C92.0735 13.3402 93.1176 13.1131 94.1787 13.0601C93.5361 15.6431 95.8721 13.3839 96.6181 15.2523C97.3364 14.8652 98.0675 14.5092 98.7983 14.1346L97.6208 13.4079C98.6574 13.1905 99.5471 12.6244 100.43 12.1403C100.85 11.8954 101.295 11.6927 101.758 11.5351C102.211 11.4026 102.69 11.3707 103.158 11.4419C102.691 11.8043 102.225 12.1549 101.767 12.5231L105.613 11.4524L103.245 11.1101C105.197 9.72903 102.54 8.68712 105.495 8.73229C105.221 8.88137 105.76 8.79393 106.528 8.78816C106.951 8.7793 107.374 8.82285 107.785 8.91766C108.206 9.00048 108.602 9.17318 108.944 9.423C108.944 9.423 108.937 9.42391 108.937 9.42914C109.906 8.67588 110.936 7.888 112.587 8.16955C113.064 8.73708 112.487 10.3568 112.799 10.7355C113.226 9.85679 114.471 9.66467 115.747 9.43087C117.026 9.20939 118.337 8.94508 118.964 8.06511C118.537 8.47596 118.572 9.50443 118.726 9.6925L119.543 8.36035C120.563 8.74865 120.712 8.94416 120.58 9.75102C123.57 9.89039 119.553 7.35486 123.149 8.28968C122.87 8.40278 123.006 8.59126 122.427 8.80663C123.304 8.89485 124.187 8.91019 125.067 8.85245C125.933 8.8216 126.789 8.73304 127.639 8.64801C129.299 8.40118 130.992 8.44643 132.636 8.78148C133.467 10.6868 129.75 9.10305 130.76 10.7316C131.344 10.7143 131.936 10.6729 132.534 10.6154C133.133 10.5587 133.738 10.4763 134.344 10.4279L138.026 10.0384C140.481 9.87186 142.952 9.79932 145.172 10.4133L144.364 10.0806C144.901 8.88663 145.704 9.34252 146.666 9.98278C147.161 10.3367 147.68 10.6585 148.22 10.9461C148.763 11.233 149.399 11.3118 150 11.1669C149.4 11.2325 148.964 12.3633 149.175 12.123C149.93 12.366 150.707 12.5419 151.496 12.6485C152.346 12.7883 153.204 12.8855 154.064 12.9396L155.482 13.0256C155.972 13.05 156.47 13.107 156.992 13.1488C158.032 13.2432 159.153 13.3412 160.358 13.4989C160.107 13.6276 159.85 13.7741 159.598 13.9121C160.571 14.4764 161.604 14.9372 162.681 15.2863C163.257 15.4987 163.85 15.679 164.393 15.9071C164.939 16.1294 165.452 16.352 165.894 16.5809C166.667 16.2341 167.708 16.7127 167.38 15.6904C169.633 18.2947 172.47 18.9575 175.29 19.7102C178.093 20.4457 180.857 21.2728 182.596 23.6521C182.019 23.3492 180.993 23.3225 181.448 23.565L183.613 24.4406C184.325 24.7519 185.03 25.0779 185.741 25.3979C185.899 24.4838 185.504 24.6525 185.028 23.576C185.815 23.4363 187.172 23.789 188.171 24.3949C187.106 24.0833 186.92 24.3809 187.062 24.8543C187.201 25.3328 187.68 25.9689 187.922 26.4099C187.942 26.1127 188.366 26.0414 188.451 25.7814C189.638 28.3301 189.769 24.6102 191.991 27.2624L191.586 27.5163C192.754 28.0262 194.027 28.2627 195.06 29.1381C194.945 30.1888 193.705 28.7124 193.166 29.2779C193.95 29.7957 194.998 29.9602 195.92 30.2663C196.841 30.5717 197.669 30.9755 198.064 31.8349C197.264 31.5399 196.342 30.8474 195.544 30.5636C196.353 32.5072 196.695 32.4094 197.69 33.3545L197.597 33.2567C197.976 33.6239 198.337 34.0106 198.696 34.3974L199.781 35.5463L199.333 34.8441C200.047 34.7813 200.766 34.9018 201.416 35.1937C201.995 35.47 202.524 35.8342 202.983 36.272C203.474 36.6994 203.968 37.1596 204.55 37.5819C204.851 37.8022 205.168 38.0024 205.497 38.1813C205.853 38.3863 206.224 38.5639 206.608 38.7125C205.039 38.0876 204.784 38.1756 204.865 38.4149C204.943 38.6586 205.303 39.1195 204.896 39.3585C205.308 40.0801 206.01 41.0868 205.574 41.0268C206.38 41.2742 206.736 41.7895 207.18 42.319C207.685 43.0172 208.404 43.5463 209.235 43.8321C209.102 44.0752 210.348 44.9594 209.609 45.1613C211.142 46.365 209.631 44.5446 209.995 44.4363C210.715 44.843 211.344 45.382 211.847 46.0228C212.407 46.6769 212.941 47.4196 213.515 48.1792C214.071 48.9945 214.674 49.7782 215.323 50.5267C215.659 50.9116 216.033 51.2772 216.411 51.6478C216.797 52.0276 217.206 52.3844 217.637 52.7163C218.304 53.3704 218.866 53.8731 219.371 54.2988C219.863 54.7329 220.288 55.0971 220.712 55.4545C221.133 55.8129 221.546 56.1693 221.994 56.6025C222.218 56.8194 222.451 57.0553 222.699 57.32C222.938 57.5902 223.185 57.8936 223.453 58.2351C223.646 58.8009 223.376 58.6855 223.052 58.4361C222.806 58.2372 222.573 58.025 222.352 57.8003C222.716 58.5701 223.143 59.3111 223.63 60.0158C224.085 60.6797 224.595 61.2964 225.13 62.0051C224.817 61.773 224.902 62.1477 225.032 62.6881C225.829 63.853 226.038 63.2081 226.826 64.8978C226.359 64.6486 225.924 64.3475 225.53 64.0003C225.788 64.3302 226.053 64.6557 226.32 64.9809C226.584 65.3081 226.832 65.6448 227.089 65.9795C227.598 66.6509 228.103 67.3362 228.585 68.0575C228.616 68.5507 227.754 67.3121 227.3 66.8671C227.835 67.6733 228.558 68.7089 229.125 69.6372C229.712 70.556 230.235 71.3255 230.51 71.5299L230.038 70.3812C230.374 71.0031 229.963 70.8137 229.665 70.3812C229.278 69.8996 228.979 69.3592 228.779 68.7825C228.68 68.5653 228.653 68.3246 228.701 68.0921C228.931 68.4326 229.149 68.7812 229.359 69.1348C229.41 68.4119 228.779 67.341 227.998 66.1845C227.598 65.6109 227.182 65.0043 226.735 64.4372C226.311 63.9056 225.92 63.3506 225.564 62.775C225.944 62.9552 226.32 63.1409 226.69 63.3313C226.096 62.6888 225.491 62.0571 224.876 61.4359C224.818 61.1586 224.819 60.8942 224.935 60.8188C225.052 60.7421 225.282 60.8558 225.636 61.3609C225.027 59.6499 224.564 60.1617 224.103 58.6506C224.069 58.4731 224.142 58.5182 224.252 58.6353L223.115 57.2847C223.441 57.484 223.441 56.7355 223.913 57.7097C223.633 57.0536 223.272 56.4324 222.838 55.8591C222.491 55.3958 222.118 54.9501 221.723 54.5238C221.408 54.1932 221.111 53.8466 220.834 53.4851C220.599 53.2116 220.447 52.881 220.395 52.5293L220.597 52.7099C219.174 51.0345 218.966 51.0572 218.794 51.2184C218.619 51.3851 218.491 51.675 217.15 50.6475C217.151 49.7413 217.162 48.8129 217.185 47.8615L216.328 47.98C216.065 47.6137 215.547 46.8856 215.889 46.8245C215.156 46.3324 215.12 46.4552 215.169 46.6202C215.211 46.7906 215.317 47.0217 214.8 46.813C214.354 45.7835 213.303 44.7068 212.438 43.7561C211.546 42.8274 210.836 42.0209 211.171 41.3869C210.154 41.2528 212.235 43.2252 210.302 41.8438C210.611 41.1208 210.114 40.6578 209.405 40.1728C208.686 39.6948 207.77 39.1884 207.312 38.2462C208.319 38.1162 209.36 39.759 208.449 37.8477C208.008 37.8565 207.581 37.6976 207.261 37.4054C206.896 37.0714 206.572 36.698 206.296 36.2924C205.686 35.436 205.131 34.4201 204.415 33.9382C204.205 34.1333 203.915 34.0917 203.549 33.9075C203.083 33.6519 202.647 33.3475 202.249 32.9998C201.269 32.1994 200.103 31.0823 198.84 30.3758C199.04 30.2778 198.103 29.3138 196.874 28.1288C196.242 27.5548 195.545 26.9208 194.881 26.3181C194.221 25.7073 193.602 25.1138 193.113 24.6485L193.307 24.5159C192.705 24.901 191.872 24.6617 190.963 24.2161C190.509 23.9935 190.036 23.7174 189.561 23.4441C189.076 23.1861 188.592 22.9286 188.128 22.725C188.649 22.0784 189.133 21.9992 190.262 22.2853L188.655 21.2702C188.034 21.3993 187.407 21.2807 186.283 20.7669L187.245 20.1371C186.69 19.8105 186.102 19.5378 185.492 19.323C184.873 19.0952 184.243 18.863 183.591 18.6228C182.311 18.1044 180.951 17.5748 179.69 16.48C179.366 16.8919 179.598 17.8219 179.485 18.5168C179.374 19.2137 178.922 19.682 177.267 19.2386C177.417 18.6892 177.75 17.7809 178.648 17.9872C178.353 17.9197 177.516 17.9131 177.091 17.4631C177.648 17.3682 178.195 17.2993 178.745 17.2345C178.191 16.7094 177.926 16.7974 177.674 16.9452C177.541 17.0641 177.369 17.1346 177.187 17.1447C177.006 17.1548 176.826 17.1039 176.679 17.0007C177.067 16.2937 176.154 16.1155 176.595 15.6145C176.904 15.6763 177.374 16.356 177.926 16.2706C176.791 15.5693 175.549 14.4363 175.332 13.641C175.233 14.1166 174.857 14.6214 173.92 14.3196C171.573 13.3678 173.543 13.0727 172.356 12.0828C171.554 12.363 170.303 11.1474 169.764 12.3104C169.076 12.0349 169.174 11.4387 169.036 11.0138C168.312 11.0365 166.87 10.4888 165.7 10.2161C164.525 9.95339 163.654 9.91082 164.117 10.8017L164.403 10.9961C164.334 11.0009 164.264 10.9782 164.181 10.98L164.191 10.9834L164.181 10.98C163.078 10.9201 161.99 10.7095 160.948 10.3546C159.889 10.0215 158.853 9.62146 157.848 9.15712L157.082 8.81281C156.825 8.7009 156.566 8.59988 156.308 8.49415C155.791 8.2856 155.273 8.08239 154.752 7.89689C153.738 7.5018 152.67 7.24682 151.582 7.13953L151.696 6.69474C150.384 6.67984 148.986 6.42652 147.654 6.30925C146.32 6.20722 145.066 6.18346 144.09 6.52638C143.358 6.38158 142.476 5.40501 142.884 4.88616C141.885 4.92299 141.315 5.06806 140.659 5.05659C140.281 5.04766 139.907 4.99114 139.544 4.8885C139.326 4.83138 139.086 4.74923 138.815 4.65705C138.544 4.56811 138.242 4.45814 137.901 4.32267C138.931 4.00639 138.787 3.80508 138.715 3.73169C138.643 3.66517 138.652 3.69551 139.986 3.9604C139.367 3.76282 138.87 3.56593 138.426 3.41489C138.025 3.2609 137.614 3.13439 137.195 3.03629C136.396 2.87219 135.544 2.90861 134.121 3.44101C135.167 2.26116 132.302 1.73124 131.049 2.01992L132.795 3.04462C131.414 3.14295 130.228 2.92642 129.013 2.77395C129.254 2.22573 129.497 1.66962 129.743 1.13361C127.114 0.0284283 124.655 0.758364 122.443 1.53572C121.414 1.9286 120.33 2.1694 119.227 2.24996C118.965 2.25617 118.703 2.24112 118.444 2.20495C118.18 2.17661 117.918 2.12581 117.663 2.05317C117.086 1.87836 116.548 1.60042 116.078 1.23386C114.768 2.52557 119.008 1.89644 117.84 3.37921C116.634 3.34383 115.358 2.75098 114.266 2.16941C113.177 1.59124 112.277 1.01235 111.893 1.04782C110.16 0.751684 109.445 1.4733 108.742 2.23604C108.403 2.64405 108.001 2.99932 107.55 3.2893C107.289 3.44042 107.004 3.54932 106.706 3.61167C106.532 3.6483 106.355 3.67185 106.177 3.68207C105.973 3.70322 105.768 3.71089 105.563 3.70495C106.108 4.24993 106.757 5.83266 104.364 6.8413C102.002 7.01007 100.955 4.7345 102.375 3.98647C102.941 3.83889 103.255 3.98902 103.269 4.20323C103.999 3.8489 104.976 3.41655 103.903 2.90239L103.701 3.5729C102.396 3.13576 99.0756 3.75484 99.6424 2.61776C98.7939 3.10907 98.6588 3.40463 98.9079 3.58125C99.0987 3.68675 99.3112 3.75009 99.5308 3.76669C99.8071 3.80202 100.141 3.82358 100.496 3.85236C100.115 3.80528 99.7297 3.79052 99.3454 3.80827C99.0013 3.81984 98.6578 3.84812 98.3166 3.89299C97.6904 3.98141 97.0699 4.10456 96.4583 4.26175C95.1328 4.62239 93.7778 4.87153 92.4079 5.00645C93.0015 5.2115 93.6522 5.81158 93.1604 5.937C90.7793 6.17025 90.3594 6.60031 90.1737 7.1027C89.9891 7.61418 90.0163 8.16989 88.5533 8.75307C86.5415 8.37959 88.4372 6.34244 85.6502 8.10398C83.5627 8.08507 84.6764 6.63157 85.267 5.89304C84.7161 6.3679 84.063 6.71965 83.3546 6.92317C82.7094 7.09133 82.0475 7.19173 81.3802 7.22265C80.0924 7.2977 78.8701 7.15314 78.0249 7.3535L79.3086 6.31162C78.64 6.82464 77.8827 7.21966 77.0715 7.47844L78.4112 8.34215C77.4652 8.46319 76.733 8.73582 76.5365 8.24033C76.2589 8.79611 76.6448 9.21988 76.9333 9.7221C77.2256 10.2289 77.4085 10.7884 76.8016 11.6864C75.4269 11.5758 73.763 13.7803 72.6402 12.4157C74.5037 11.9124 74.225 11.5683 73.8343 11.1563C73.4433 10.7446 72.9321 10.2693 74.3727 9.48586C73.762 9.97749 73.0197 10.2927 72.2312 10.3952C72.0214 10.2798 72.1976 10.0249 72.387 9.83452C71.3728 9.86598 70.8158 10.0363 70.5032 10.293C70.2306 10.5652 70.0792 10.9293 70.0816 11.3075C69.9872 12.0994 69.9689 13.056 68.2704 13.8817C68.2517 12.8193 66.6187 12.6782 66.1558 13.1407C67.5467 12.4621 67.5692 14.218 66.6883 15.4772C64.201 15.9834 64.6789 17.2267 63.5408 17.7565L64.9681 17.3588C65.0299 18.4169 63.9308 18.8863 62.6488 19.9475C62.1305 19.3885 63.6912 18.7799 63.0032 18.7903C62.9298 19.039 62.7988 19.2684 62.6196 19.4607C62.4404 19.6531 62.2177 19.8033 61.9689 19.9C61.433 20.107 60.8695 20.2405 60.2952 20.2964C59.0641 20.4753 57.6962 20.6659 56.922 21.8128C55.5541 21.9473 55.8042 20.4161 54.677 20.665C53.8294 22.0043 52.9961 22.1942 52.1184 22.3851C51.2511 22.5824 50.3058 22.7377 49.407 24.0963C50.8927 24.5361 50.8092 24.2169 49.8802 26.4788C50.448 25.8592 51.0111 25.2278 51.5899 24.6117L53.3804 22.8166L52.6129 24.4734C52.3611 25.0237 52.1051 25.5618 51.8794 26.1325C52.0308 26.0184 52.1751 25.8959 52.3115 25.7656C52.4554 25.641 52.5946 25.5085 52.7293 25.3719C52.9988 25.0989 53.2514 24.8095 53.493 24.5351C53.9764 23.9867 54.416 23.4978 54.8497 23.3278C54.2116 25.0301 54.1617 24.679 55.3691 25.1207C53.9727 24.9391 53.2904 25.7315 52.6621 26.6222C52.0461 27.5367 51.4612 28.5183 50.1286 28.7384L48.2098 26.299C47.3497 26.5597 46.5704 27.0228 45.9428 27.6466C45.3505 28.2827 44.8183 28.9686 44.3522 29.6959C43.8482 30.4741 43.2966 31.2231 42.7009 31.9388C42.0448 32.7687 41.2604 33.4969 40.3755 34.0982L41.832 33.4587C42.2264 34.7494 39.8667 35.5192 39.1345 36.8898C38.5039 36.0891 37.5884 36.5059 36.6828 36.5412C37.2826 36.9903 34.262 38.9596 35.469 40.578C34.6639 40.7769 33.8988 41.0206 33.107 41.2508C31.6695 42.4853 31.5093 43.7408 31.3925 44.9696C31.3083 46.2292 31.2723 47.4678 30.0389 48.7325C29.8559 47.2644 28.2915 48.1181 29.1781 45.7825C28.4256 46.7129 27.613 47.4515 28.1445 47.8673C27.9137 47.9127 27.7352 48.147 27.5756 48.4755C27.3998 48.8615 27.2552 49.2603 27.1432 49.6679C26.8659 50.5433 26.5316 51.4248 25.835 51.6078C25.8917 52.253 26.6317 52.9489 25.7923 53.9675C25.5455 53.9766 25.3992 53.7014 25.3992 53.7014C25.5978 53.8361 25.4226 54.3381 25.4108 54.7712C25.4043 55.2088 25.5397 55.5597 26.2973 55.373C25.1932 55.7461 24.2251 56.4205 23.5113 57.3146C22.7238 58.249 22.0541 59.2707 21.5168 60.3579C20.9914 61.4156 20.3957 62.4393 19.7335 63.4229C19.5712 63.6487 19.4018 63.8628 19.2277 64.0655C19.0672 64.2691 18.8937 64.4629 18.7077 64.6456C18.3537 64.9996 17.9382 65.2912 17.48 65.5074C17.2495 66.1085 17.0075 66.7405 16.7608 67.3844C16.6341 67.7035 16.5065 68.0256 16.3782 68.3484L16.1834 68.8304L16.0093 69.3209C15.5442 70.6246 15.0653 71.8839 14.6139 72.948C14.4258 72.7084 14.2011 72.7664 14.4703 72.4039C13.9435 73.0498 13.7789 73.5501 13.7918 73.9775C13.8488 74.3892 13.9931 74.785 14.2164 75.1404C14.6027 75.881 14.9567 76.6467 13.8542 78.1453C11.8221 79.3601 13.8359 76.0938 12.8991 76.9706C11.4358 76.6851 11.1181 77.7567 10.8764 79.0991C10.6867 80.4646 10.5567 82.0786 9.37614 82.9954L9.40194 82.3783C8.64841 83.1278 8.52349 84.3026 8.55133 85.6582C8.55506 87.0092 8.6104 88.5071 8.10872 89.951C8.10872 89.951 7.9115 89.7487 7.7092 89.8329C8.14707 91.0209 8.28522 92.5931 8.25365 94.2196C8.24686 94.6266 8.23057 95.0373 8.20782 95.447L8.17185 96.0607C8.16676 96.2661 8.16167 96.4707 8.15658 96.6747C8.13248 97.488 8.09276 98.2775 8.05882 99.0032C7.20651 97.9442 7.74723 97.6105 6.62881 97.9744C6.55719 99.2856 8.34598 97.8977 8.17966 100.479C7.77574 100.973 7.40067 101.489 7.05615 102.023C6.66411 102.575 6.21912 103.051 5.67332 103.105C5.74936 102.285 5.79856 101.462 5.92958 100.649C5.56911 100.869 5.30538 101.209 5.18929 101.606C5.09527 101.995 5.07117 102.396 5.11801 102.794C5.18624 103.618 5.39431 104.457 5.20694 105.09L4.63026 104.855C4.58342 105.621 4.62007 106.389 4.73989 107.148C4.86242 107.7 5.01516 108.245 5.19778 108.781C5.637 110.094 5.77854 111.482 5.61289 112.852L6.06299 112.46C6.19672 112.692 6.305 112.936 6.38612 113.19C6.4479 113.363 6.48217 113.544 6.48828 113.727C6.48183 113.994 6.40207 114.256 6.25679 114.484C6.01105 114.932 5.73136 115.386 6.22116 116.491L4.84816 117.129C5.11665 118.604 6.28938 122.221 6.59996 124.781C6.10677 124.072 5.69945 122.959 5.32574 121.783C5.14551 121.193 4.96119 120.589 4.78605 120.016C4.6961 119.727 4.60886 119.446 4.52536 119.178C4.44526 118.91 4.37704 118.653 4.29999 118.415C4.31221 119.454 4.4008 120.492 4.5661 121.519C4.73649 122.662 4.97884 123.711 5.31046 124.073C5.15976 123.498 4.80404 122.774 4.9724 122.193C5.55045 123.133 5.9805 124.15 6.24831 125.211C6.61557 126.461 6.84741 127.744 6.94007 129.041C5.76225 128.881 5.75139 130.763 6.06196 132.944C6.19604 134.036 6.35828 135.205 6.40614 136.246C6.46588 137.285 6.4781 138.188 6.18518 138.768C6.63798 139.977 7.00557 141.214 7.28594 142.47C7.62978 143.709 7.91287 144.97 8.19086 146.262C8.33512 146.906 8.45425 147.564 8.62091 148.219C8.79945 148.871 8.98037 149.532 9.164 150.202C9.35102 150.872 9.54857 151.55 9.76071 152.237C9.87001 152.58 9.97999 152.926 10.091 153.274C10.204 153.622 10.3537 153.963 10.4905 154.311C11.002 151.948 11.1517 155.926 12.2939 155.177C12.8488 156.441 13.0077 156.939 12.971 157.081C13.1743 158.478 13.5307 159.83 13.8498 161.203C13.9136 162.244 13.0664 160.092 12.8519 160.305C13.9988 163.126 12.8777 161.661 13.4109 163.627C13.5257 163.358 13.7792 163.543 14.0704 164.001C14.4717 164.626 14.8053 165.288 15.066 165.978C14.8715 165.173 14.6488 164.383 14.4879 163.572C15.6994 165.368 15.8891 166.276 16.0775 167.204C16.2716 168.126 16.4478 169.076 17.7865 170.816L16.8032 169.778C17.4427 170.698 18.4379 172.479 19.5108 174.207C20.6618 175.894 21.8678 177.539 22.7836 178.251C22.8409 178.421 22.8542 178.602 22.8229 178.779C22.7764 178.871 22.6261 178.828 22.3427 178.432C22.6712 179.002 23.0813 179.547 23.477 180.113C23.8782 180.675 24.2964 181.241 24.7221 181.806C25.1528 182.368 25.5713 182.943 26.0255 183.491C26.4857 184.034 26.944 184.575 27.3967 185.109C27.8438 185.645 28.285 186.175 28.7158 186.691C29.1397 187.212 29.547 187.724 29.9656 188.2C30.7218 189.074 31.4217 189.992 32.0602 190.949L31.6233 190.781C32.3066 191.5 33.0347 191.85 33.6942 192.9C33.5781 192.912 33.2499 192.749 33.5455 193.097C33.9576 193.438 35.6113 194.783 36.3777 195.843L35.4371 195.18C35.8441 195.68 36.2195 196.16 36.6255 196.573C37.0294 196.988 37.4242 197.371 37.8114 197.731C38.5874 198.449 39.3317 199.076 40.0646 199.673C40.2492 199.821 40.4325 199.968 40.6151 200.114L41.1864 200.528C41.5659 200.805 41.946 201.082 42.3336 201.364C43.1038 201.933 43.8821 202.539 44.7008 203.244C44.5813 203.366 44.656 203.652 44.8861 204.008C45.1957 204.456 45.5399 204.881 45.9156 205.279C46.7741 206.227 47.8755 207.297 48.6124 208.009L48.4909 208.041C50.5692 209.785 52.7901 211.364 55.1321 212.764C55.6773 213.087 56.2197 213.409 56.7641 213.732C57.3126 214.048 57.8452 214.391 58.4239 214.682C59.5658 215.287 60.7348 215.911 61.957 216.606C62.3012 216.99 62.6797 217.344 63.0877 217.665C63.5415 218.022 64.0584 218.396 64.6212 218.786C65.184 219.175 65.7943 219.578 66.4365 219.991C66.7589 220.196 67.0875 220.405 67.4222 220.617C67.7623 220.819 68.115 221.012 68.4683 221.212C69.8891 222.007 71.3684 222.836 72.8018 223.638C74.2613 224.397 75.6628 225.165 76.8783 225.943C76.1774 225.376 77.3461 225.252 78.3117 225.55C79.4509 226.284 82.0023 226.237 81.4138 227.134L80.9827 226.93C81.2519 227.604 82.0468 228.162 83.0223 228.658C84.0151 229.109 85.1906 229.487 86.1967 229.887L87.0154 228.602C87.607 229.111 88.2519 229.558 88.9392 229.939C89.6785 230.313 90.4422 230.639 91.2263 230.916C92.8444 231.499 94.515 231.936 96.2166 232.222C97.0492 232.376 97.8628 232.52 98.6343 232.673C99.0199 232.749 99.395 232.828 99.7568 232.911L100.289 233.04C100.465 233.079 100.636 233.117 100.805 233.155C102.148 233.472 103.234 233.915 103.89 234.667C104.64 234.608 105.393 234.612 106.142 234.678C106.893 234.711 107.647 234.672 108.39 234.562L108.176 235.564C109.112 235.782 109.931 235.973 110.705 236.153C111.457 236.336 112.218 236.481 112.986 236.586C114.523 236.791 116.183 236.972 118.553 237.074C118.218 237.325 117.882 237.538 117.543 237.769C118.139 237.861 118.75 237.746 119.266 237.444C119.759 237.151 120.211 236.8 120.612 236.397C121.454 235.613 122.249 234.788 123.456 234.803L124.178 236.556C125.338 236.597 126.503 236.661 127.675 236.787L129.437 236.975C130.025 237.034 130.615 237.111 131.202 237.118C132.374 237.171 133.548 237.135 134.713 237.012C135.294 236.943 135.87 236.836 136.437 236.694C137.014 236.53 137.574 236.316 138.111 236.055C138.107 236.288 138.017 236.513 137.858 236.689C137.699 236.865 137.481 236.982 137.242 237.018C138.34 236.939 140.507 237.041 142.263 236.851C144.014 236.618 145.322 236.054 144.706 234.85C144.873 235.672 146.077 235.531 147.521 235.042C148.29 234.77 149.035 234.438 149.749 234.05C150.482 233.672 151.178 233.287 151.744 232.978L151.65 234.277C152.508 233.283 152.914 232.677 153.455 232.19C153.99 231.678 154.654 231.274 156.001 230.696C156.712 230.68 156.862 231.514 155.883 231.435C157.09 231.463 157.446 231.062 157.854 230.649C158.07 230.411 158.331 230.214 158.623 230.07C159.103 229.853 159.623 229.732 160.152 229.716L159.401 230.793C161.7 230.178 161.392 229.821 162.326 228.548C163.583 227.678 166.639 227.393 167.397 228.332C167.468 227.834 167.697 227.368 168.053 227C168.26 226.77 168.504 226.574 168.777 226.42C169.073 226.259 169.394 226.146 169.728 226.087C170.067 226.407 169.706 226.852 169.516 227.062C171.512 226.702 172.728 225.784 173.805 224.994C174.074 224.794 174.336 224.605 174.598 224.426C174.849 224.239 175.114 224.07 175.39 223.92C175.97 223.603 176.624 223.43 177.29 223.418C177.365 223.55 177.472 223.661 177.603 223.742C177.734 223.823 177.885 223.87 178.04 223.879C177.324 224.209 176.643 224.522 176.027 224.805C175.411 225.086 174.86 225.337 174.388 225.507C173.454 225.866 172.907 226.053 172.998 225.965C173.464 227.019 175.935 226.185 174.702 228.433C175.092 228.027 175.545 227.545 176.024 227.005C176.5 226.458 177.014 225.881 177.556 225.34C178.077 224.808 178.646 224.322 179.256 223.887C179.541 223.688 179.841 223.51 180.155 223.356C180.442 223.202 180.746 223.076 181.061 222.981C181.232 223.014 181.394 223.078 181.539 223.17L181.373 223.404C181.891 223.233 182.344 222.917 182.674 222.497C183.364 222.345 184.032 222.114 184.665 221.81C185.027 222.137 185.754 221.914 186.493 221.471C187.24 221.039 188.032 220.448 188.593 220.136C187.85 219.155 189.376 218.471 187.503 218.419C187.721 218.388 187.376 218.663 186.682 219.138C186.532 219.248 186.399 219.377 186.286 219.522C186.29 219.476 186.296 219.431 186.304 219.386C185.957 219.614 185.555 219.872 185.108 220.154C184.66 220.435 184.147 220.705 183.612 221.008C183.868 220.501 184.21 220.038 184.624 219.639C185.092 219.202 185.707 218.942 186.357 218.907C186.498 217.905 186.67 216.866 186.805 216.348C187.433 216.486 188.077 216.55 188.722 216.54C189.371 216.522 190.019 216.472 190.663 216.39C191.904 216.254 192.978 216.123 193.471 216.414C193.826 216.074 194.207 215.734 194.603 215.394C194.997 215.054 195.385 214.681 195.788 214.324C196.59 213.601 197.407 212.871 198.157 212.133C198.88 211.437 199.516 210.662 200.052 209.824C200.536 209.112 200.861 208.311 201.007 207.472C201.666 206.592 202.387 207.169 202.915 207.15C202.596 207.735 201.974 208.157 201.919 208.614C202.603 207.74 203.759 206.62 204.691 205.568C205.619 204.512 206.322 203.529 205.985 202.817C208.402 201.414 205.834 204.848 208.353 202.08L208.306 202.747C209.885 201.972 211.236 200.827 212.237 199.417C212.704 198.771 213.133 198.099 213.522 197.406C213.913 196.721 214.283 196.03 214.618 195.307C215.285 193.846 216.093 192.449 217.031 191.133C217.524 190.418 218.085 189.749 218.706 189.133C219.031 188.81 219.383 188.493 219.764 188.18C220.141 187.865 220.568 187.568 220.984 187.245C220.536 187.613 220.289 187.778 220.045 187.743C223.234 184.383 225.675 180.29 227.805 176.122L228.626 174.572C228.762 174.313 228.904 174.06 229.037 173.799L229.42 173.013C229.933 171.968 230.459 170.935 231.009 169.919L231.423 169.16L231.81 168.391C232.071 167.88 232.339 167.373 232.614 166.872C232.889 166.37 233.171 165.873 233.459 165.381C233.748 164.889 234.053 164.406 234.322 163.909C235.482 161.623 235.024 161.143 235.191 159.559C235.482 159.471 235.781 159.384 236.059 159.289C236.073 158.353 236.1 157.428 236.138 156.513C236.307 155.641 236.596 154.793 236.993 153.993C237.332 153.203 237.733 152.445 238.113 151.646C238.527 150.813 238.877 149.95 239.152 149.066C239.42 148.014 239.573 146.938 239.613 145.855L239.142 146.371C239.254 145.961 239.369 145.427 239.491 144.861C239.607 144.295 239.742 143.701 239.824 143.159C240.007 142.081 240.184 141.253 240.326 141.424C240.204 141.02 240.224 140.588 240.387 140.197L240.608 140.185C240.652 139.488 240.733 138.798 240.767 138.102L240.869 136.019C241.141 134.434 241.277 134.578 241.429 134.539C241.507 134.52 241.585 134.454 241.674 134.099C241.823 133.383 241.901 132.653 241.901 131.922C241.901 131.042 241.86 129.788 241.83 128.842C241.796 127.894 241.779 127.252 241.728 127.576C241.68 128.277 241.545 129.361 241.433 129.404L241.528 127.817C241.416 127.665 241.334 127.281 241.205 127.418C241.083 127.555 240.866 128.211 240.391 130.112C240.296 131.006 240.211 131.902 240.156 132.8C240.031 133.078 239.895 133.353 239.759 133.627C239.939 132.888 240.051 132.141 240.187 131.394C240.014 131.921 239.888 132.462 239.814 133.01C239.736 133.482 239.715 133.915 239.681 134.371C239.447 134.695 239.274 135.057 239.165 135.438C239.121 136.319 239.108 137.208 239.114 138.102C238.965 138.24 238.914 137.932 238.843 137.804C238.805 137.74 238.761 137.721 238.697 137.824C238.571 138.067 238.466 138.318 238.378 138.574C238.337 139.193 238.558 138.931 238.724 138.762C238.897 138.593 239.023 138.518 238.86 139.532C238.259 140.735 238.096 140.317 237.974 141.831C237.743 142.001 237.713 141.669 237.797 141.078C237.716 141.745 237.519 142.61 237.339 143.394C237.132 144.174 236.976 144.881 237.078 145.26C236.66 145.85 236.345 146.937 236.053 147.839C235.941 148.229 235.781 148.604 235.574 148.955C235.404 149.22 235.228 149.352 235.034 149.265C235.004 150.473 234.824 151.672 234.495 152.837C234.417 152.226 234.284 152.195 234.101 152.468C233.982 152.663 233.877 152.867 233.796 153.078C233.677 153.335 233.538 153.632 233.395 153.941C232.835 155.18 232.183 156.599 231.684 156.113C231.756 156.69 231.705 157.275 231.538 157.832C231.301 158.558 231.026 159.272 230.71 159.97C230.381 160.728 230.021 161.516 229.705 162.296C229.373 163.024 229.094 163.776 228.877 164.545C228.823 164.286 228.87 164.018 229.006 163.79C228.13 165.207 227.547 165.469 226.813 166.287C227.737 166.944 226.636 169.267 226.589 170.811C225.585 171.444 225.43 171.01 225.377 170.445C225.322 169.878 225.368 169.176 224.728 169.208C225.17 169.373 224.926 170.226 224.708 171.016C224.653 171.214 224.602 171.408 224.56 171.585C224.516 171.736 224.485 171.891 224.469 172.048C224.45 172.31 224.53 172.464 224.801 172.413C223.328 173.378 223.769 173.374 222.45 173.549C223.63 174.521 221.897 174.877 221.999 176.417C220.025 177.846 220.387 176.118 219.364 178.357C218.812 178.695 218.733 178.345 218.794 177.918C218.85 177.599 218.938 177.286 219.057 176.984ZM176.855 216.562L176.843 216.541C177.285 216.28 177.661 216.058 177.902 215.916C177.684 216.05 177.382 216.237 176.855 216.562ZM172.318 218.685C172.893 218.474 173.587 218.162 174.313 217.818C174.668 218.13 174.695 218.606 174.223 218.799C174.344 218.426 173.154 218.702 172.318 218.685ZM186.218 221.292C185.581 221.887 185.193 221.794 184.966 221.637C185.136 221.532 185.321 221.417 185.523 221.278C185.721 221.132 185.937 220.966 186.179 220.772C186.176 220.72 186.193 220.649 186.187 220.592C186.251 220.82 186.262 221.059 186.218 221.292Z" fill="black"/>
<path d="M186.682 219.136C186.756 219.042 186.84 218.957 186.932 218.881C186.74 218.876 186.548 218.884 186.357 218.904C186.338 219.067 186.316 219.231 186.304 219.386C186.431 219.301 186.563 219.214 186.682 219.136Z" fill="black"/>
<path d="M164.117 10.7976L164.021 10.735C164.093 10.8023 164.148 10.8849 164.181 10.9761C164.153 10.919 164.131 10.8592 164.117 10.7976Z" fill="black"/>
<path d="M104.496 225.9L104.459 226.14L104.931 225.984L104.496 225.9Z" fill="black"/>
<path d="M187.922 26.4061C187.924 26.5593 187.979 26.7072 188.08 26.8248C188.105 26.7595 188.026 26.5957 187.922 26.4061Z" fill="black"/>
<path d="M197.691 33.3506C198.08 33.763 198.44 34.2076 198.812 34.636C198.478 34.1768 198.103 33.7465 197.691 33.3506Z" fill="black"/>
<path d="M204.508 39.4875C204.645 39.4699 204.777 39.4247 204.896 39.3545C204.892 39.3494 204.889 39.3436 204.887 39.3378L204.508 39.4875Z" fill="black"/>
<path d="M69.3067 26.1095C69.2062 26.1712 69.1159 26.2474 69.0392 26.3355C68.4808 26.9795 68.9027 26.6147 69.3067 26.1095Z" fill="black"/>
<path d="M108.937 9.42548C108.534 9.75567 108.099 10.0481 107.639 10.2987C108.43 10.3129 109.032 10.2654 108.937 9.42548Z" fill="black"/>
<path d="M35.0747 57.2723C35.0709 57.2635 35.0652 57.2655 35.058 57.2546C35.002 57.3358 34.945 57.402 34.8846 57.48L35.0747 57.2723Z" fill="black"/>
<path d="M105.628 10.6078C106.316 10.7404 107.029 10.6293 107.639 10.2944C107.297 10.2745 106.954 10.2828 106.614 10.3192C106.269 10.3481 105.933 10.4464 105.628 10.6078Z" fill="black"/>
<path d="M229.176 70.3392L229.38 70.735C229.397 70.7191 229.424 70.7347 229.454 70.7588L229.176 70.3392Z" fill="black"/>
<path d="M229.454 70.7532L229.729 71.1711C229.658 71.019 229.566 70.8781 229.454 70.7532Z" fill="black"/>
<path d="M230.299 72.0424L229.729 71.1664C229.879 71.4824 230.069 71.777 230.299 72.0424Z" fill="black"/>
<path d="M222.873 59.9947L222.633 59.9788C222.668 59.9991 222.709 60.011 222.751 60.0137C222.793 60.0164 222.835 60.01 222.873 59.9947Z" fill="black"/>
<path d="M220.658 57.0444C220.902 57.4089 221.155 57.9001 221.435 58.4235C221.706 58.9733 222.042 59.491 222.438 59.9652L222.632 59.9811C222.054 59.6641 221.465 57.5203 220.658 57.0444Z" fill="black"/>
<path d="M213.188 43.2026L215.091 45.7412C214.943 45.1499 214.764 44.3475 215.748 45.4129C213.806 41.8106 215.803 46.437 213.188 43.2026Z" fill="black"/>
<path d="M206.657 35.7892C208.017 36.8611 206.978 35.4375 207.175 35.3642C206.171 34.8205 205.923 34.7027 206.657 35.7892Z" fill="black"/>
<path d="M142.225 4.30636L142.588 3.11278C141.201 3.08444 142.505 3.58429 142.225 4.30636Z" fill="black"/>
<path d="M127.994 9.63355L129.214 10.445L129.86 9.29718C129.237 9.38231 128.614 9.51428 127.994 9.63355Z" fill="black"/>
<path d="M119.756 0.396017L120.358 0.200012C119.587 0.372841 118.818 0.527978 118.054 0.722074C118.619 0.593709 119.187 0.505537 119.756 0.396017Z" fill="black"/>
<path d="M17.522 62.3698L19.0382 62.7211C19.2544 61.8176 17.878 60.8431 17.522 62.3698Z" fill="black"/>
<path d="M5.00009 112.356C4.37249 112.879 4.04054 114.325 4.58566 115.235C4.65863 114.079 5.09106 112.949 5.00009 112.356Z" fill="black"/>
<path d="M89.1718 230.586L88.6125 230.565L88.0605 230.519C88.7163 230.696 89.3962 230.797 90.0632 230.933L89.1718 230.586Z" fill="black"/>
</g>
<defs>
<filter id="filter0_d" x="0.299988" y="0.200012" width="245.601" height="245.6" filterUnits="userSpaceOnUse" color-interpolation-filters="sRGB">
<feFlood flood-opacity="0" result="BackgroundImageFix"/>
<feColorMatrix in="SourceAlpha" type="matrix" values="0 0 0 0 0 0 0 0 0 0 0 0 0 0 0 0 0 0 127 0"/>
<feOffset dy="4"/>
<feGaussianBlur stdDeviation="2"/>
<feColorMatrix type="matrix" values="0 0 0 0 0 0 0 0 0 0 0 0 0 0 0 0 0 0 0.25 0"/>
<feBlend mode="normal" in2="BackgroundImageFix" result="effect1_dropShadow"/>
<feBlend mode="normal" in="SourceGraphic" in2="effect1_dropShadow" result="shape"/>
</filter>
</defs>
</svg>
