<svg width="238" height="238" viewBox="0 0 238 238" fill="none" xmlns="http://www.w3.org/2000/svg">
<path d="M230.376 80.3362C230.539 80.6495 230.58 80.4244 230.169 79.5484C230.019 79.36 229.863 79.174 229.704 78.99L230.376 80.3362Z" fill="black"/>
<path d="M228.149 74.2495C227.552 73.2675 226.707 72.2163 226.741 72.9991C227.535 73.8738 227.542 74.1647 228.373 75.1269C228.815 75.9887 228.998 76.688 228.842 76.5749C229.035 76.8648 229.398 77.9625 229.731 78.3899C229.544 77.7158 229.317 77.0522 229.056 76.4015C228.737 75.6639 228.36 74.9494 227.932 74.2638C227.844 73.9148 228.064 74.1962 228.149 74.2495Z" fill="black"/>
<path d="M159.479 10.3652L160.022 10.739C159.868 10.58 159.684 10.4528 159.479 10.3652Z" fill="black"/>
<path d="M98.6528 4.686C99.1107 4.56516 99.2747 4.36086 99.2692 4.19946C98.8558 4.38601 98.5201 4.5523 98.6528 4.686Z" fill="black"/>
<path d="M87.762 5.0498C88.0009 5.04393 88.1951 5.01739 88.4079 5.0015C88.1296 4.90758 87.8692 4.88487 87.762 5.0498Z" fill="black"/>
<path d="M159.479 10.3692L158.083 9.3949C157.82 9.81358 158.761 10.0083 159.479 10.3692Z" fill="black"/>
<path d="M220.944 63.3591C221.12 63.5879 221.316 63.8017 221.53 63.999C221.364 63.7851 221.205 63.5781 221.046 63.3605C221.012 63.3639 220.978 63.3635 220.944 63.3591Z" fill="black"/>
<path d="M184.235 21.0013L184.655 21.2683C184.87 21.2225 185.079 21.1553 185.28 21.0679L184.235 21.0013Z" fill="black"/>
<path d="M200.69 33.337C200.383 32.9841 199.65 33.5415 199.255 33.7129C199.454 33.6635 199.661 33.6582 199.862 33.6973C200.063 33.7365 200.252 33.8192 200.415 33.9391C200.565 33.7682 200.66 33.5592 200.69 33.337Z" fill="black"/>
<path d="M220.252 58.6317L220.613 59.076C220.516 58.9619 220.367 58.7617 220.252 58.6317Z" fill="black"/>
<path d="M171.333 13.644C171.375 13.4914 171.378 13.3316 171.342 13.1775C171.282 13.3271 171.279 13.4922 171.333 13.644Z" fill="black"/>
<path d="M230.939 149.235C230.972 149.26 231.001 149.246 231.033 149.259C231.02 149.142 230.994 149.101 230.939 149.235Z" fill="black"/>
<path d="M237.552 127.498L237.528 127.817C237.555 127.853 237.582 127.89 237.609 127.892L237.552 127.498Z" fill="black"/>
<path d="M68.387 9.83054C68.4185 9.82959 68.4498 9.82647 68.4806 9.82117C68.8869 9.45337 68.6276 9.60058 68.387 9.83054Z" fill="black"/>
<path d="M7.67278 157.278C7.5774 156.286 8.02885 156.969 8.42937 157.532C8.83261 158.097 9.18663 158.54 8.96804 157.086C8.85331 157.418 7.1409 154.91 7.67278 157.278Z" fill="black"/>
<path d="M220.717 62.906C220.567 62.6857 220.416 62.461 220.272 62.2316C220.406 62.4654 220.554 62.6908 220.717 62.906Z" fill="black"/>
<path d="M8.96672 157.085L8.97147 157.084L8.92328 156.785C8.94127 156.909 8.95145 156.979 8.96672 157.085Z" fill="black"/>
<path d="M31.9087 36.4377C32.1555 36.529 32.4205 36.564 32.6833 36.5396C32.5655 36.4483 32.3632 36.398 31.9087 36.4377Z" fill="black"/>
<path d="M59.5408 17.7527L58.7173 17.9829C59.0034 17.9519 59.2818 17.874 59.5408 17.7527Z" fill="black"/>
<path d="M22.3765 50.756C22.033 51.0537 21.7893 51.0683 21.5897 51.6623C21.6739 51.6572 21.7567 51.6392 21.8351 51.609C21.8063 51.3253 21.904 51.0388 22.3765 50.756Z" fill="black"/>
<path d="M13.094 65.676C13.2264 65.6278 13.3554 65.5711 13.4799 65.5067C13.54 65.3417 13.6103 65.1489 13.6721 64.9792L13.094 65.676Z" fill="black"/>
<path d="M204.604 191.466C205.021 191.413 205.445 191.435 205.854 191.532C205.105 191.225 206.565 189.294 204.604 191.466Z" fill="black"/>
<path d="M221.165 63.2309C220.978 63.183 220.817 63.0656 220.718 62.9033C220.831 63.0635 220.94 63.2173 221.046 63.3673C221.133 63.3751 221.195 63.3527 221.165 63.2309Z" fill="black"/>
<path d="M30.8845 57.4803L29.1561 59.397C29.7871 58.8064 30.3655 58.1653 30.8845 57.4803Z" fill="black"/>
<path d="M94.8834 225.511L95.5158 225.511C95.3108 225.453 95.0884 225.453 94.8834 225.511Z" fill="black"/>
<path d="M25.0833 65.7664C24.5039 65.9032 23.9663 66.17 23.5138 66.5451C23.5318 66.692 23.5807 66.8339 23.658 66.9615L25.0833 65.7664Z" fill="black"/>
<path d="M205.864 191.533C205.862 191.533 205.86 191.533 205.859 191.533C205.857 191.532 205.855 191.532 205.854 191.531C205.855 191.532 205.857 191.532 205.859 191.533C205.86 191.533 205.862 191.533 205.864 191.533Z" fill="black"/>
<path d="M215.057 176.984C213.559 178.951 215.379 178.555 215.664 179.359C215.518 179.628 215.357 179.889 215.181 180.141C215.066 180.298 214.929 180.439 214.774 180.56C214.694 180.634 214.595 180.685 214.487 180.708C214.378 180.732 214.266 180.725 214.161 180.691C213.803 180.573 213.494 180.196 212.911 180.41C212.526 181.189 212.242 182.011 212.066 182.857C211.977 183.234 211.865 183.606 211.733 183.972C211.603 184.301 211.415 184.605 211.177 184.872C210.935 184.825 210.695 184.982 210.684 184.584C210.46 185.634 209.517 186.76 208.576 187.931C207.584 189.066 206.59 190.241 206.334 191.539C206.181 191.581 206.019 191.581 205.866 191.538C206.524 191.678 207.118 192.018 207.562 192.506C206.828 193.38 206.758 194.633 205.77 194.338C206.286 193.855 206.048 193.57 206.064 193.151L205.518 194.263C203.764 194.144 206.329 192.804 205.593 192.17C204.93 193.12 204.326 194.26 203.693 195.297C203.401 195.796 203.071 196.274 202.706 196.727C202.385 197.111 202.002 197.443 201.573 197.712C200.957 197.372 201.646 196.593 202.164 195.999C202.657 195.379 202.981 194.955 201.715 195.382L204.03 193.798C201.014 193.881 205.317 192.74 202.316 192.604C201.738 193.046 201.2 193.536 200.711 194.069C200.32 194.513 199.989 194.881 199.684 195.274C198.931 196.272 198.018 197.148 196.98 197.87C196.888 198.927 197.966 198.504 197.867 199.564C196.36 201.702 194.992 201.723 193.812 201.637C192.619 201.55 191.587 201.335 190.707 203.165C190.623 203.813 190.789 204.542 190.632 205.223C190.486 205.914 189.972 206.514 188.574 206.907L188.33 205.117C186.853 206.03 186.8 206.773 186.654 207.443C186.507 208.107 186.283 208.733 184.397 209.245C184.486 208.808 184.988 208.336 185.398 207.987C185.797 207.624 186.101 207.38 185.828 207.453C185.365 207.47 184.915 207.599 184.518 207.829C184.417 207.91 184.334 208.01 184.276 208.123C184.217 208.236 184.184 208.36 184.178 208.487C184.111 208.993 184.193 209.598 183.419 210.087L182.271 209.084C179.291 211.223 176.245 214.075 172.665 216.193C172.658 215.692 173.058 214.961 171.986 214.992C169.722 216.454 167.24 217.574 164.626 218.314C163.965 218.512 163.302 218.698 162.642 218.875C161.984 219.055 161.303 219.166 160.642 219.299C159.312 219.546 158.019 219.783 156.768 219.954L155.387 221.761C154.956 221.877 154.411 221.434 154.787 221.05C152.78 221.141 154.956 221.877 154.223 222.65C153.183 223.068 152.591 222.355 153.141 221.768C152.287 222.364 151.389 222.899 150.453 223.368C149.937 223.637 149.394 223.904 148.834 224.161C148.272 224.43 147.694 224.667 147.103 224.872C144.732 225.67 142.247 226.228 140.315 225.807L140.943 225.302C139.502 225.286 138.835 226.082 138.157 226.791C137.853 227.152 137.477 227.451 137.049 227.667C136.515 227.865 135.923 227.865 135.389 227.667L135.864 227.376C135.083 227.406 134.298 227.462 133.509 227.543C133.116 227.587 132.721 227.63 132.326 227.674L131.734 227.748L131.139 227.799C129.551 227.946 127.967 228.094 126.428 228.237C123.341 228.36 120.412 228.348 118.074 227.418C117.607 228.265 116.066 228.093 114.597 227.98C113.13 227.811 111.726 227.742 111.429 228.852C110.352 228.465 109.311 227.989 108.319 227.427C107.546 227.037 106.591 226.671 104.165 226.146C103.51 226.063 102.972 226.311 102.38 226.6C101.752 226.964 101.037 227.167 100.304 227.189L100.459 226.144C99.6514 226.414 98.8378 226.675 98.0178 226.925C97.7024 226.476 97.399 225.995 97.0955 225.534L95.5158 225.522C96.1092 225.684 96.7066 226.192 96.5508 226.462C95.2436 226.401 93.9633 226.084 92.7878 225.529C92.3154 225.328 91.8697 225.072 91.4614 224.767C91.142 224.527 90.9624 224.325 90.9804 224.206L88.0773 223.963C87.5929 223.917 87.1031 223.883 86.6211 223.822L85.1802 223.612C85.4182 223.308 86.3764 223.466 87.1832 223.42C85.5641 223.476 85.5064 223.194 85.4796 222.946C85.4531 222.689 85.4637 222.441 83.9804 222.46C84.2777 222.743 83.6138 222.889 83.494 223.033C83.1219 222.778 82.7207 222.564 82.2981 222.396C82.0531 222.293 81.789 222.192 81.5103 222.094C81.2371 221.982 80.9493 221.872 80.6526 221.765C79.4463 221.338 78.2165 220.976 76.9691 220.678L77.611 220.323C77.1147 220.14 76.5961 219.989 76.0931 219.786C75.5863 219.592 75.0707 219.401 74.547 219.213C73.5002 218.835 72.4231 218.464 71.3268 218.088C70.2515 217.67 69.1663 217.229 68.0723 216.778C67.5262 216.549 66.9784 216.319 66.4282 216.089C65.8793 215.856 65.3566 215.571 64.821 215.307C66.2452 216.258 65.5093 216.773 64.2212 216.177L64.0627 215.334C63.0434 215.273 65.2405 216.234 63.3231 215.808C61.7675 214.902 62.6408 214.611 63.6676 214.885L61.611 214.09C61.5998 213.867 62.1082 214.013 62.3567 213.86C62.0251 213.805 61.7111 213.676 61.4396 213.484C61.0903 213.267 60.7176 212.961 60.3215 212.67C59.532 212.083 58.6821 211.508 57.9397 211.461L57.936 211.25C57.4214 210.95 56.9286 210.69 56.4829 210.417L55.2236 209.64C54.4233 209.156 53.7047 208.72 53.0095 208.3C52.6606 208.09 52.3174 207.884 51.9729 207.677C51.6416 207.452 51.309 207.227 50.9679 206.996C50.2873 206.531 49.5765 206.039 48.7843 205.476C48.4249 205.788 47.2416 204.835 46.1144 204.36C45.0543 203.395 43.9546 202.364 42.8151 201.267C41.7086 200.138 40.5369 198.978 39.2508 197.835C37.371 196.294 38.4813 197.596 37.5211 197.006C37.6799 196.61 35.2357 194.2 36.6993 195.273C35.2011 193.854 34.3308 192.87 33.3223 191.824C32.8186 191.3 32.286 190.756 31.6455 190.113C31.0196 189.458 30.3275 188.67 29.4406 187.71C29.6657 188.247 30.0115 188.786 29.6962 188.611C29.0465 187.914 28.4719 186.836 28.7122 186.828L28.9019 186.998C27.8181 185.879 26.8589 184.653 26.0399 183.342C25.5973 182.67 25.1543 181.988 24.7392 181.291L23.5872 179.152C23.2084 178.448 22.834 177.75 22.4681 177.07C22.3761 176.901 22.2844 176.733 22.1935 176.566C22.1086 176.395 22.0244 176.226 21.9409 176.058C21.7723 175.723 21.6025 175.396 21.4321 175.077C20.8327 173.908 20.1124 172.8 19.2819 171.771L19.44 171.979L16.8315 167.942C15.9185 165.945 17.7398 168.969 17.2738 167.394C16.6275 166.414 16.0522 165.391 15.5522 164.334C15.3207 163.852 15.1089 163.385 14.9138 162.925C14.818 162.695 14.7237 162.467 14.6303 162.243C14.5512 162.012 14.4725 161.784 14.3948 161.558C14.0872 160.651 13.797 159.77 13.4627 158.88C13.1287 157.99 12.7241 157.101 12.2805 156.139C12.3765 155.027 12.2713 153.907 11.9689 152.83C11.8939 152.514 11.8093 152.191 11.7153 151.859C11.6332 151.525 11.549 151.183 11.4631 150.835C11.2842 150.14 11.0819 149.425 10.8715 148.703C10.6631 147.981 10.4523 147.25 10.2439 146.527C10.0762 145.794 9.91736 145.068 9.78498 144.363C9.65294 143.658 9.54739 142.974 9.48832 142.326C9.41501 141.718 9.42111 141.104 9.50631 140.497L9.08372 140.834C8.47852 139.804 9.15907 139.436 9.16111 138.601C8.81014 138.779 8.90757 139.883 8.55694 139.236C8.32205 138.067 8.09497 136.885 7.91779 135.69C7.78745 134.487 7.68086 133.276 7.59736 132.056C7.55697 131.447 7.51217 130.837 7.48909 130.225C7.4935 129.611 7.49826 128.995 7.50267 128.378C7.52134 127.146 7.55325 125.913 7.60552 124.682C7.71956 123.447 7.84481 122.215 7.98024 120.987L8.18424 119.15L8.4887 117.324C8.69134 116.114 8.89296 114.908 9.09458 113.704C9.34338 112.509 9.60237 111.324 9.8308 110.147C9.99033 109.518 9.9211 108.856 9.6353 108.271C9.3977 107.873 9.11019 107.505 8.77993 107.175C8.19611 106.499 7.7922 105.693 8.97341 103.597L10.0351 105.007C9.99169 104.112 10.0032 103.216 10.0701 102.322C10.1624 101.433 10.2904 100.543 10.4435 99.6563C10.605 98.7707 10.7564 97.8807 10.9849 97.0067C11.2214 96.134 11.4713 95.2644 11.7224 94.3975L12.0978 93.0988C12.2265 92.6674 12.329 92.2302 12.4824 91.807C12.7672 90.9543 13.0401 90.1024 13.2872 89.248C13.4101 88.8204 13.5255 88.392 13.6338 87.9623C13.7458 87.5343 13.8289 87.0981 13.9521 86.6755C14.1809 85.8235 14.3615 84.9604 14.4939 84.0897C14.6673 84.5843 15.0804 84.7302 14.8333 85.3599C15.5994 84.8368 16.0943 83.5911 16.2932 82.4231C16.541 81.2738 16.4979 80.1968 16.0861 80.0281C16.6126 79.0676 16.935 80.079 17.6217 79.6313C18.2191 79.0794 18.249 78.1117 18.3291 77.2428C18.4292 76.3844 18.5399 75.6115 19.2174 75.4794C19.4407 75.4319 19.3633 75.9896 19.3226 76.2618C19.2574 75.1964 21.4175 72.3428 19.8463 72.6248C20.6409 71.6415 21.2628 70.5394 21.6877 69.3626C21.9012 68.8287 22.1456 68.3066 22.4199 67.7992C22.708 67.3253 23.078 66.9024 23.5139 66.5484C23.2291 65.6207 23.9765 64.7437 24.5929 63.9399C24.747 63.7386 24.893 63.5411 25.0131 63.3472C25.1333 63.1735 25.2303 62.9858 25.3016 62.7882C25.3671 62.5958 25.3705 62.3887 25.3111 62.1942C25.2514 61.9997 25.1319 61.8276 24.968 61.7003C26.7371 62.9644 29.0245 58.842 29.2451 56.9694C29.46 57.7844 30.6914 56.2159 31.0587 57.2582C31.5712 56.6021 31.9778 55.8747 32.2643 55.1008C32.467 54.4776 32.3804 53.9766 31.8122 53.7628C32.7507 53.5496 33.583 53.0276 34.1651 52.2866C34.4251 51.954 34.6505 51.5979 34.8389 51.2229C35.0303 50.8515 35.2252 50.4924 35.4013 50.1319C36.1182 48.7063 36.795 47.4399 38.782 47.8741C41.618 43.3291 44.9929 39.1171 48.8383 35.3233C49.5331 36.2799 48.4792 37.2129 47.4714 38.1243C46.4636 39.0357 45.5027 39.9216 46.4416 40.7511C47.1927 39.8096 47.8329 38.9233 48.4059 38.0456C48.6927 37.604 48.9703 37.1763 49.2432 36.7557C49.381 36.5443 49.5175 36.3345 49.6533 36.1264C49.7995 35.9289 49.9455 35.732 50.0911 35.5355C50.6804 34.7399 51.3348 33.9914 52.0483 33.2968C52.4308 32.9309 52.8357 32.5871 53.2604 32.2672C53.7393 31.9384 54.2403 31.6409 54.7603 31.3769C55.9975 30.9392 54.7898 32.6031 54.6931 33.155C56.3716 31.5239 58.2741 30.1217 60.347 28.9875C61.3303 28.4099 62.2749 27.8062 63.1934 27.1854C64.1346 26.5881 65.0029 25.8901 65.7812 25.1045C65.8844 25.3055 65.5986 25.7433 65.307 26.113C66.0154 25.6349 67.2211 25.4713 66.5897 24.5611L66.0069 25.2208C65.0026 24.8581 65.3226 23.7311 65.8874 22.572C66.4563 21.4276 67.3032 20.3188 67.1698 19.9025C67.3466 23.3463 71.4877 18.6692 71.2246 23.2653C71.6306 22.8332 72.0287 22.0531 71.58 21.447C72.4418 21.2811 72.8793 21.5839 72.4771 22.6691C75.0157 20.9178 73.5192 20.2809 76.1066 19.1867C76.3164 19.6822 75.8826 20.096 75.8812 20.7844C76.719 19.2467 77.6751 17.7936 80.0776 17.3633C80.0637 17.7144 80.4771 18.008 79.8139 18.2513C80.2694 18.0558 80.71 17.8296 81.1322 17.5742C81.5467 17.3246 81.9387 17.0498 82.3328 16.7987C83.1148 16.2796 83.8517 15.7095 84.6198 15.1685C85.0041 14.898 85.3958 14.6347 85.8038 14.3882C86.2107 14.1309 86.6418 13.9112 87.0916 13.7317C88.0735 13.3402 89.1176 13.1131 90.1787 13.0601C89.5361 15.6431 91.8721 13.3839 92.6181 15.2523C93.3364 14.8652 94.0675 14.5092 94.7983 14.1346L93.6208 13.4079C94.6574 13.1905 95.5471 12.6244 96.4296 12.1403C96.8498 11.8954 97.2948 11.6927 97.7578 11.5351C98.2112 11.4026 98.6902 11.3707 99.1582 11.4419C98.6905 11.8043 98.2248 12.1549 97.7666 12.5231L101.613 11.4524L99.2455 11.1101C101.197 9.72902 98.5402 8.68712 101.495 8.73229C101.221 8.88137 101.76 8.79393 102.528 8.78816C102.951 8.7793 103.374 8.82285 103.785 8.91766C104.206 9.00048 104.602 9.17318 104.944 9.423C104.944 9.423 104.937 9.42391 104.937 9.42914C105.906 8.67588 106.936 7.888 108.587 8.16955C109.064 8.73708 108.487 10.3568 108.799 10.7355C109.226 9.85679 110.471 9.66467 111.747 9.43087C113.026 9.20939 114.337 8.94508 114.964 8.06511C114.537 8.47596 114.572 9.50443 114.726 9.6925L115.543 8.36035C116.563 8.74865 116.712 8.94416 116.58 9.75102C119.57 9.89039 115.553 7.35486 119.149 8.28968C118.87 8.40278 119.006 8.59126 118.427 8.80663C119.304 8.89485 120.187 8.91019 121.067 8.85245C121.933 8.8216 122.789 8.73304 123.639 8.64801C125.299 8.40118 126.992 8.44643 128.636 8.78148C129.467 10.6868 125.75 9.10305 126.76 10.7316C127.344 10.7143 127.936 10.6729 128.534 10.6154C129.133 10.5587 129.738 10.4763 130.344 10.4279L134.026 10.0384C136.481 9.87186 138.952 9.79932 141.172 10.4133L140.364 10.0806C140.901 8.88663 141.704 9.34252 142.666 9.98278C143.161 10.3367 143.68 10.6585 144.22 10.9461C144.763 11.233 145.399 11.3118 146 11.1669C145.4 11.2325 144.964 12.3633 145.175 12.123C145.93 12.366 146.707 12.5419 147.496 12.6485C148.346 12.7883 149.204 12.8855 150.064 12.9396L151.482 13.0256C151.972 13.05 152.47 13.107 152.992 13.1488C154.032 13.2432 155.153 13.3412 156.358 13.4989C156.107 13.6276 155.85 13.7741 155.598 13.9121C156.571 14.4764 157.604 14.9372 158.681 15.2863C159.257 15.4987 159.85 15.679 160.393 15.9071C160.939 16.1294 161.452 16.352 161.894 16.5809C162.667 16.2341 163.708 16.7127 163.38 15.6904C165.633 18.2947 168.47 18.9575 171.29 19.7102C174.093 20.4457 176.857 21.2728 178.596 23.6521C178.019 23.3492 176.993 23.3225 177.448 23.565L179.613 24.4406C180.325 24.7519 181.03 25.0779 181.741 25.3979C181.899 24.4838 181.504 24.6525 181.028 23.576C181.815 23.4363 183.172 23.789 184.171 24.3949C183.106 24.0833 182.92 24.3809 183.062 24.8543C183.201 25.3328 183.68 25.9689 183.922 26.4099C183.942 26.1127 184.366 26.0414 184.451 25.7814C185.638 28.3301 185.769 24.6102 187.991 27.2624L187.586 27.5163C188.754 28.0262 190.027 28.2627 191.06 29.1381C190.945 30.1888 189.705 28.7124 189.166 29.2779C189.95 29.7957 190.998 29.9602 191.92 30.2663C192.841 30.5717 193.669 30.9755 194.064 31.8349C193.264 31.5399 192.342 30.8474 191.544 30.5636C192.353 32.5072 192.695 32.4094 193.691 33.3545L193.597 33.2567C193.976 33.6239 194.337 34.0106 194.696 34.3974L195.781 35.5463L195.333 34.8441C196.047 34.7813 196.766 34.9018 197.416 35.1937C197.995 35.47 198.524 35.8342 198.983 36.272C199.474 36.6994 199.968 37.1596 200.55 37.5819C200.851 37.8022 201.168 38.0024 201.497 38.1813C201.853 38.3863 202.224 38.5639 202.608 38.7125C201.039 38.0876 200.784 38.1756 200.865 38.4149C200.943 38.6586 201.303 39.1195 200.896 39.3585C201.308 40.0801 202.01 41.0868 201.574 41.0268C202.38 41.2742 202.736 41.7895 203.18 42.319C203.685 43.0172 204.404 43.5463 205.235 43.8321C205.102 44.0752 206.348 44.9594 205.609 45.1613C207.142 46.365 205.631 44.5446 205.995 44.4363C206.715 44.843 207.344 45.382 207.847 46.0228C208.407 46.6769 208.941 47.4196 209.515 48.1792C210.071 48.9945 210.674 49.7782 211.323 50.5267C211.659 50.9116 212.033 51.2772 212.411 51.6478C212.797 52.0276 213.206 52.3844 213.637 52.7163C214.304 53.3704 214.866 53.8731 215.371 54.2988C215.863 54.7329 216.288 55.0971 216.712 55.4545C217.133 55.813 217.546 56.1693 217.994 56.6025C218.218 56.8194 218.451 57.0553 218.699 57.32C218.938 57.5902 219.185 57.8937 219.453 58.2351C219.646 58.8009 219.376 58.6855 219.052 58.4361C218.806 58.2372 218.573 58.025 218.352 57.8003C218.716 58.5701 219.143 59.3111 219.63 60.0158C220.085 60.6797 220.595 61.2964 221.13 62.0051C220.817 61.773 220.902 62.1477 221.032 62.6881C221.829 63.853 222.038 63.2081 222.826 64.8978C222.359 64.6486 221.924 64.3475 221.53 64.0003C221.788 64.3302 222.053 64.6557 222.32 64.9809C222.584 65.3081 222.832 65.6448 223.089 65.9795C223.598 66.6509 224.103 67.3362 224.585 68.0575C224.616 68.5507 223.754 67.3121 223.3 66.8671C223.835 67.6733 224.558 68.7089 225.125 69.6372C225.712 70.556 226.235 71.3255 226.51 71.5299L226.038 70.3812C226.374 71.0031 225.963 70.8137 225.665 70.3812C225.278 69.8996 224.979 69.3592 224.779 68.7825C224.68 68.5653 224.653 68.3246 224.701 68.0921C224.931 68.4326 225.149 68.7812 225.359 69.1348C225.41 68.4119 224.779 67.341 223.998 66.1845C223.598 65.6109 223.182 65.0043 222.735 64.4372C222.311 63.9056 221.92 63.3506 221.564 62.775C221.944 62.9552 222.32 63.1409 222.69 63.3313C222.096 62.6888 221.491 62.0571 220.876 61.4359C220.818 61.1586 220.819 60.8942 220.935 60.8188C221.052 60.7421 221.282 60.8558 221.636 61.3609C221.027 59.6499 220.564 60.1617 220.103 58.6506C220.069 58.4731 220.142 58.5182 220.252 58.6353L219.115 57.2847C219.441 57.484 219.441 56.7355 219.913 57.7097C219.633 57.0536 219.272 56.4324 218.838 55.8591C218.491 55.3958 218.118 54.9501 217.723 54.5238C217.408 54.1932 217.111 53.8466 216.834 53.4851C216.599 53.2116 216.447 52.881 216.395 52.5293L216.597 52.7099C215.174 51.0345 214.966 51.0572 214.794 51.2184C214.619 51.3851 214.491 51.675 213.15 50.6475C213.151 49.7412 213.162 48.8129 213.185 47.8615L212.328 47.98C212.065 47.6137 211.547 46.8856 211.889 46.8245C211.156 46.3324 211.12 46.4552 211.169 46.6202C211.211 46.7906 211.317 47.0217 210.8 46.813C210.354 45.7835 209.303 44.7068 208.438 43.7561C207.546 42.8274 206.836 42.0209 207.171 41.3869C206.154 41.2528 208.235 43.2252 206.302 41.8438C206.611 41.1208 206.114 40.6578 205.405 40.1728C204.686 39.6948 203.77 39.1884 203.312 38.2462C204.319 38.1162 205.36 39.759 204.449 37.8477C204.008 37.8565 203.581 37.6976 203.261 37.4054C202.896 37.0714 202.572 36.698 202.296 36.2924C201.686 35.436 201.131 34.4201 200.415 33.9382C200.205 34.1333 199.915 34.0917 199.549 33.9075C199.083 33.6519 198.647 33.3475 198.249 32.9998C197.269 32.1994 196.103 31.0823 194.84 30.3758C195.04 30.2778 194.103 29.3138 192.874 28.1288C192.242 27.5548 191.545 26.9208 190.881 26.3181C190.221 25.7073 189.602 25.1138 189.113 24.6485L189.307 24.5159C188.705 24.901 187.872 24.6617 186.963 24.2161C186.509 23.9935 186.036 23.7174 185.561 23.4441C185.076 23.1861 184.592 22.9286 184.128 22.725C184.649 22.0784 185.133 21.9992 186.262 22.2853L184.655 21.2702C184.034 21.3993 183.407 21.2807 182.283 20.7669L183.245 20.1371C182.69 19.8105 182.102 19.5378 181.492 19.323C180.873 19.0952 180.243 18.863 179.591 18.6228C178.311 18.1044 176.951 17.5748 175.69 16.48C175.366 16.8919 175.598 17.8219 175.485 18.5168C175.374 19.2137 174.922 19.682 173.267 19.2386C173.417 18.6892 173.75 17.7809 174.648 17.9872C174.353 17.9197 173.516 17.9131 173.091 17.4631C173.648 17.3682 174.195 17.2993 174.745 17.2345C174.191 16.7094 173.926 16.7974 173.674 16.9452C173.541 17.0641 173.369 17.1346 173.187 17.1447C173.006 17.1548 172.826 17.1039 172.679 17.0007C173.067 16.2937 172.154 16.1155 172.595 15.6145C172.904 15.6763 173.374 16.356 173.926 16.2706C172.791 15.5693 171.549 14.4363 171.332 13.641C171.233 14.1166 170.857 14.6214 169.92 14.3196C167.573 13.3678 169.543 13.0727 168.356 12.0828C167.554 12.363 166.303 11.1474 165.764 12.3104C165.076 12.0349 165.174 11.4387 165.036 11.0138C164.312 11.0365 162.87 10.4888 161.7 10.2161C160.525 9.95339 159.654 9.91082 160.117 10.8017L160.403 10.9961C160.334 11.0009 160.264 10.9782 160.181 10.98L160.191 10.9834L160.181 10.98C159.078 10.9201 157.99 10.7095 156.948 10.3546C155.889 10.0215 154.853 9.62146 153.848 9.15712L153.082 8.81281C152.825 8.7009 152.566 8.59988 152.308 8.49415C151.791 8.2856 151.273 8.08239 150.752 7.89689C149.738 7.5018 148.67 7.24682 147.582 7.13952L147.696 6.69474C146.384 6.67984 144.986 6.42652 143.654 6.30925C142.32 6.20722 141.066 6.18346 140.09 6.52638C139.358 6.38158 138.476 5.40501 138.884 4.88616C137.885 4.92299 137.315 5.06806 136.659 5.05659C136.281 5.04766 135.907 4.99114 135.544 4.8885C135.326 4.83138 135.086 4.74923 134.815 4.65705C134.544 4.56811 134.242 4.45814 133.901 4.32267C134.931 4.00639 134.787 3.80508 134.715 3.73169C134.643 3.66517 134.652 3.69551 135.986 3.9604C135.367 3.76282 134.87 3.56593 134.426 3.41489C134.025 3.2609 133.614 3.13439 133.195 3.03629C132.396 2.87219 131.544 2.90861 130.121 3.44101C131.167 2.26116 128.302 1.73124 127.049 2.01992L128.795 3.04462C127.414 3.14295 126.228 2.92642 125.013 2.77395C125.254 2.22573 125.497 1.66962 125.743 1.13361C123.114 0.0284283 120.655 0.758364 118.443 1.53572C117.414 1.9286 116.33 2.1694 115.227 2.24996C114.965 2.25617 114.703 2.24112 114.444 2.20495C114.18 2.17661 113.918 2.12581 113.663 2.05317C113.086 1.87836 112.548 1.60042 112.078 1.23386C110.768 2.52557 115.008 1.89644 113.84 3.37922C112.634 3.34383 111.358 2.75098 110.266 2.16941C109.177 1.59124 108.277 1.01235 107.893 1.04782C106.16 0.751684 105.445 1.4733 104.742 2.23604C104.403 2.64405 104.001 2.99932 103.55 3.2893C103.289 3.44042 103.004 3.54932 102.706 3.61167C102.532 3.6483 102.355 3.67185 102.177 3.68207C101.973 3.70322 101.768 3.71089 101.563 3.70495C102.108 4.24993 102.757 5.83266 100.364 6.8413C98.0018 7.01007 96.9547 4.7345 98.3752 3.98647C98.941 3.83889 99.255 3.98902 99.2692 4.20323C99.9987 3.8489 100.976 3.41655 99.9033 2.90239L99.701 3.5729C98.3956 3.13576 95.0756 3.75484 95.6424 2.61776C94.7939 3.10907 94.6588 3.40463 94.9079 3.58125C95.0987 3.68675 95.3112 3.75009 95.5308 3.76669C95.8071 3.80202 96.1414 3.82358 96.4961 3.85236C96.1146 3.80528 95.7297 3.79052 95.3454 3.80827C95.0013 3.81984 94.6578 3.84812 94.3166 3.89299C93.6904 3.98141 93.0699 4.10456 92.4583 4.26175C91.1328 4.62239 89.7778 4.87153 88.4079 5.00645C89.0015 5.2115 89.6522 5.81158 89.1604 5.937C86.7793 6.17025 86.3594 6.60031 86.1737 7.1027C85.9891 7.61418 86.0163 8.16989 84.5533 8.75307C82.5415 8.37959 84.4372 6.34244 81.6502 8.10398C79.5627 8.08507 80.6764 6.63157 81.267 5.89304C80.7161 6.3679 80.063 6.71965 79.3546 6.92317C78.7094 7.09133 78.0475 7.19173 77.3802 7.22265C76.0924 7.2977 74.8701 7.15314 74.0249 7.3535L75.3086 6.31162C74.64 6.82464 73.8827 7.21966 73.0715 7.47844L74.4112 8.34215C73.4652 8.46319 72.733 8.73582 72.5365 8.24032C72.2589 8.79611 72.6448 9.21988 72.9333 9.7221C73.2256 10.2289 73.4085 10.7884 72.8016 11.6864C71.4269 11.5758 69.763 13.7803 68.6402 12.4157C70.5037 11.9124 70.225 11.5683 69.8343 11.1563C69.4433 10.7446 68.9321 10.2693 70.3727 9.48586C69.762 9.97749 69.0197 10.2927 68.2312 10.3952C68.0214 10.2798 68.1976 10.0249 68.387 9.83452C67.3728 9.86598 66.8158 10.0363 66.5032 10.293C66.2306 10.5652 66.0792 10.9293 66.0816 11.3075C65.9872 12.0994 65.9689 13.056 64.2704 13.8817C64.2517 12.8193 62.6187 12.6782 62.1558 13.1407C63.5467 12.4621 63.5692 14.218 62.6883 15.4772C60.201 15.9834 60.6789 17.2267 59.5408 17.7565L60.9681 17.3588C61.0299 18.4169 59.9308 18.8863 58.6488 19.9475C58.1305 19.3885 59.6912 18.7799 59.0032 18.7903C58.9298 19.039 58.7988 19.2684 58.6196 19.4607C58.4404 19.6531 58.2177 19.8033 57.9689 19.9C57.433 20.107 56.8695 20.2405 56.2952 20.2964C55.0641 20.4753 53.6962 20.6659 52.922 21.8128C51.5541 21.9473 51.8042 20.4161 50.677 20.665C49.8294 22.0043 48.9961 22.1942 48.1184 22.3851C47.2511 22.5824 46.3058 22.7377 45.407 24.0963C46.8927 24.5361 46.8092 24.2169 45.8802 26.4788C46.448 25.8592 47.0111 25.2278 47.5899 24.6117L49.3804 22.8166L48.6129 24.4734C48.3611 25.0237 48.1051 25.5618 47.8794 26.1325C48.0308 26.0184 48.175 25.8959 48.3115 25.7656C48.4554 25.641 48.5946 25.5085 48.7293 25.3719C48.9988 25.0989 49.2514 24.8095 49.493 24.5351C49.9764 23.9867 50.416 23.4978 50.8497 23.3278C50.2116 25.0301 50.1617 24.679 51.3691 25.1207C49.9727 24.9391 49.2904 25.7315 48.6621 26.6222C48.0461 27.5367 47.4612 28.5183 46.1286 28.7384L44.2098 26.299C43.3497 26.5597 42.5704 27.0228 41.9428 27.6466C41.3505 28.2827 40.8183 28.9686 40.3522 29.6959C39.8482 30.4741 39.2966 31.2231 38.7009 31.9388C38.0448 32.7687 37.2604 33.4969 36.3755 34.0982L37.832 33.4587C38.2264 34.7494 35.8667 35.5192 35.1345 36.8898C34.5039 36.0891 33.5884 36.5059 32.6828 36.5412C33.2826 36.9903 30.262 38.9596 31.469 40.578C30.6639 40.7769 29.8988 41.0206 29.107 41.2508C27.6695 42.4853 27.5093 43.7408 27.3925 44.9696C27.3083 46.2292 27.2723 47.4678 26.0389 48.7325C25.8559 47.2644 24.2915 48.1181 25.1781 45.7825C24.4256 46.7129 23.613 47.4515 24.1445 47.8673C23.9137 47.9127 23.7352 48.147 23.5756 48.4755C23.3998 48.8615 23.2552 49.2603 23.1432 49.6679C22.8659 50.5433 22.5316 51.4248 21.835 51.6078C21.8917 52.253 22.6317 52.9489 21.7923 53.9675C21.5455 53.9766 21.3992 53.7014 21.3992 53.7014C21.5978 53.8361 21.4226 54.3381 21.4108 54.7712C21.4043 55.2088 21.5397 55.5597 22.2973 55.3731C21.1932 55.7461 20.2251 56.4205 19.5113 57.3146C18.7238 58.249 18.0541 59.2707 17.5168 60.3579C16.9914 61.4156 16.3957 62.4393 15.7335 63.4229C15.5712 63.6487 15.4018 63.8628 15.2277 64.0655C15.0672 64.2691 14.8937 64.4629 14.7077 64.6456C14.3537 64.9996 13.9382 65.2912 13.48 65.5074C13.2495 66.1085 13.0075 66.7405 12.7608 67.3844C12.6341 67.7035 12.5065 68.0256 12.3782 68.3484L12.1834 68.8304L12.0093 69.3208C11.5442 70.6246 11.0653 71.8839 10.6139 72.948C10.4258 72.7084 10.2011 72.7664 10.4703 72.4039C9.94349 73.0498 9.77888 73.5501 9.79178 73.9775C9.8488 74.3892 9.99306 74.785 10.2164 75.1404C10.6027 75.881 10.9567 76.6467 9.85423 78.1453C7.82207 79.3601 9.8359 76.0938 8.89908 76.9706C7.4358 76.6851 7.11809 77.7567 6.87642 79.0991C6.68668 80.4646 6.55667 82.0786 5.37614 82.9954L5.40194 82.3783C4.64841 83.1278 4.52349 84.3026 4.55133 85.6582C4.55506 87.0092 4.6104 88.5071 4.10872 89.951C4.10872 89.951 3.9115 89.7487 3.7092 89.8329C4.14707 91.0209 4.28522 92.5931 4.25365 94.2196C4.24686 94.6266 4.23057 95.0373 4.20782 95.447L4.17185 96.0607C4.16676 96.2661 4.16167 96.4707 4.15658 96.6747C4.13248 97.488 4.09276 98.2775 4.05882 99.0032C3.20651 97.9442 3.74723 97.6105 2.62881 97.9744C2.55719 99.2856 4.34598 97.8977 4.17966 100.479C3.77574 100.973 3.40067 101.489 3.05615 102.023C2.66411 102.575 2.21912 103.051 1.67332 103.105C1.74936 102.285 1.79856 101.462 1.92958 100.649C1.56911 100.869 1.30538 101.209 1.18929 101.606C1.09527 101.995 1.07117 102.396 1.11801 102.794C1.18624 103.618 1.39431 104.457 1.20694 105.09L0.630257 104.855C0.583416 105.621 0.620071 106.389 0.739889 107.148C0.862423 107.7 1.01516 108.245 1.19778 108.781C1.637 110.094 1.77854 111.482 1.61289 112.852L2.06299 112.46C2.19672 112.692 2.305 112.936 2.38612 113.19C2.4479 113.363 2.48217 113.544 2.48828 113.727C2.48183 113.994 2.40207 114.256 2.25679 114.484C2.01105 114.932 1.73136 115.386 2.22116 116.491L0.848162 117.129C1.11665 118.604 2.28938 122.221 2.59996 124.781C2.10677 124.072 1.69945 122.959 1.32574 121.783C1.14551 121.193 0.961195 120.589 0.786049 120.016C0.696101 119.727 0.608863 119.446 0.525364 119.178C0.445259 118.91 0.377038 118.653 0.299988 118.415C0.312207 119.454 0.400797 120.492 0.566099 121.519C0.736492 122.662 0.978842 123.711 1.31046 124.073C1.15976 123.498 0.804043 122.774 0.9724 122.193C1.55045 123.133 1.9805 124.15 2.24831 125.211C2.61557 126.461 2.8474 127.744 2.94007 129.041C1.76225 128.881 1.75139 130.763 2.06196 132.944C2.19604 134.036 2.35828 135.205 2.40614 136.246C2.46588 137.285 2.4781 138.188 2.18518 138.768C2.63798 139.977 3.00557 141.214 3.28594 142.47C3.62978 143.709 3.91287 144.97 4.19086 146.262C4.33512 146.906 4.45425 147.564 4.62091 148.219C4.79945 148.871 4.98037 149.532 5.164 150.202C5.35102 150.872 5.54857 151.55 5.76071 152.237C5.87001 152.58 5.97999 152.926 6.09098 153.274C6.20401 153.622 6.35369 153.963 6.49048 154.311C7.002 151.948 7.15169 155.926 8.29387 155.177C8.84883 156.441 9.00769 156.939 8.97103 157.081C9.17435 158.478 9.53075 159.83 9.84981 161.203C9.91362 162.244 9.06641 160.092 8.8519 160.305C9.99883 163.126 8.87769 161.661 9.41093 163.627C9.52566 163.358 9.77922 163.543 10.0704 164.001C10.4717 164.626 10.8053 165.288 11.066 165.978C10.8715 165.173 10.6488 164.383 10.4879 163.572C11.6994 165.368 11.8891 166.276 12.0775 167.204C12.2716 168.126 12.4478 169.076 13.7865 170.816L12.8032 169.779C13.4427 170.698 14.4379 172.479 15.5108 174.207C16.6618 175.894 17.8678 177.539 18.7836 178.251C18.8409 178.421 18.8542 178.602 18.8229 178.779C18.7764 178.871 18.6261 178.828 18.3427 178.432C18.6712 179.002 19.0813 179.547 19.477 180.113C19.8782 180.675 20.2964 181.241 20.7221 181.806C21.1528 182.368 21.5713 182.943 22.0255 183.491C22.4857 184.034 22.944 184.575 23.3967 185.109C23.8438 185.645 24.285 186.175 24.7158 186.691C25.1397 187.212 25.547 187.724 25.9656 188.2C26.7218 189.074 27.4217 189.992 28.0602 190.949L27.6233 190.781C28.3066 191.5 29.0347 191.85 29.6942 192.9C29.5781 192.912 29.2499 192.749 29.5455 193.097C29.9576 193.438 31.6113 194.783 32.3777 195.843L31.4371 195.18C31.8441 195.68 32.2195 196.16 32.6255 196.573C33.0294 196.988 33.4242 197.371 33.8114 197.731C34.5874 198.449 35.3317 199.076 36.0646 199.673C36.2492 199.821 36.4325 199.968 36.6151 200.114L37.1864 200.528C37.5659 200.805 37.946 201.082 38.3336 201.364C39.1038 201.933 39.8821 202.539 40.7008 203.244C40.5813 203.366 40.656 203.652 40.8862 204.008C41.1957 204.456 41.5399 204.881 41.9156 205.279C42.7741 206.227 43.8755 207.297 44.6124 208.009L44.4909 208.041C46.5692 209.785 48.7901 211.364 51.1321 212.764C51.6773 213.087 52.2197 213.409 52.7641 213.732C53.3126 214.048 53.8452 214.391 54.4239 214.682C55.5658 215.287 56.7348 215.911 57.957 216.606C58.3012 216.99 58.6797 217.344 59.0877 217.665C59.5415 218.022 60.0584 218.396 60.6212 218.786C61.184 219.175 61.7943 219.578 62.4365 219.991C62.7589 220.196 63.0875 220.405 63.4222 220.617C63.7623 220.819 64.115 221.012 64.4683 221.212C65.8891 222.007 67.3684 222.836 68.8018 223.638C70.2613 224.397 71.6628 225.165 72.8783 225.943C72.1774 225.376 73.3461 225.252 74.3117 225.55C75.4509 226.284 78.0023 226.237 77.4138 227.134L76.9827 226.93C77.2519 227.604 78.0468 228.162 79.0223 228.658C80.0152 229.109 81.1906 229.487 82.1967 229.887L83.0154 228.602C83.607 229.111 84.2519 229.558 84.9392 229.939C85.6785 230.313 86.4422 230.639 87.2263 230.916C88.8444 231.499 90.515 231.936 92.2166 232.222C93.0492 232.376 93.8628 232.52 94.6343 232.673C95.0199 232.749 95.395 232.828 95.7568 232.911L96.2894 233.04C96.4645 233.079 96.6363 233.117 96.8046 233.155C98.1481 233.472 99.2339 233.915 99.8901 234.667C100.64 234.608 101.393 234.612 102.142 234.678C102.893 234.711 103.647 234.672 104.39 234.562L104.176 235.564C105.112 235.782 105.931 235.973 106.705 236.153C107.457 236.336 108.218 236.481 108.986 236.586C110.523 236.791 112.183 236.972 114.553 237.074C114.218 237.325 113.882 237.538 113.543 237.769C114.139 237.861 114.75 237.746 115.266 237.444C115.759 237.151 116.211 236.8 116.612 236.397C117.454 235.613 118.249 234.788 119.456 234.803L120.178 236.556C121.338 236.597 122.503 236.661 123.675 236.787L125.437 236.975C126.025 237.034 126.615 237.111 127.202 237.118C128.374 237.171 129.548 237.135 130.713 237.012C131.294 236.943 131.87 236.836 132.437 236.694C133.014 236.53 133.574 236.316 134.111 236.055C134.107 236.288 134.017 236.513 133.858 236.689C133.699 236.865 133.481 236.982 133.242 237.018C134.34 236.939 136.507 237.041 138.263 236.851C140.014 236.618 141.322 236.054 140.706 234.85C140.873 235.672 142.077 235.531 143.521 235.042C144.29 234.77 145.035 234.438 145.749 234.05C146.482 233.672 147.178 233.287 147.744 232.978L147.65 234.277C148.508 233.283 148.914 232.677 149.455 232.19C149.99 231.678 150.654 231.274 152.001 230.696C152.712 230.68 152.862 231.514 151.883 231.435C153.09 231.463 153.446 231.062 153.854 230.649C154.07 230.411 154.331 230.214 154.623 230.07C155.103 229.853 155.623 229.732 156.152 229.716L155.401 230.793C157.7 230.178 157.392 229.821 158.326 228.548C159.583 227.678 162.639 227.393 163.397 228.332C163.468 227.834 163.697 227.368 164.053 227C164.26 226.77 164.504 226.574 164.777 226.42C165.073 226.259 165.394 226.146 165.728 226.087C166.067 226.407 165.706 226.852 165.516 227.062C167.512 226.702 168.728 225.784 169.805 224.994C170.074 224.794 170.336 224.605 170.598 224.426C170.849 224.239 171.114 224.07 171.39 223.92C171.97 223.603 172.624 223.43 173.29 223.418C173.365 223.55 173.472 223.661 173.603 223.742C173.734 223.823 173.885 223.87 174.04 223.879C173.324 224.209 172.643 224.522 172.027 224.805C171.411 225.086 170.86 225.337 170.388 225.507C169.454 225.866 168.907 226.053 168.998 225.965C169.464 227.019 171.935 226.185 170.702 228.433C171.092 228.027 171.545 227.545 172.024 227.005C172.5 226.458 173.014 225.881 173.556 225.34C174.077 224.808 174.646 224.322 175.256 223.887C175.541 223.688 175.841 223.51 176.155 223.356C176.442 223.202 176.746 223.076 177.061 222.981C177.232 223.014 177.394 223.078 177.539 223.17L177.373 223.404C177.891 223.233 178.344 222.917 178.674 222.497C179.364 222.345 180.032 222.114 180.665 221.81C181.027 222.137 181.754 221.914 182.493 221.471C183.24 221.039 184.032 220.448 184.593 220.136C183.85 219.155 185.376 218.471 183.503 218.419C183.721 218.388 183.376 218.663 182.682 219.138C182.532 219.248 182.399 219.377 182.286 219.522C182.29 219.476 182.296 219.431 182.304 219.386C181.957 219.614 181.555 219.872 181.108 220.154C180.66 220.435 180.147 220.705 179.612 221.008C179.868 220.501 180.21 220.038 180.624 219.639C181.092 219.202 181.707 218.942 182.357 218.907C182.498 217.905 182.67 216.866 182.805 216.348C183.433 216.486 184.077 216.55 184.722 216.54C185.371 216.522 186.019 216.472 186.663 216.39C187.904 216.254 188.978 216.123 189.471 216.414C189.826 216.074 190.207 215.734 190.603 215.394C190.997 215.054 191.385 214.681 191.788 214.324C192.59 213.601 193.407 212.871 194.157 212.133C194.88 211.437 195.516 210.662 196.052 209.824C196.536 209.112 196.861 208.311 197.007 207.472C197.666 206.592 198.387 207.169 198.915 207.15C198.596 207.735 197.974 208.157 197.919 208.614C198.603 207.74 199.759 206.62 200.691 205.568C201.619 204.512 202.322 203.529 201.985 202.817C204.402 201.414 201.834 204.848 204.353 202.08L204.306 202.747C205.885 201.972 207.236 200.827 208.237 199.417C208.704 198.771 209.133 198.099 209.522 197.406C209.913 196.721 210.283 196.03 210.618 195.307C211.285 193.846 212.093 192.449 213.031 191.133C213.524 190.418 214.085 189.749 214.706 189.133C215.031 188.81 215.383 188.493 215.764 188.18C216.141 187.865 216.568 187.568 216.984 187.245C216.536 187.613 216.289 187.778 216.045 187.743C219.234 184.383 221.675 180.29 223.805 176.122L224.626 174.572C224.762 174.313 224.904 174.06 225.037 173.799L225.42 173.013C225.933 171.968 226.459 170.935 227.009 169.919L227.423 169.16L227.81 168.391C228.071 167.88 228.339 167.373 228.614 166.872C228.889 166.37 229.171 165.873 229.459 165.381C229.748 164.889 230.053 164.406 230.322 163.909C231.482 161.623 231.024 161.143 231.191 159.559C231.482 159.471 231.781 159.384 232.059 159.289C232.073 158.353 232.1 157.428 232.138 156.513C232.307 155.641 232.596 154.793 232.993 153.993C233.332 153.203 233.733 152.445 234.113 151.646C234.527 150.813 234.877 149.95 235.152 149.066C235.42 148.014 235.573 146.938 235.613 145.855L235.142 146.371C235.254 145.961 235.369 145.427 235.491 144.861C235.607 144.295 235.742 143.701 235.824 143.159C236.007 142.081 236.184 141.253 236.326 141.424C236.204 141.02 236.224 140.588 236.387 140.197L236.608 140.185C236.652 139.488 236.733 138.798 236.767 138.102L236.869 136.019C237.141 134.434 237.277 134.578 237.429 134.539C237.507 134.52 237.585 134.454 237.674 134.099C237.823 133.383 237.901 132.653 237.901 131.922C237.901 131.042 237.86 129.788 237.83 128.842C237.796 127.894 237.779 127.252 237.728 127.576C237.68 128.277 237.545 129.361 237.433 129.404L237.528 127.817C237.416 127.665 237.334 127.281 237.205 127.418C237.083 127.555 236.866 128.211 236.391 130.112C236.296 131.006 236.211 131.902 236.156 132.8C236.031 133.078 235.895 133.353 235.759 133.627C235.939 132.888 236.051 132.141 236.187 131.394C236.014 131.921 235.888 132.462 235.814 133.01C235.736 133.482 235.715 133.915 235.681 134.371C235.447 134.695 235.274 135.057 235.165 135.438C235.121 136.319 235.108 137.208 235.114 138.102C234.965 138.24 234.914 137.932 234.843 137.804C234.805 137.74 234.761 137.721 234.697 137.824C234.571 138.067 234.466 138.318 234.378 138.574C234.337 139.193 234.558 138.931 234.724 138.762C234.897 138.593 235.023 138.518 234.86 139.532C234.259 140.735 234.096 140.317 233.974 141.831C233.743 142.001 233.713 141.669 233.797 141.078C233.716 141.745 233.519 142.61 233.339 143.394C233.132 144.174 232.976 144.881 233.078 145.26C232.66 145.85 232.345 146.937 232.053 147.839C231.941 148.229 231.781 148.604 231.574 148.955C231.404 149.22 231.228 149.352 231.034 149.265C231.004 150.473 230.824 151.672 230.495 152.837C230.417 152.226 230.284 152.195 230.101 152.468C229.982 152.663 229.877 152.867 229.796 153.078C229.677 153.335 229.538 153.632 229.395 153.941C228.835 155.18 228.183 156.599 227.684 156.113C227.756 156.69 227.705 157.275 227.538 157.832C227.301 158.558 227.026 159.272 226.71 159.97C226.381 160.728 226.021 161.516 225.705 162.296C225.373 163.024 225.094 163.776 224.877 164.545C224.823 164.286 224.87 164.018 225.006 163.79C224.13 165.207 223.547 165.469 222.813 166.287C223.737 166.944 222.636 169.267 222.589 170.811C221.585 171.444 221.43 171.01 221.377 170.445C221.322 169.878 221.368 169.176 220.728 169.208C221.17 169.373 220.926 170.226 220.708 171.016C220.653 171.214 220.602 171.408 220.56 171.585C220.516 171.736 220.485 171.891 220.469 172.048C220.45 172.31 220.53 172.464 220.801 172.413C219.328 173.378 219.769 173.374 218.45 173.549C219.63 174.521 217.897 174.877 217.999 176.417C216.025 177.846 216.387 176.118 215.364 178.357C214.812 178.695 214.733 178.345 214.794 177.918C214.85 177.599 214.938 177.286 215.057 176.984ZM172.855 216.562L172.843 216.541C173.285 216.28 173.661 216.058 173.902 215.916C173.684 216.05 173.382 216.237 172.855 216.562ZM168.318 218.685C168.893 218.474 169.587 218.162 170.313 217.818C170.668 218.13 170.695 218.606 170.223 218.799C170.344 218.426 169.154 218.702 168.318 218.685ZM182.218 221.292C181.581 221.887 181.193 221.794 180.966 221.637C181.136 221.532 181.321 221.417 181.523 221.278C181.721 221.132 181.937 220.966 182.179 220.772C182.176 220.72 182.193 220.649 182.187 220.592C182.251 220.82 182.262 221.059 182.218 221.292Z" fill="black"/>
<path d="M182.682 219.136C182.756 219.042 182.84 218.957 182.932 218.881C182.74 218.876 182.548 218.884 182.357 218.904C182.338 219.067 182.316 219.231 182.304 219.386C182.431 219.301 182.563 219.214 182.682 219.136Z" fill="black"/>
<path d="M160.117 10.7976L160.021 10.735C160.093 10.8023 160.148 10.8849 160.181 10.9761C160.153 10.919 160.131 10.8592 160.117 10.7976Z" fill="black"/>
<path d="M100.496 225.9L100.459 226.14L100.931 225.984L100.496 225.9Z" fill="black"/>
<path d="M183.922 26.4061C183.924 26.5593 183.979 26.7072 184.08 26.8248C184.105 26.7595 184.026 26.5957 183.922 26.4061Z" fill="black"/>
<path d="M193.691 33.3506C194.08 33.763 194.44 34.2076 194.812 34.636C194.478 34.1768 194.103 33.7465 193.691 33.3506Z" fill="black"/>
<path d="M200.508 39.4875C200.645 39.4699 200.777 39.4247 200.896 39.3545C200.892 39.3494 200.889 39.3436 200.887 39.3378L200.508 39.4875Z" fill="black"/>
<path d="M65.3067 26.1095C65.2062 26.1712 65.1159 26.2474 65.0392 26.3355C64.4808 26.9795 64.9027 26.6147 65.3067 26.1095Z" fill="black"/>
<path d="M104.937 9.42548C104.534 9.75567 104.099 10.0481 103.639 10.2987C104.43 10.3129 105.032 10.2654 104.937 9.42548Z" fill="black"/>
<path d="M31.0747 57.2723C31.0709 57.2635 31.0652 57.2655 31.058 57.2546C31.002 57.3358 30.945 57.402 30.8846 57.48L31.0747 57.2723Z" fill="black"/>
<path d="M101.628 10.6078C102.316 10.7404 103.029 10.6293 103.639 10.2944C103.297 10.2745 102.954 10.2828 102.614 10.3192C102.269 10.3481 101.933 10.4464 101.628 10.6078Z" fill="black"/>
<path d="M225.176 70.3392L225.38 70.735C225.397 70.7191 225.424 70.7347 225.454 70.7588L225.176 70.3392Z" fill="black"/>
<path d="M225.454 70.7532L225.729 71.1711C225.658 71.019 225.566 70.8781 225.454 70.7532Z" fill="black"/>
<path d="M226.299 72.0424L225.729 71.1664C225.879 71.4824 226.069 71.777 226.299 72.0424Z" fill="black"/>
<path d="M218.873 59.9947L218.633 59.9788C218.668 59.9991 218.709 60.011 218.751 60.0137C218.793 60.0164 218.835 60.01 218.873 59.9947Z" fill="black"/>
<path d="M216.658 57.0444C216.902 57.4089 217.155 57.9001 217.435 58.4235C217.706 58.9733 218.042 59.491 218.438 59.9652L218.632 59.9811C218.054 59.6641 217.465 57.5203 216.658 57.0444Z" fill="black"/>
<path d="M209.188 43.2026L211.091 45.7412C210.943 45.1499 210.764 44.3475 211.748 45.4129C209.806 41.8106 211.803 46.437 209.188 43.2026Z" fill="black"/>
<path d="M202.657 35.7892C204.017 36.8611 202.978 35.4375 203.175 35.3642C202.171 34.8205 201.923 34.7027 202.657 35.7892Z" fill="black"/>
<path d="M138.225 4.30636L138.588 3.11278C137.201 3.08444 138.505 3.58429 138.225 4.30636Z" fill="black"/>
<path d="M123.994 9.63355L125.214 10.445L125.86 9.29718C125.237 9.38231 124.614 9.51428 123.994 9.63355Z" fill="black"/>
<path d="M115.756 0.396017L116.358 0.200012C115.587 0.372841 114.818 0.527978 114.054 0.722074C114.619 0.593709 115.187 0.505537 115.756 0.396017Z" fill="black"/>
<path d="M13.522 62.3698L15.0382 62.7211C15.2544 61.8176 13.878 60.8431 13.522 62.3698Z" fill="black"/>
<path d="M1.00009 112.356C0.372486 112.879 0.0405354 114.325 0.585658 115.235C0.658635 114.079 1.09106 112.949 1.00009 112.356Z" fill="black"/>
<path d="M85.1718 230.586L84.6125 230.565L84.0605 230.519C84.7163 230.696 85.3962 230.797 86.0632 230.933L85.1718 230.586Z" fill="black"/>
</svg>
