<svg width="95" height="95" viewBox="0 0 95 95" fill="none" xmlns="http://www.w3.org/2000/svg">
<path d="M91.9911 31.9649C92.0565 32.0896 92.0726 32 91.9087 31.6513C91.8487 31.5764 91.7868 31.5024 91.7231 31.4292L91.9911 31.9649Z" fill="#FBFBFB"/>
<path d="M91.1016 29.537C90.8628 29.1452 90.524 28.7259 90.5383 29.0381C90.8556 29.3871 90.8585 29.5031 91.1908 29.8871C91.3676 30.2309 91.4412 30.5098 91.3784 30.4647C91.4558 30.5804 91.6001 31.0183 91.7344 31.1888C91.659 30.9199 91.5687 30.6551 91.4638 30.3955C91.3354 30.1013 91.1852 29.8163 91.0143 29.5428C90.979 29.4034 91.0675 29.5158 91.1016 29.537Z" fill="#FBFBFB"/>
<path d="M63.6448 4.05566L63.8611 4.20326C63.8001 4.14048 63.7265 4.09027 63.6448 4.05566Z" fill="#FBFBFB"/>
<path d="M39.3245 1.79112C39.5072 1.74247 39.5724 1.6602 39.5704 1.59521C39.4054 1.67032 39.2716 1.73729 39.3245 1.79112Z" fill="#FBFBFB"/>
<path d="M34.97 1.93425C35.0653 1.93193 35.1428 1.92143 35.2276 1.91516C35.1167 1.87802 35.0127 1.86904 34.97 1.93425Z" fill="#FBFBFB"/>
<path d="M63.6447 4.05795L63.0866 3.66748C62.9814 3.83528 63.3577 3.91332 63.6447 4.05795Z" fill="#FBFBFB"/>
<path d="M88.2203 25.1943C88.2907 25.285 88.369 25.3698 88.4541 25.4479C88.3879 25.3632 88.3243 25.2811 88.2611 25.1949C88.2475 25.1963 88.2338 25.1961 88.2203 25.1943Z" fill="#FBFBFB"/>
<path d="M73.5428 8.29736L73.7103 8.40337C73.7961 8.38517 73.8797 8.35851 73.9598 8.32378L73.5428 8.29736Z" fill="#FBFBFB"/>
<path d="M80.1225 13.2179C79.9994 13.0779 79.7067 13.2991 79.5486 13.3671C79.6279 13.3475 79.7109 13.3454 79.7912 13.3609C79.8715 13.3764 79.9471 13.4092 80.0125 13.4568C80.0722 13.389 80.1104 13.3061 80.1225 13.2179Z" fill="#FBFBFB"/>
<path d="M87.9437 23.3081L88.0877 23.4852C88.049 23.4399 87.9896 23.3599 87.9437 23.3081Z" fill="#FBFBFB"/>
<path d="M68.3837 5.36144C68.4 5.30088 68.4013 5.23742 68.3876 5.17627C68.3642 5.23567 68.3629 5.30117 68.3837 5.36144Z" fill="#FBFBFB"/>
<path d="M92.217 59.4495C92.2294 59.4596 92.2418 59.4539 92.2538 59.4593C92.2489 59.4107 92.2393 59.3935 92.217 59.4495Z" fill="#FBFBFB"/>
<path d="M94.8599 50.7783L94.8511 50.9053C94.8614 50.9197 94.8716 50.9345 94.883 50.9353L94.8599 50.7783Z" fill="#FBFBFB"/>
<path d="M27.2234 3.838C27.2359 3.83762 27.2484 3.83641 27.2607 3.83435C27.4227 3.69133 27.3193 3.74858 27.2234 3.838Z" fill="#FBFBFB"/>
<path d="M2.94776 62.656C2.90965 62.2609 3.09015 62.5329 3.25033 62.7573C3.41153 62.9821 3.55313 63.1589 3.46564 62.5796C3.41983 62.7118 2.73512 61.7124 2.94776 62.656Z" fill="#FBFBFB"/>
<path d="M88.1294 25.0132C88.0696 24.9252 88.0092 24.8357 87.9518 24.7441C88.005 24.8374 88.0643 24.9273 88.1294 25.0132Z" fill="#FBFBFB"/>
<path d="M3.46567 62.5824L3.46767 62.5817L3.44788 62.4609C3.45524 62.5112 3.45939 62.5395 3.46567 62.5824Z" fill="#FBFBFB"/>
<path d="M12.6381 14.4555C12.7365 14.4912 12.8422 14.5048 12.947 14.4952C12.9 14.4597 12.8194 14.4401 12.6381 14.4555Z" fill="#FBFBFB"/>
<path d="M23.6856 7.00195L23.357 7.08988C23.4712 7.07802 23.5823 7.04828 23.6856 7.00195Z" fill="#FBFBFB"/>
<path d="M8.82604 20.166C8.68911 20.2845 8.59183 20.2903 8.51227 20.527C8.54585 20.525 8.57889 20.5178 8.61012 20.5057C8.59866 20.3927 8.63761 20.2785 8.82604 20.166Z" fill="#FBFBFB"/>
<path d="M5.11548 26.1174C5.16825 26.0982 5.21967 26.0757 5.26939 26.05C5.29335 25.9845 5.32135 25.9079 5.34604 25.8403L5.11548 26.1174Z" fill="#FBFBFB"/>
<path d="M81.6872 76.2936C81.854 76.2725 82.0235 76.2813 82.187 76.3198C81.8875 76.1974 82.4713 75.4279 81.6872 76.2936Z" fill="#FBFBFB"/>
<path d="M88.3083 25.1425C88.2337 25.1236 88.1696 25.077 88.1299 25.0127C88.1751 25.0762 88.2185 25.1371 88.2609 25.1966C88.2954 25.1998 88.3201 25.1909 88.3083 25.1425Z" fill="#FBFBFB"/>
<path d="M12.2287 22.8486L11.5376 23.6128C11.7899 23.3773 12.0211 23.1217 12.2287 22.8486Z" fill="#FBFBFB"/>
<path d="M37.8175 89.8746L38.0698 89.8749C37.988 89.8504 37.8994 89.8503 37.8175 89.8746Z" fill="#FBFBFB"/>
<path d="M9.90918 26.1543C9.67749 26.2091 9.46246 26.3159 9.28156 26.466C9.28875 26.5248 9.30838 26.5815 9.33922 26.6327L9.90918 26.1543Z" fill="#FBFBFB"/>
<path d="M82.1913 76.3204C82.1905 76.3205 82.1897 76.3205 82.189 76.3203C82.1882 76.3201 82.1875 76.3198 82.1869 76.3193C82.1875 76.3198 82.1882 76.3201 82.189 76.3203C82.1897 76.3205 82.1905 76.3205 82.1913 76.3204Z" fill="#FBFBFB"/>
<path d="M85.8665 70.5153C85.2676 71.3 85.9954 71.1422 86.1091 71.4627C86.0511 71.5703 85.9867 71.6745 85.916 71.7748C85.8701 71.8375 85.8155 71.8939 85.7536 71.9422C85.7216 71.9716 85.6818 71.992 85.6385 72.0012C85.5953 72.0104 85.5503 72.0079 85.5084 71.9942C85.3652 71.947 85.2419 71.7967 85.0085 71.8823C84.8545 72.1929 84.7411 72.5206 84.671 72.858C84.6349 73.0086 84.5904 73.1572 84.5376 73.3031C84.4855 73.4341 84.4103 73.5556 84.3152 73.662C84.2185 73.6431 84.1225 73.7059 84.118 73.5469C84.0286 73.966 83.6515 74.4151 83.2752 74.8823C82.8787 75.3347 82.4812 75.8034 82.379 76.3211C82.3179 76.3381 82.253 76.338 82.192 76.3208C82.4549 76.3769 82.6924 76.5122 82.8698 76.7071C82.5763 77.0558 82.5487 77.5555 82.1533 77.4377C82.3595 77.2453 82.2646 77.1314 82.2709 76.9642L82.0526 77.4079C81.3513 77.3603 82.3767 76.8258 82.0826 76.5732C81.8174 76.9521 81.5759 77.4067 81.3229 77.8205C81.206 78.0196 81.0742 78.2101 80.9284 78.3907C80.7998 78.5438 80.6469 78.6764 80.4754 78.7838C80.2288 78.6479 80.5046 78.3373 80.7115 78.1004C80.9085 77.8532 81.0383 77.6839 80.532 77.8542L81.4577 77.2224C80.2519 77.2553 81.9724 76.8005 80.7724 76.746C80.5411 76.9225 80.3263 77.118 80.1305 77.3305C79.9742 77.5077 79.8419 77.6544 79.7199 77.8111C79.4188 78.2092 79.0538 78.5587 78.6387 78.8468C78.602 79.2684 79.0329 79.0996 78.9935 79.5226C78.391 80.3751 77.844 80.3836 77.3723 80.3493C76.895 80.3144 76.4825 80.2287 76.1308 80.9586C76.0971 81.2173 76.1635 81.5079 76.1008 81.7795C76.0423 82.0552 75.837 82.2947 75.2779 82.4513L75.1801 81.7375C74.5899 82.1016 74.5687 82.3979 74.5101 82.6652C74.4515 82.9302 74.3618 83.1796 73.6076 83.3841C73.6434 83.2099 73.8441 83.0213 74.008 82.8822C74.1677 82.7375 74.2891 82.6402 74.1799 82.669C73.9949 82.6758 73.8147 82.7274 73.6561 82.8191C73.6156 82.8513 73.5826 82.8913 73.5593 82.9365C73.5359 82.9817 73.5226 83.0311 73.5204 83.0815C73.4936 83.2833 73.5261 83.5249 73.2169 83.72L72.7578 83.3197C71.5661 84.1732 70.3485 85.3105 68.9169 86.1553C68.9144 85.9558 69.074 85.6639 68.6456 85.6765C67.7404 86.2595 66.7481 86.7063 65.7027 87.0015C65.4385 87.0803 65.1735 87.1547 64.9096 87.2252C64.6463 87.2972 64.374 87.3412 64.1098 87.3946C63.578 87.4929 63.0609 87.5875 62.561 87.6554L62.0087 88.3763C61.8364 88.4229 61.6185 88.2461 61.7687 88.0926C60.9662 88.1292 61.8362 88.4229 61.5431 88.7309C61.1274 88.8978 60.891 88.6135 61.1105 88.3794C60.7691 88.6172 60.41 88.8305 60.036 89.0174C59.8298 89.1246 59.6127 89.2312 59.3885 89.3339C59.1637 89.441 58.9327 89.5356 58.6966 89.6172C57.7484 89.9356 56.755 90.1583 55.9822 89.9902L56.2334 89.789C55.6574 89.7825 55.3906 90.0998 55.1196 90.3828C54.9982 90.527 54.8475 90.646 54.6767 90.7324C54.463 90.8112 54.2265 90.8112 54.0128 90.7324L54.2028 90.6164C53.8906 90.6282 53.5767 90.6504 53.2612 90.6828C53.1039 90.7002 52.9462 90.7177 52.7881 90.7352L52.5512 90.7646L52.3133 90.7849C51.6787 90.8437 51.0451 90.9024 50.4299 90.9594C49.1957 91.0087 48.0246 91.0037 47.0898 90.6327C46.9029 90.9707 46.2868 90.9024 45.6996 90.8571C45.113 90.7898 44.5515 90.7623 44.433 91.205C44.0021 91.0507 43.586 90.8606 43.1894 90.6367C42.8802 90.4812 42.4983 90.335 41.5287 90.1255C41.2665 90.0923 41.0515 90.1912 40.8149 90.3067C40.5636 90.4518 40.2778 90.5327 39.9848 90.5417L40.0465 90.1246C39.7238 90.2325 39.3984 90.3364 39.0706 90.4363C38.9446 90.2574 38.8232 90.0655 38.7019 89.8814L38.0703 89.8765C38.3075 89.9412 38.5463 90.144 38.4841 90.2516C37.9615 90.2272 37.4495 90.1006 36.9795 89.8796C36.7906 89.7993 36.6124 89.6973 36.4491 89.5757C36.3214 89.4798 36.2496 89.3994 36.2569 89.3517L35.0961 89.2549C34.9024 89.2363 34.7066 89.223 34.5139 89.1985L33.9377 89.1149C34.0328 88.9936 34.416 89.0564 34.7386 89.0383C34.0913 89.0606 34.0681 88.9482 34.0575 88.8493C34.0468 88.7465 34.0511 88.6477 33.4581 88.6553C33.5769 88.7681 33.3115 88.8265 33.2635 88.884C33.1148 88.7819 32.9544 88.6966 32.7854 88.6298C32.6875 88.5887 32.5818 88.5484 32.4704 88.5092C32.3611 88.4645 32.2461 88.4207 32.1275 88.3781C31.6452 88.2078 31.1535 88.0631 30.6547 87.9446L30.9113 87.803C30.7129 87.7297 30.5056 87.6697 30.3044 87.5887C30.1018 87.5113 29.8957 87.435 29.6863 87.3599C29.2677 87.2092 28.837 87.0613 28.3988 86.9112C27.9687 86.7447 27.5349 86.5685 27.0975 86.3887C26.8792 86.2974 26.6601 86.2059 26.4401 86.1139C26.2206 86.0209 26.0117 85.9073 25.7975 85.802C26.3669 86.1813 26.0728 86.387 25.5576 86.1489L25.4943 85.8129C25.0868 85.7885 25.9653 86.1717 25.1986 86.0018C24.5767 85.6404 24.9258 85.5244 25.3363 85.6338L24.514 85.3167C24.5096 85.2277 24.7128 85.2859 24.8123 85.225C24.6796 85.2029 24.5541 85.1515 24.4455 85.075C24.3058 84.9883 24.1568 84.8661 23.9985 84.75C23.6828 84.5159 23.3429 84.2867 23.0461 84.2681L23.0447 84.1838C22.839 84.0642 22.6419 83.9603 22.4636 83.8516L21.9602 83.5417C21.6402 83.3484 21.3528 83.1748 21.0749 83.0069C20.9354 82.9233 20.7982 82.841 20.6605 82.7585C20.5279 82.6689 20.3949 82.579 20.2586 82.4868C19.9864 82.3016 19.7023 82.1052 19.3855 81.8804C19.2418 82.0053 18.7688 81.625 18.318 81.4354C17.8942 81.0506 17.4545 80.6393 16.9989 80.2015C16.5564 79.7512 16.0879 79.2887 15.5738 78.8327C14.8221 78.2181 15.2661 78.7372 14.8821 78.5021C14.9456 78.3441 13.9683 77.3826 14.5536 77.8108C13.9545 77.2446 13.6065 76.8522 13.2034 76.435C13.002 76.2261 12.7889 76.0091 12.5329 75.7525C12.2826 75.4912 12.006 75.1771 11.6513 74.7939C11.7412 75.0083 11.8795 75.2231 11.7535 75.1535C11.4937 74.8752 11.2639 74.4453 11.3601 74.4422L11.4359 74.5098C11.0026 74.0634 10.6191 73.5747 10.2916 73.0515C10.1147 72.7837 9.93755 72.5118 9.77148 72.2334L9.31097 71.3805C9.15948 71.0993 9.00974 70.8213 8.86351 70.5498C8.82666 70.4824 8.79004 70.4153 8.75364 70.3487C8.71974 70.2807 8.68607 70.2132 8.65264 70.1461C8.5852 70.0125 8.5174 69.8821 8.44924 69.7548C8.20964 69.2885 7.92162 68.8467 7.58958 68.4361L7.65274 68.5193L6.6098 66.9088C6.24473 66.112 6.973 67.3184 6.78666 66.6904C6.52822 66.2992 6.2982 65.8913 6.09824 65.4696C6.0057 65.2775 5.92104 65.091 5.84306 64.9077C5.80479 64.8157 5.76701 64.725 5.72971 64.6354C5.69801 64.5434 5.66659 64.4524 5.63547 64.3622C5.51257 64.0006 5.3965 63.6492 5.26284 63.2942C5.12931 62.9391 4.96755 62.5843 4.79017 62.2006C4.82858 61.7571 4.78643 61.3106 4.66561 60.881C4.63555 60.7549 4.60175 60.6258 4.56423 60.4937C4.53137 60.3605 4.49769 60.224 4.46337 60.0849C4.39187 59.8077 4.31095 59.5226 4.22678 59.2346C4.14347 58.9465 4.05918 58.655 3.97583 58.3667C3.90885 58.0744 3.84529 57.7848 3.79242 57.5036C3.73955 57.2223 3.69741 56.9495 3.67378 56.6909C3.64445 56.4485 3.64687 56.2034 3.68099 55.9616L3.51201 56.0958C3.27 55.685 3.54213 55.5383 3.54299 55.205C3.40256 55.2763 3.44151 55.7163 3.30134 55.4582C3.20745 54.9919 3.11658 54.5208 3.04577 54.044C2.99375 53.5643 2.95104 53.0812 2.91765 52.5946C2.9015 52.3515 2.88362 52.1082 2.87441 51.8639C2.87621 51.6189 2.87801 51.3734 2.87982 51.1274C2.88735 50.636 2.90006 50.1441 2.9209 49.6529C2.96658 49.1603 3.01656 48.6691 3.07084 48.1791L3.15239 47.4466L3.27414 46.7178C3.35504 46.2356 3.43576 45.7544 3.51632 45.2741C3.61585 44.7974 3.71939 44.3247 3.81066 43.8551C3.87443 43.6044 3.84685 43.3403 3.73252 43.1068C3.63747 42.9482 3.52264 42.8014 3.39058 42.6695C3.15714 42.4 2.99556 42.0787 3.46782 41.2426L3.89234 41.8049C3.87496 41.448 3.87966 41.0904 3.90643 40.7339C3.9433 40.3791 3.99448 40.0244 4.05571 39.6706C4.12019 39.3174 4.1808 38.9624 4.27212 38.6137C4.36667 38.2656 4.46662 37.9188 4.567 37.573L4.71717 37.055C4.76857 36.8829 4.80956 36.7085 4.87094 36.5396C4.98482 36.1995 5.09386 35.8597 5.19269 35.5189C5.24176 35.3483 5.28793 35.1774 5.33122 35.0061C5.37608 34.8353 5.4093 34.6614 5.45855 34.4927C5.54996 34.1529 5.62225 33.8086 5.67514 33.4614C5.74454 33.6586 5.90971 33.7168 5.81085 33.968C6.11711 33.7593 6.31509 33.2625 6.39461 32.7966C6.49361 32.3381 6.47639 31.9086 6.31173 31.8412C6.52222 31.4581 6.65116 31.8615 6.92579 31.6829C7.16466 31.4628 7.17651 31.0768 7.20855 30.7302C7.24861 30.3877 7.29283 30.0795 7.56367 30.0268C7.65301 30.0079 7.62215 30.2303 7.60576 30.3389C7.57976 29.9138 8.44338 28.7756 7.81528 28.8882C8.13286 28.4959 8.38155 28.0563 8.55148 27.5868C8.63685 27.3739 8.73457 27.1657 8.84417 26.9633C8.95938 26.7743 9.10731 26.6055 9.28157 26.4644C9.16768 26.0943 9.46656 25.7445 9.71297 25.4239C9.77462 25.3435 9.83304 25.2648 9.88105 25.1875C9.92916 25.1181 9.96791 25.0432 9.99638 24.9645C10.0227 24.8877 10.024 24.8051 10.0001 24.7275C9.97632 24.65 9.9285 24.5813 9.86304 24.5305C10.5703 25.0347 11.4849 23.3904 11.5732 22.6435C11.6591 22.9685 12.1514 22.3428 12.2982 22.7587C12.5032 22.4969 12.6658 22.2067 12.7804 21.8981C12.8614 21.6496 12.8267 21.4497 12.5995 21.3644C12.9748 21.2793 13.3076 21.0711 13.5404 20.7755C13.6443 20.6428 13.7345 20.5008 13.8097 20.3513C13.8863 20.2031 13.9642 20.0599 14.0346 19.9161C14.3212 19.3473 14.5919 18.8422 15.3863 19.0155C16.5202 17.2025 17.8696 15.5224 19.4071 14.0091C19.685 14.3907 19.2635 14.7628 18.8606 15.1263C18.4577 15.49 18.0734 15.8433 18.4488 16.1742C18.7491 15.7986 19.0051 15.4451 19.2343 15.095C19.3489 14.9188 19.4599 14.7482 19.5691 14.5804C19.6241 14.4962 19.6787 14.4125 19.733 14.3295C19.7915 14.2507 19.8499 14.1721 19.9081 14.0938C20.1436 13.7764 20.4052 13.4778 20.6905 13.2008C20.8435 13.0548 21.0054 12.9177 21.1752 12.7901C21.3666 12.6589 21.567 12.5403 21.7749 12.4349C22.2696 12.2604 21.7867 12.924 21.748 13.1442C22.4192 12.4936 23.1798 11.9343 24.0087 11.4819C24.4018 11.2514 24.7796 11.0106 25.1467 10.763C25.5231 10.5248 25.8702 10.2463 26.1814 9.93298C26.2227 10.0132 26.1084 10.1878 25.9918 10.3353C26.2751 10.1445 26.7572 10.0793 26.5046 9.71623L26.2716 9.97935C25.8701 9.8347 25.998 9.38512 26.2239 8.92278C26.4513 8.46632 26.79 8.02403 26.7367 7.85797C26.8074 9.23166 28.4631 7.36601 28.3579 9.19933C28.5201 9.02699 28.6794 8.71582 28.4999 8.47403C28.8445 8.40785 29.0195 8.52865 28.8586 8.96154C29.8736 8.26294 29.2752 8.0089 30.3099 7.57244C30.3937 7.77007 30.2203 7.93516 30.2197 8.20976C30.5547 7.59637 30.937 7.01675 31.8976 6.8451C31.8921 6.98516 32.0573 7.10226 31.7922 7.19933C31.9742 7.12136 32.1504 7.0311 32.3192 6.92925C32.485 6.82967 32.6417 6.72005 32.7993 6.61992C33.1119 6.41285 33.4065 6.18545 33.7137 5.96965C33.8673 5.86175 34.0239 5.75671 34.187 5.65837C34.3498 5.55577 34.5222 5.4681 34.702 5.39652C35.0946 5.24035 35.512 5.14975 35.9363 5.12861C35.6794 6.15896 36.6134 5.25778 36.9117 6.00305C37.1988 5.84864 37.4912 5.70663 37.7834 5.55724L37.3126 5.26734C37.727 5.18064 38.0827 4.95482 38.4356 4.76173C38.6036 4.66406 38.7816 4.58317 38.9667 4.52034C39.148 4.46748 39.3394 4.45476 39.5266 4.48316C39.3397 4.62773 39.1534 4.76755 38.9702 4.91442L40.508 4.48732L39.5615 4.35082C40.3417 3.79991 39.2795 3.3843 40.4607 3.40233C40.3513 3.46179 40.5668 3.42692 40.8742 3.42461C41.0433 3.42109 41.2121 3.43845 41.3766 3.47627C41.5448 3.50931 41.7031 3.57819 41.8399 3.67784C41.8399 3.67784 41.837 3.67821 41.8373 3.68029C42.2247 3.37983 42.6363 3.06555 43.2966 3.17786C43.4874 3.40424 43.2567 4.05031 43.3814 4.20137C43.5519 3.85087 44.0497 3.77424 44.56 3.68099C45.0713 3.59264 45.5955 3.4872 45.8462 3.1362C45.6755 3.30008 45.6895 3.71033 45.7513 3.78534L46.0778 3.25396C46.4856 3.40886 46.5451 3.48684 46.4926 3.80869C47.6881 3.86428 46.0816 2.85289 47.5195 3.22578C47.408 3.27088 47.4624 3.34607 47.231 3.43198C47.5816 3.46717 47.9347 3.47329 48.2863 3.45025C48.6327 3.43795 48.975 3.40263 49.3147 3.36871C49.9787 3.27026 50.6557 3.28829 51.3129 3.42195C51.6448 4.18194 50.1591 3.55022 50.5625 4.19982C50.7963 4.19293 51.0329 4.17643 51.2721 4.15349C51.5113 4.13085 51.7533 4.09801 51.9957 4.07868L53.4677 3.92333C54.4496 3.85689 55.4375 3.82795 56.3249 4.07287L56.0018 3.94016C56.2167 3.4639 56.5378 3.64574 56.9225 3.90114C57.1204 4.04229 57.3279 4.17066 57.5436 4.28538C57.7609 4.3998 58.015 4.43125 58.2553 4.37345C58.0154 4.39964 57.8414 4.85067 57.9254 4.75483C58.2274 4.85178 58.5381 4.92195 58.8534 4.96443C59.1934 5.02023 59.5363 5.059 59.8806 5.08059L60.4474 5.11486C60.6433 5.12459 60.8422 5.14732 61.0509 5.164C61.467 5.20167 61.915 5.24077 62.3969 5.30366C62.2963 5.35501 62.1939 5.41343 62.093 5.46849C62.482 5.69356 62.8953 5.87735 63.3256 6.01664C63.556 6.10134 63.7931 6.17328 64.0103 6.26424C64.2284 6.35292 64.4338 6.44173 64.6105 6.53303C64.9196 6.39469 65.3358 6.5856 65.2045 6.17784C66.1054 7.21666 67.2398 7.48103 68.3671 7.78128C69.4877 8.07465 70.5929 8.40456 71.2883 9.35364C71.0576 9.23281 70.6475 9.22217 70.8293 9.31886L71.695 9.66816C71.9796 9.79234 72.2615 9.92234 72.5458 10.05C72.6089 9.68537 72.451 9.75267 72.2608 9.32326C72.5753 9.26755 73.1178 9.40823 73.5175 9.64993C73.0915 9.52561 73.0171 9.64435 73.0738 9.83318C73.1295 10.024 73.3209 10.2778 73.4179 10.4537C73.4259 10.3351 73.5952 10.3067 73.6295 10.203C74.1039 11.2196 74.1562 9.73581 75.0448 10.7937L74.8828 10.895C75.35 11.0984 75.8586 11.1927 76.2717 11.5419C76.2257 11.961 75.7299 11.3721 75.5144 11.5977C75.8281 11.8042 76.247 11.8698 76.6157 11.992C76.9838 12.1137 77.3149 12.2748 77.4727 12.6176C77.1531 12.4999 76.7843 12.2237 76.4655 12.1105C76.7889 12.8858 76.9257 12.8468 77.3236 13.2238L77.2863 13.1848C77.4377 13.3312 77.5819 13.4855 77.7257 13.6397L78.1593 14.0981L77.9802 13.818C78.2658 13.7929 78.5532 13.841 78.8131 13.9574C79.0446 14.0676 79.2562 14.2129 79.4398 14.3876C79.6361 14.558 79.8335 14.7416 80.0661 14.91C80.1866 14.9979 80.3132 15.0778 80.4451 15.1492C80.5871 15.2309 80.7355 15.3017 80.889 15.3611C80.2619 15.1118 80.1598 15.1469 80.192 15.2422C80.2234 15.3395 80.3672 15.5234 80.2044 15.6186C80.3691 15.9065 80.6499 16.3081 80.4757 16.2842C80.7978 16.3828 80.9402 16.5884 81.118 16.7996C81.3197 17.0781 81.607 17.2892 81.9395 17.4032C81.8864 17.5001 82.3844 17.8529 82.0891 17.9333C82.7019 18.4135 82.0978 17.6874 82.2436 17.6442C82.5311 17.8063 82.7826 18.0213 82.9838 18.2769C83.2076 18.5379 83.4214 18.8341 83.6508 19.1372C83.8729 19.4624 84.1143 19.775 84.3738 20.0735C84.5081 20.227 84.6575 20.3728 84.8085 20.5208C84.9628 20.6722 85.1265 20.8146 85.2987 20.947C85.5655 21.2079 85.7903 21.4084 85.9921 21.5782C86.189 21.7513 86.3588 21.8966 86.5281 22.0391C86.6966 22.1821 86.8617 22.3243 87.0409 22.4971C87.1306 22.5835 87.2238 22.6776 87.3227 22.7833C87.4183 22.8911 87.5171 23.0121 87.6244 23.1483C87.7012 23.374 87.5934 23.328 87.4638 23.2285C87.3656 23.1492 87.2722 23.0645 87.1841 22.9749C87.3297 23.282 87.5005 23.5775 87.6948 23.8586C87.8772 24.1234 88.081 24.3694 88.2946 24.6521C88.1694 24.5596 88.2038 24.709 88.2555 24.9245C88.5741 25.3892 88.6577 25.1319 88.9728 25.806C88.7861 25.7066 88.6122 25.5864 88.4547 25.4479C88.558 25.5795 88.6639 25.7094 88.7707 25.8391C88.8763 25.9696 88.9753 26.1039 89.0782 26.2374C89.2819 26.5053 89.484 26.7786 89.6767 27.0663C89.6882 27.263 89.344 26.769 89.1625 26.5915C89.3769 26.913 89.665 27.3261 89.8923 27.6964C90.1272 28.0629 90.3364 28.3698 90.4458 28.4513L90.257 27.9932C90.3916 28.2412 90.2274 28.1657 90.1075 27.9932C89.9533 27.8011 89.8336 27.5855 89.7533 27.3555C89.7142 27.2688 89.7033 27.1728 89.722 27.0801C89.8151 27.216 89.9022 27.355 89.9852 27.4961C90.0063 27.2077 89.7541 26.7805 89.4417 26.3192C89.2817 26.0905 89.1152 25.8485 88.9367 25.6222C88.7672 25.4102 88.6108 25.1888 88.4683 24.9592C88.6204 25.0311 88.7704 25.1051 88.9185 25.1811C88.681 24.9248 88.4391 24.6728 88.1931 24.4251C88.1699 24.3144 88.1706 24.209 88.2167 24.1789C88.2636 24.1483 88.3555 24.1937 88.497 24.3951C88.2537 23.7126 88.0687 23.9168 87.8842 23.314C87.8705 23.2433 87.8997 23.2612 87.9436 23.3079L87.4891 22.7692C87.6196 22.8487 87.6196 22.5501 87.8084 22.9387C87.6961 22.677 87.5517 22.4292 87.3783 22.2006C87.2394 22.0157 87.0907 21.838 86.9327 21.6679C86.8066 21.536 86.6878 21.3977 86.577 21.2537C86.4833 21.1444 86.4225 21.0125 86.4015 20.8724L86.4823 20.9444C85.9132 20.2761 85.83 20.2852 85.7615 20.3495C85.6914 20.4159 85.6404 20.5316 85.1042 20.1217C85.1044 19.7603 85.109 19.3899 85.1182 19.0105L84.7755 19.0576C84.6702 18.9116 84.4632 18.6211 84.6001 18.5968C84.3068 18.4005 84.2925 18.4494 84.3119 18.5153C84.3291 18.5833 84.3711 18.6754 84.1647 18.5922C83.9864 18.1815 83.5661 17.7521 83.2202 17.3728C82.8633 17.0024 82.5794 16.6807 82.7136 16.4278C82.307 16.3743 83.139 17.161 82.3661 16.6101C82.4896 16.3216 82.2908 16.137 82.0074 15.9435C81.72 15.7528 81.3539 15.5509 81.1706 15.175C81.5734 15.1231 81.9894 15.7784 81.6252 15.016C81.4489 15.0196 81.2782 14.9562 81.1501 14.8396C81.0042 14.7064 80.8747 14.5574 80.7642 14.3957C80.5205 14.0541 80.2984 13.6488 80.0124 13.4566C79.9283 13.5344 79.8122 13.5178 79.6661 13.4444C79.4796 13.3424 79.3053 13.221 79.1464 13.0823C78.7546 12.763 78.2882 12.3174 77.7834 12.0356C77.8633 11.9965 77.4884 11.612 76.9972 11.1393C76.7446 10.9103 76.4656 10.6575 76.2003 10.4171C75.9364 10.1734 75.689 9.93669 75.4933 9.75107L75.5709 9.69819C75.3302 9.85182 74.9973 9.75635 74.6339 9.57862C74.4521 9.4898 74.263 9.37966 74.0732 9.27066C73.8794 9.16774 73.6857 9.06503 73.5003 8.98384C73.7086 8.72591 73.9023 8.69431 74.3534 8.80842L73.7108 8.40352C73.4625 8.45502 73.2121 8.40772 72.7625 8.20274L73.147 7.95156C72.9251 7.82128 72.6904 7.7125 72.4461 7.62683C72.1988 7.53595 71.9468 7.44333 71.686 7.34753C71.1745 7.14071 70.6306 6.92949 70.1266 6.49277C69.997 6.65708 70.0895 7.02803 70.0446 7.30521C70.0002 7.58322 69.8196 7.77 69.1575 7.59315C69.2177 7.37401 69.3509 7.01166 69.7098 7.09396C69.5918 7.06707 69.257 7.06443 69.0871 6.88492C69.3099 6.84708 69.5289 6.81958 69.7487 6.79373C69.5269 6.5843 69.4211 6.61937 69.3205 6.67836C69.2672 6.72577 69.1983 6.7539 69.1257 6.75793C69.0532 6.76197 68.9814 6.74166 68.9227 6.70047C69.0778 6.41845 68.7126 6.34738 68.889 6.14754C69.0123 6.17217 69.2002 6.4433 69.4213 6.40923C68.9675 6.12953 68.4709 5.67756 68.3839 5.36035C68.3444 5.55006 68.1943 5.75142 67.8195 5.631C66.8811 5.25136 67.6688 5.13364 67.1938 4.73879C66.8736 4.85057 66.3732 4.3657 66.1578 4.82961C65.8825 4.71969 65.9219 4.48185 65.8667 4.31239C65.577 4.32146 65.0005 4.10299 64.5327 3.9942C64.0629 3.88941 63.7147 3.87243 63.8998 4.22778L64.0141 4.30535C63.9867 4.30726 63.9585 4.29817 63.9255 4.2989L63.9295 4.30027L63.9255 4.2989C63.4845 4.27502 63.0493 4.19102 62.6329 4.04944C62.2092 3.91657 61.7951 3.75701 61.3933 3.57179L61.0869 3.43445C60.9844 3.3898 60.8806 3.34951 60.7775 3.30734C60.5708 3.22414 60.3636 3.14309 60.1555 3.0691C59.7499 2.9115 59.3232 2.8098 58.8879 2.767L58.9334 2.58957C58.409 2.58363 57.85 2.48259 57.3176 2.43582C56.7842 2.39511 56.2828 2.38563 55.8923 2.52241C55.5997 2.46466 55.2472 2.07512 55.4101 1.86816C55.0109 1.88285 54.7829 1.94072 54.5204 1.93614C54.3695 1.93258 54.2197 1.91004 54.0749 1.86909C53.9875 1.8463 53.8918 1.81354 53.7835 1.77678C53.675 1.7413 53.5543 1.69742 53.418 1.64339C53.8297 1.51723 53.772 1.43694 53.7433 1.40766C53.7144 1.38113 53.7183 1.39322 54.2516 1.49888C54.0039 1.42007 53.8053 1.34154 53.6277 1.28129C53.4676 1.21987 53.3031 1.1694 53.1356 1.13027C52.8162 1.06482 52.4754 1.07934 51.9064 1.29171C52.3247 0.821087 51.179 0.609709 50.6783 0.724858L51.3762 1.1336C50.8242 1.17282 50.3501 1.08645 49.8643 1.02563C49.9603 0.806953 50.0577 0.585129 50.156 0.37132C49.105 -0.0695196 48.1218 0.221642 47.2373 0.531717C46.826 0.688433 46.3924 0.784484 45.9513 0.816616C45.8467 0.819095 45.742 0.81309 45.6385 0.798666C45.5327 0.787358 45.4282 0.767097 45.3262 0.738119C45.0954 0.668391 44.8803 0.557525 44.6922 0.41131C44.1684 0.926555 45.8636 0.675603 45.3966 1.26706C44.9145 1.25295 44.4043 1.01647 43.968 0.784486C43.5326 0.553863 43.1726 0.322953 43.0189 0.337101C42.3262 0.218976 42.0403 0.50682 41.7589 0.811064C41.6236 0.973815 41.463 1.11552 41.2828 1.23119C41.1783 1.29148 41.0643 1.33491 40.9452 1.35979C40.8755 1.3744 40.8048 1.38379 40.7336 1.38787C40.6521 1.3963 40.5701 1.39936 40.4881 1.397C40.7061 1.61438 40.9656 2.2457 40.0088 2.64803C39.0643 2.71535 38.6455 1.80767 39.2135 1.50929C39.4397 1.45042 39.5653 1.5103 39.571 1.59574C39.8626 1.45441 40.2534 1.28195 39.8245 1.07686L39.7437 1.34432C39.2217 1.16995 37.8943 1.4169 38.1209 0.963329C37.7816 1.15931 37.7276 1.2772 37.8272 1.34765C37.9034 1.38974 37.9885 1.415 38.0762 1.42162C38.1868 1.43571 38.3204 1.44431 38.4622 1.45579C38.3097 1.43701 38.1558 1.43112 38.0022 1.43821C37.8645 1.44283 37.7272 1.45411 37.5908 1.472C37.3404 1.50727 37.0923 1.55638 36.8477 1.6191C36.3179 1.76294 35.776 1.86233 35.2282 1.91614C35.4656 1.99794 35.7258 2.23729 35.5292 2.28733C34.5772 2.38036 34.4093 2.55191 34.3351 2.7523C34.2612 2.95633 34.272 3.17799 33.6871 3.41061C32.8828 3.26164 33.6407 2.44905 32.5264 3.1517C31.6916 3.14415 32.1369 2.56438 32.3731 2.26979C32.1528 2.4592 31.8917 2.59951 31.6085 2.6807C31.3506 2.74776 31.0859 2.78781 30.819 2.80015C30.3041 2.83009 29.8154 2.77243 29.4775 2.85235L29.9908 2.43676C29.7235 2.64139 29.4206 2.79896 29.0963 2.90218L29.6319 3.24671C29.2538 3.295 28.9609 3.40374 28.8824 3.20609C28.7714 3.42778 28.9257 3.59682 29.0411 3.79715C29.1579 3.99929 29.231 4.22249 28.9884 4.58066C28.4387 4.53655 27.7736 5.4159 27.3245 4.87159C28.0697 4.67084 27.9582 4.53359 27.802 4.36922C27.6457 4.20499 27.4412 4.01543 28.0172 3.70291C27.7731 3.89902 27.4763 4.02476 27.161 4.06562C27.0772 4.01959 27.1476 3.91794 27.2233 3.84199C26.8178 3.85454 26.595 3.92248 26.47 4.02489C26.3611 4.13346 26.3006 4.27869 26.3015 4.42954C26.2638 4.74541 26.2565 5.12699 25.5774 5.45636C25.5699 5.03256 24.917 4.9763 24.7318 5.16079C25.2881 4.8901 25.297 5.59052 24.9447 6.09278C23.9503 6.29469 24.1413 6.79062 23.6863 7.00198L24.257 6.84333C24.2817 7.2654 23.8423 7.45264 23.3296 7.87592C23.1225 7.65293 23.7465 7.41016 23.4713 7.41432C23.4421 7.51354 23.3896 7.60502 23.318 7.68174C23.2463 7.75847 23.1573 7.8184 23.0578 7.85695C22.8435 7.93953 22.6183 7.99276 22.3886 8.01509C21.8964 8.08647 21.3495 8.16248 21.0399 8.61995C20.493 8.6736 20.5929 8.06285 20.1422 8.16211C19.8034 8.69633 19.4702 8.77208 19.1193 8.84823C18.7725 8.92695 18.3945 8.98888 18.0351 9.53082C18.6292 9.70625 18.5958 9.57893 18.2244 10.4812C18.4515 10.234 18.6765 9.98216 18.908 9.73641L19.6238 9.02037L19.3171 9.68122C19.2163 9.90073 19.1139 10.1154 19.0238 10.343C19.0842 10.2975 19.1419 10.2486 19.1965 10.1967C19.254 10.147 19.3096 10.0941 19.3635 10.0396C19.4713 9.93072 19.5723 9.81529 19.6689 9.70586C19.8622 9.48708 20.038 9.29209 20.2114 9.22428C19.9563 9.90331 19.9362 9.76324 20.4189 9.93942C19.8607 9.86697 19.5879 10.1831 19.3366 10.5383C19.0904 10.9031 18.8565 11.2947 18.3236 11.3825L17.5566 10.4094C17.2126 10.5134 16.9011 10.6982 16.65 10.947C16.4132 11.2007 16.2004 11.4743 16.0142 11.7644C15.8125 12.0748 15.5921 12.3736 15.3539 12.6591C15.0915 12.9901 14.7779 13.2806 14.4241 13.5204L15.0064 13.2653C15.1642 13.7802 14.2207 14.0872 13.9279 14.6339C13.6757 14.3145 13.3097 14.4809 12.9477 14.4949C13.1875 14.6741 11.9798 15.4596 12.4624 16.1051C12.1404 16.1844 11.8345 16.2817 11.5179 16.3736C10.9431 16.866 10.8791 17.3668 10.8324 17.8568C10.7988 18.3593 10.7844 18.8534 10.2912 19.3579C10.218 18.7723 9.59253 19.1128 9.94703 18.1811C9.64611 18.5523 9.3212 18.8469 9.53383 19.0128C9.44143 19.0309 9.37006 19.1242 9.30635 19.2553C9.23597 19.4093 9.17813 19.5684 9.13336 19.731C9.02246 20.0801 8.88888 20.4317 8.61033 20.5048C8.63301 20.7621 8.92888 21.0397 8.59324 21.4459C8.4946 21.4496 8.43605 21.3399 8.43605 21.3399C8.51545 21.3935 8.44546 21.5939 8.44073 21.7666C8.4381 21.9411 8.49229 22.0812 8.79524 22.0067C8.35367 22.1555 7.96663 22.4245 7.68128 22.7811C7.36636 23.1539 7.09865 23.5614 6.88378 23.995C6.67375 24.4169 6.43557 24.8253 6.17072 25.2177C6.10595 25.3077 6.03814 25.3932 5.96857 25.474C5.90438 25.5552 5.83495 25.6325 5.76069 25.7053C5.61911 25.8465 5.45295 25.9629 5.26971 26.0491C5.17763 26.2889 5.08086 26.5409 4.98224 26.7978C4.93159 26.9251 4.88048 27.0536 4.82926 27.1823L4.75129 27.3746L4.6817 27.5703C4.49571 28.0903 4.30424 28.5926 4.12379 29.0171C4.04864 28.9214 3.95878 28.9447 4.06631 28.8001C3.85579 29.0577 3.78992 29.2573 3.79515 29.4276C3.81786 29.5919 3.87562 29.7498 3.96481 29.8916C4.11925 30.187 4.2609 30.4925 3.81999 31.0903C3.00757 31.5748 3.81272 30.2719 3.43815 30.6216C2.8531 30.5077 2.72604 30.9351 2.6294 31.4707C2.55359 32.0153 2.50161 32.6591 2.0296 33.0249L2.03992 32.7786C1.73856 33.0776 1.68862 33.5463 1.6998 34.0869C1.70129 34.6259 1.7234 35.2234 1.52275 35.7993C1.52275 35.7993 1.44391 35.7186 1.36309 35.7522C1.53821 36.2261 1.59339 36.8532 1.58074 37.502C1.57802 37.6643 1.57155 37.8282 1.56249 37.9916L1.54803 38.2364C1.54602 38.3183 1.54401 38.3999 1.54202 38.4813C1.53231 38.8058 1.51648 39.1207 1.50285 39.4101C1.16207 38.9877 1.37833 38.8546 0.931167 38.9997C0.902447 39.5228 1.61765 38.9692 1.55113 39.9986C1.38968 40.1958 1.23972 40.4014 1.10194 40.6145C0.945207 40.8349 0.767315 41.0248 0.549135 41.0462C0.57945 40.7194 0.599081 40.3908 0.651558 40.0665C0.507361 40.1543 0.401956 40.2902 0.35557 40.4481C0.317897 40.6034 0.308245 40.7637 0.327036 40.9221C0.354337 41.2508 0.437498 41.5856 0.362579 41.8381L0.131958 41.7442C0.113235 42.0497 0.127953 42.3563 0.175869 42.6588C0.22485 42.879 0.28595 43.0966 0.358913 43.3105C0.534553 43.8341 0.591154 44.3878 0.524886 44.9342L0.704812 44.7778C0.758339 44.8702 0.801646 44.9678 0.834021 45.0689C0.858742 45.1379 0.872517 45.2102 0.874884 45.2831C0.872387 45.3899 0.840483 45.4941 0.782426 45.5852C0.684165 45.7637 0.572233 45.9451 0.76807 46.3856L0.219177 46.6402C0.326549 47.2286 0.795362 48.6715 0.919589 49.6926C0.722326 49.4098 0.559483 48.9659 0.410116 48.4967C0.338009 48.2612 0.264339 48.0205 0.194308 47.7917C0.158402 47.6767 0.123433 47.5646 0.0900606 47.4577C0.0580232 47.3505 0.0307216 47.2483 0 47.1532C0.00481524 47.5678 0.0403414 47.9816 0.106309 48.3914C0.174518 48.8473 0.27133 49.2657 0.403926 49.4101C0.343666 49.1808 0.201545 48.8918 0.268815 48.6601C0.500004 49.0349 0.671926 49.4407 0.778938 49.8641C0.925838 50.3627 1.01855 50.8746 1.05559 51.3916C0.584579 51.3279 0.58029 52.0788 0.704423 52.9485C0.758012 53.3841 0.822985 53.8505 0.842077 54.2657C0.865899 54.6802 0.870814 55.0403 0.753773 55.2719C0.934762 55.754 1.08177 56.2472 1.19381 56.7482C1.33139 57.2426 1.44457 57.7457 1.55565 58.2608C1.61336 58.5178 1.66097 58.7801 1.72759 59.0414C1.79901 59.3016 1.87139 59.5653 1.94475 59.8326C2.01959 60.0998 2.09848 60.3704 2.18337 60.6444C2.22697 60.781 2.27097 60.9189 2.31536 61.058C2.3606 61.1968 2.42037 61.3327 2.4751 61.4715C2.6796 60.529 2.73943 62.1158 3.1962 61.817C3.41806 62.3211 3.48152 62.5197 3.46692 62.5764C3.54825 63.1337 3.69077 63.6731 3.81831 64.2208C3.84382 64.636 3.50512 63.7773 3.41926 63.8626C3.87788 64.9877 3.42967 64.4033 3.64279 65.1877C3.6887 65.0802 3.79004 65.1542 3.90645 65.337C4.06694 65.586 4.20033 65.8502 4.30453 66.1255C4.22675 65.8044 4.13778 65.4893 4.07346 65.1657C4.55778 65.882 4.63368 66.2442 4.70892 66.6144C4.78659 66.9821 4.85699 67.3611 5.39226 68.0551L4.99908 67.6414C5.25485 68.0081 5.65269 68.7184 6.08171 69.4079C6.54193 70.0809 7.02409 70.737 7.39033 71.0207C7.41317 71.0888 7.41854 71.1611 7.40597 71.2315C7.38741 71.2684 7.32738 71.2511 7.21404 71.093C7.34541 71.3206 7.50935 71.5378 7.66757 71.7635C7.828 71.9879 7.99511 72.2135 8.16539 72.4389C8.33753 72.6632 8.50495 72.8924 8.68654 73.111C8.87046 73.3276 9.0538 73.5435 9.23476 73.7566C9.41354 73.9705 9.58995 74.1815 9.76223 74.3876C9.9317 74.5954 10.0946 74.7996 10.2618 74.9893C10.5643 75.3379 10.844 75.7042 11.0994 76.0861L10.9247 76.0192C11.1978 76.3059 11.4891 76.4453 11.7528 76.864C11.7062 76.8691 11.5751 76.8039 11.6933 76.9428C11.858 77.0787 12.5192 77.6154 12.8256 78.0383L12.4496 77.7736C12.6123 77.9733 12.7623 78.1646 12.9248 78.3293C13.0863 78.4947 13.244 78.6477 13.3989 78.7912C13.7091 79.0778 14.0067 79.3276 14.2998 79.5657C14.3736 79.6248 14.4469 79.6834 14.5198 79.7418L14.7484 79.907C14.9 80.0172 15.052 80.1278 15.207 80.2405C15.5149 80.4671 15.8262 80.7092 16.1535 80.9904C16.1058 81.0388 16.1355 81.1531 16.2276 81.295C16.3514 81.4736 16.489 81.6431 16.6392 81.802C16.9824 82.18 17.4228 82.6071 17.7174 82.8908L17.6689 82.9037C18.4998 83.5993 19.3878 84.2293 20.3242 84.7876C20.5422 84.9166 20.759 85.0448 20.9768 85.1737C21.1961 85.2998 21.409 85.4366 21.6405 85.5526C22.097 85.794 22.5643 86.0428 23.0531 86.3202C23.1907 86.4734 23.3419 86.6147 23.5051 86.7426C23.6866 86.885 23.8933 87.034 24.1182 87.1897C24.3433 87.3451 24.5873 87.5059 24.8441 87.6705C24.973 87.7522 25.1044 87.8354 25.2382 87.9201C25.3741 88.0008 25.5152 88.0776 25.6565 88.1575C26.2246 88.4748 26.816 88.8051 27.3892 89.1251C27.9728 89.4279 28.5331 89.7341 29.019 90.0447C28.7388 89.8184 29.2061 89.7689 29.5922 89.8879C30.0476 90.1807 31.0678 90.1618 30.8324 90.5198L30.6602 90.4382C30.7678 90.7072 31.0856 90.9297 31.4756 91.1277C31.8726 91.3074 32.3425 91.4582 32.7449 91.6178L33.0722 91.1052C33.3088 91.3081 33.5665 91.4867 33.8414 91.6384C34.1369 91.7877 34.4424 91.918 34.7558 92.0285C35.4028 92.2608 36.0708 92.4351 36.7511 92.5493C37.0841 92.6106 37.4094 92.6681 37.7178 92.729C37.872 92.7595 38.022 92.7908 38.1666 92.8241L38.3795 92.8755C38.4495 92.891 38.5182 92.9062 38.5856 92.9212C39.1228 93.0477 39.5569 93.2244 39.8193 93.5244C40.119 93.501 40.4202 93.5025 40.7196 93.5287C41.0201 93.542 41.3211 93.5266 41.6184 93.4827L41.5328 93.8823C41.9071 93.9693 42.2346 94.0454 42.5442 94.1173C42.8447 94.1903 43.149 94.2479 43.4559 94.29C44.0707 94.3719 44.7343 94.4441 45.6821 94.4846C45.5479 94.5849 45.4137 94.6697 45.2782 94.7618C45.5165 94.7985 45.7606 94.7525 45.9669 94.632C46.164 94.5154 46.3448 94.3752 46.5051 94.2147C46.8417 93.902 47.1596 93.5728 47.6425 93.5788L47.9309 94.2778C48.3949 94.2944 48.8608 94.3197 49.3293 94.3701L50.0336 94.445C50.2687 94.4688 50.5046 94.4992 50.7394 94.5021C51.2078 94.5232 51.6772 94.509 52.1433 94.4596C52.3757 94.4322 52.6059 94.3899 52.8324 94.333C53.063 94.2674 53.287 94.1821 53.5017 94.078C53.5 94.1711 53.4643 94.2607 53.4007 94.331C53.3372 94.4012 53.2499 94.4477 53.1542 94.4622C53.5935 94.4307 54.4598 94.4716 55.1621 94.3958C55.8621 94.3026 56.3849 94.0776 56.1388 93.5975C56.2054 93.9256 56.6868 93.8691 57.2644 93.6742C57.5719 93.5655 57.8697 93.4331 58.155 93.2782C58.4484 93.1275 58.7262 92.974 58.9529 92.8508L58.915 93.369C59.2582 92.9724 59.4204 92.7308 59.637 92.5364C59.8506 92.3322 60.1164 92.1712 60.6547 91.9404C60.9391 91.9343 60.9992 92.2667 60.6077 92.2351C61.0902 92.2463 61.2327 92.0865 61.3957 91.9219C61.482 91.8268 61.5864 91.7483 61.7033 91.6908C61.8949 91.6042 62.1029 91.5562 62.3145 91.5495L62.0142 91.9791C62.9336 91.734 62.8104 91.5916 63.1839 91.0838C63.6864 90.7367 64.9084 90.6231 65.2112 90.9976C65.2397 90.7987 65.3313 90.6131 65.4735 90.4661C65.5563 90.3745 65.6541 90.2964 65.763 90.235C65.8813 90.1707 66.0099 90.1258 66.1434 90.102C66.2788 90.2295 66.1345 90.4074 66.0584 90.4908C66.8568 90.3473 67.3429 89.9812 67.7733 89.666C67.8808 89.5865 67.9857 89.5109 68.0905 89.4396C68.191 89.3651 68.2968 89.2976 68.4073 89.2376C68.6393 89.1112 68.9004 89.0423 69.1671 89.0374C69.1967 89.09 69.2397 89.1344 69.2922 89.1667C69.3446 89.1989 69.4047 89.2177 69.4668 89.2215C69.1805 89.3528 68.9082 89.4777 68.662 89.5906C68.4155 89.7026 68.1953 89.8028 68.0066 89.8706C67.633 90.0139 67.4144 90.0884 67.4507 90.0535C67.6369 90.4737 68.6251 90.1413 68.1321 91.0379C68.2878 90.8759 68.4692 90.6835 68.6608 90.4684C68.8509 90.2499 69.0565 90.0199 69.2731 89.8042C69.4814 89.592 69.709 89.3981 69.9531 89.2247C70.0668 89.1451 70.1869 89.0742 70.3121 89.0127C70.4273 88.9511 70.5488 88.901 70.6746 88.8632C70.7428 88.8763 70.8077 88.9019 70.8659 88.9385L70.7993 89.0318C71.0064 88.9637 71.1876 88.8377 71.3196 88.6698C71.5953 88.6093 71.8625 88.5173 72.1155 88.3958C72.2605 88.5265 72.551 88.4373 72.8467 88.2607C73.1453 88.0886 73.4618 87.8529 73.6861 87.7284C73.3893 87.3369 73.9992 87.0641 73.2504 87.0432C73.3376 87.0312 73.1997 87.1408 72.9221 87.33C72.8623 87.3739 72.8091 87.4255 72.7638 87.4834C72.7652 87.4652 72.7675 87.4471 72.7709 87.4291C72.6323 87.5201 72.4713 87.623 72.2925 87.7353C72.1137 87.8476 71.9086 87.9551 71.6945 88.0763C71.7968 87.8738 71.9336 87.6892 72.0991 87.53C72.2861 87.3558 72.5321 87.2521 72.7921 87.238C72.8484 86.8385 72.9172 86.424 72.9711 86.2173C73.2225 86.2724 73.4799 86.298 73.7377 86.2937C73.9973 86.2867 74.2563 86.2668 74.5138 86.234C75.0099 86.1797 75.4395 86.1274 75.6367 86.2434C75.7787 86.1079 75.9308 85.9725 76.0889 85.8369C76.2469 85.701 76.4017 85.5525 76.563 85.4099C76.8834 85.1217 77.2104 84.8304 77.5099 84.5358C77.7989 84.2582 78.0533 83.9491 78.2679 83.6148C78.4613 83.3309 78.5913 83.0114 78.6498 82.6767C78.9131 82.3256 79.2016 82.5559 79.4123 82.5485C79.2849 82.7816 79.0363 82.9502 79.0145 83.1323C79.2878 82.7834 79.7499 82.3369 80.1226 81.9173C80.4936 81.4959 80.7747 81.1038 80.64 80.82C81.6065 80.2603 80.5796 81.6302 81.5866 80.5259L81.5681 80.7922C82.1993 80.4828 82.7397 80.0261 83.1397 79.464C83.3265 79.206 83.498 78.9382 83.6536 78.6617C83.8101 78.3884 83.9579 78.1127 84.0919 77.8243C84.3587 77.2416 84.6816 76.6842 85.0566 76.1594C85.2538 75.8743 85.478 75.6072 85.7261 75.3616C85.8563 75.2328 85.9969 75.1061 86.1494 74.9815C86.3002 74.8557 86.4707 74.7375 86.6373 74.6087C86.4581 74.7552 86.3591 74.8211 86.2618 74.8072C87.5365 73.4671 88.5126 71.8341 89.364 70.1718L89.6924 69.5533C89.7468 69.4502 89.8045 69.3491 89.8568 69.2451L90.0098 68.9316C90.2149 68.5147 90.4255 68.1028 90.6449 67.6975L90.8111 67.3948L90.966 67.0878C91.0704 66.8839 91.1774 66.6819 91.287 66.4818C91.3967 66.2817 91.5094 66.0836 91.6249 65.8874C91.7402 65.6911 91.8622 65.4982 91.9699 65.3002C92.4345 64.3881 92.251 64.1969 92.3172 63.5649C92.4342 63.5299 92.5532 63.4953 92.6643 63.4573C92.6705 63.0839 92.681 62.7148 92.6956 62.35C92.7636 62.0019 92.8788 61.6639 93.0382 61.3446C93.1739 61.0295 93.3333 60.7271 93.4865 60.4085C93.652 60.0762 93.7906 59.7322 93.9012 59.3795C94.0078 58.9597 94.0697 58.5305 94.0858 58.0987L93.8972 58.3044C93.9416 58.1411 93.9885 57.9277 94.0365 57.7021C94.0835 57.4763 94.1378 57.2395 94.1697 57.0233C94.2436 56.5932 94.314 56.263 94.3701 56.3311C94.3213 56.1699 94.3299 55.9976 94.3947 55.8417L94.4833 55.8368C94.5016 55.5589 94.5332 55.2838 94.5465 55.0062L94.5881 54.1752C94.6959 53.5432 94.75 53.6006 94.8121 53.585C94.8428 53.5772 94.8745 53.5509 94.9091 53.4094C94.9696 53.1236 95.0001 52.8327 95 52.541C95 52.1899 94.9836 51.6899 94.9713 51.3122C94.9588 50.9344 94.9512 50.6782 94.9315 50.8074C94.9122 51.0869 94.8582 51.5196 94.813 51.5366L94.8511 50.9035C94.8066 50.8427 94.774 50.6897 94.7227 50.7444C94.6726 50.799 94.5867 51.0608 94.3965 51.819C94.3579 52.1757 94.3248 52.5328 94.3021 52.8914C94.2525 53.002 94.1979 53.1117 94.1434 53.2211C94.216 52.9265 94.261 52.6281 94.3155 52.3305C94.246 52.5406 94.196 52.7563 94.1659 52.9749C94.1351 53.1633 94.1265 53.3358 94.1128 53.5176C94.0194 53.6473 93.9496 53.7913 93.9065 53.9434C93.8885 54.295 93.8832 54.6493 93.8856 55.0061C93.8267 55.0612 93.8067 54.9381 93.7773 54.8871C93.7626 54.8616 93.7454 54.8541 93.7187 54.8954C93.669 54.9921 93.6264 55.092 93.5913 55.1945C93.5759 55.4413 93.6629 55.3369 93.7306 55.2694C93.7992 55.2021 93.8493 55.1722 93.7845 55.5766C93.5443 56.0562 93.4785 55.8898 93.4298 56.4934C93.338 56.5613 93.3255 56.4289 93.3593 56.1933C93.3274 56.4592 93.2489 56.8044 93.1758 57.1171C93.0938 57.4281 93.0312 57.71 93.0717 57.8613C92.905 58.0969 92.7791 58.5301 92.6623 58.8901C92.6177 59.0455 92.5532 59.195 92.4703 59.3351C92.4024 59.441 92.3318 59.4936 92.2544 59.459C92.243 59.9406 92.1706 60.419 92.0388 60.8838C92.0084 60.6401 91.9547 60.6274 91.8811 60.7366C91.8336 60.8145 91.7927 60.8958 91.7589 60.9799C91.7117 61.0821 91.6569 61.2008 91.5999 61.3241C91.375 61.8183 91.1146 62.3843 90.9149 62.1905C90.9438 62.4205 90.9239 62.6537 90.8564 62.8761C90.7621 63.1658 90.6518 63.4505 90.526 63.7289C90.3948 64.0313 90.2509 64.3455 90.1244 64.6566C89.9906 64.9472 89.8797 65.2471 89.7927 65.5537C89.7714 65.4506 89.7898 65.3436 89.8446 65.2526C89.4948 65.8181 89.2611 65.9222 88.9677 66.2489C89.3374 66.5108 88.897 67.4374 88.8782 68.0534C88.4766 68.3056 88.4146 68.1326 88.3934 67.9074C88.3714 67.681 88.3898 67.4012 88.134 67.4138C88.3107 67.4794 88.2131 67.8197 88.1262 68.1352C88.1041 68.2139 88.0838 68.2915 88.067 68.362C88.0491 68.4224 88.0368 68.4842 88.0304 68.5467C88.0227 68.6511 88.0548 68.7124 88.1631 68.6921C87.5741 69.0771 87.7508 69.0758 87.2234 69.1455C87.6949 69.5329 87.0023 69.6753 87.0428 70.2894C86.2536 70.8594 86.3982 70.1702 85.9895 71.0632C85.7686 71.1981 85.737 71.0584 85.7615 70.8881C85.784 70.7609 85.8192 70.6361 85.8665 70.5153ZM68.993 86.3027L68.9883 86.294C69.1648 86.1901 69.3154 86.1014 69.4114 86.0448C69.3243 86.0986 69.2036 86.173 68.993 86.3027ZM67.1789 87.1496C67.4087 87.0652 67.6862 86.941 67.9765 86.8036C68.1183 86.928 68.1292 87.1178 67.9405 87.1951C67.9889 87.0463 67.5131 87.1563 67.1789 87.1496ZM72.7367 88.1894C72.482 88.4266 72.3266 88.3895 72.2358 88.3271C72.3041 88.285 72.3781 88.2392 72.4585 88.1836C72.5376 88.1255 72.6241 88.0593 72.7209 87.982C72.7198 87.9613 72.7264 87.933 72.7241 87.9102C72.7496 88.0013 72.7539 88.0966 72.7367 88.1894Z" fill="#FBFBFB"/>
<path d="M72.9217 87.3328C72.9513 87.2952 72.9847 87.2608 73.0215 87.23C72.9448 87.2281 72.8682 87.2312 72.792 87.2392C72.7844 87.3051 72.7756 87.3712 72.7708 87.4334C72.8217 87.3995 72.8744 87.3643 72.9217 87.3328Z" fill="#FBFBFB"/>
<path d="M63.8996 4.22733L63.8616 4.20264C63.8902 4.22917 63.912 4.26171 63.9252 4.29767C63.9141 4.27516 63.9055 4.25159 63.8996 4.22733Z" fill="#FBFBFB"/>
<path d="M40.0615 90.0288L40.0466 90.1221L40.235 90.0615L40.0615 90.0288Z" fill="#FBFBFB"/>
<path d="M73.4179 10.4531C73.4185 10.5137 73.4406 10.5723 73.4807 10.6188C73.4907 10.593 73.4592 10.5282 73.4179 10.4531Z" fill="#FBFBFB"/>
<path d="M77.3235 13.2236C77.4793 13.3885 77.6232 13.5663 77.7719 13.7376C77.6384 13.5539 77.4883 13.3819 77.3235 13.2236Z" fill="#FBFBFB"/>
<path d="M80.0494 15.6718C80.1042 15.6648 80.1569 15.6467 80.2041 15.6186C80.2026 15.6165 80.2015 15.6142 80.2006 15.6118L80.0494 15.6718Z" fill="#FBFBFB"/>
<path d="M25.9912 10.335C25.9511 10.3597 25.9151 10.3902 25.8844 10.4255C25.6618 10.6837 25.83 10.5375 25.9912 10.335Z" fill="#FBFBFB"/>
<path d="M41.8373 3.6792C41.676 3.81136 41.5023 3.92838 41.3182 4.02868C41.6342 4.03436 41.8751 4.01534 41.8373 3.6792Z" fill="#FBFBFB"/>
<path d="M12.3046 22.765C12.303 22.7617 12.3007 22.7625 12.2979 22.7583C12.2755 22.7897 12.2527 22.8153 12.2287 22.8456L12.3046 22.765Z" fill="#FBFBFB"/>
<path d="M40.5142 4.15012C40.7889 4.20279 41.0741 4.15864 41.3181 4.02565C41.1815 4.01777 41.0445 4.02107 40.9084 4.0355C40.7703 4.04699 40.636 4.08601 40.5142 4.15012Z" fill="#FBFBFB"/>
<path d="M89.9128 27.9775L89.9939 28.1351C90.0004 28.1289 90.0119 28.135 90.0234 28.1446L89.9128 27.9775Z" fill="#FBFBFB"/>
<path d="M90.0237 28.1436L90.133 28.3093C90.1054 28.249 90.0686 28.1931 90.0237 28.1436Z" fill="#FBFBFB"/>
<path d="M90.3615 28.659L90.1332 28.3081C90.1925 28.4346 90.2694 28.5527 90.3615 28.659Z" fill="#FBFBFB"/>
<path d="M87.3922 23.8513L87.2963 23.8452C87.3105 23.8529 87.3267 23.8575 87.3434 23.8586C87.3601 23.8596 87.3768 23.8572 87.3922 23.8513Z" fill="#FBFBFB"/>
<path d="M86.5067 22.6748C86.6042 22.8201 86.7055 23.0158 86.8175 23.2243C86.9257 23.4435 87.0603 23.6496 87.2185 23.8386L87.2961 23.8449C87.0649 23.7186 86.8294 22.8644 86.5067 22.6748Z" fill="#FBFBFB"/>
<path d="M83.5201 17.1533L84.2807 18.1677C84.2217 17.9315 84.1499 17.6108 84.5434 18.0366C83.7672 16.5972 84.5653 18.4458 83.5201 17.1533Z" fill="#FBFBFB"/>
<path d="M80.9087 14.1984C81.4524 14.6279 81.0368 14.0577 81.1159 14.0282C80.7143 13.8104 80.6153 13.7632 80.9087 14.1984Z" fill="#FBFBFB"/>
<path d="M55.1465 1.63913L55.2914 1.16257C54.7381 1.15125 55.2581 1.35083 55.1465 1.63913Z" fill="#FBFBFB"/>
<path d="M49.4567 3.7634L49.9445 4.08781L50.2029 3.62891C49.9538 3.66294 49.7047 3.71571 49.4567 3.7634Z" fill="#FBFBFB"/>
<path d="M46.1628 0.0785899L46.4037 0C46.0954 0.0692973 45.788 0.131501 45.4824 0.209325C45.7083 0.157855 45.9355 0.122503 46.1628 0.0785899Z" fill="#FBFBFB"/>
<path d="M5.28668 24.7991L5.89288 24.9397C5.97938 24.5779 5.42903 24.1877 5.28668 24.7991Z" fill="#FBFBFB"/>
<path d="M0.279095 44.7378C0.028847 44.9462 -0.103638 45.5227 0.113873 45.8857C0.142918 45.4247 0.315363 44.974 0.279095 44.7378Z" fill="#FBFBFB"/>
<path d="M33.9344 91.8989L33.7107 91.8907L33.49 91.8721C33.7522 91.9428 34.024 91.9828 34.2907 92.0371L33.9344 91.8989Z" fill="#FBFBFB"/>
</svg>
