<svg width="50" height="50" viewBox="0 0 50 50" fill="none" xmlns="http://www.w3.org/2000/svg">
<path d="M34.1462 1.79137C34.0736 1.71882 33.9875 1.66128 33.8927 1.62202C33.7979 1.58276 33.6963 1.56256 33.5938 1.56256H11.7188C10.2689 1.56422 8.87882 2.14092 7.85359 3.16615C6.82836 4.19138 6.25165 5.58142 6.25 7.03131V42.9688C6.25165 44.4187 6.82836 45.8087 7.85359 46.834C8.87882 47.8592 10.2689 48.4359 11.7188 48.4376H38.2812C39.7312 48.4359 41.1212 47.8592 42.1464 46.834C43.1717 45.8088 43.7484 44.4187 43.75 42.9688V11.7188C43.75 11.6162 43.7298 11.5146 43.6905 11.4198C43.6513 11.325 43.5937 11.2389 43.5212 11.1664L34.1462 1.79137ZM34.375 4.22985L41.0827 10.9376H38.2812C37.2456 10.9364 36.2527 10.5245 35.5204 9.79216C34.7881 9.05985 34.3762 8.06696 34.375 7.03131V4.22985ZM11.7188 3.12506H32.8125V7.03131C32.8141 8.48121 33.3908 9.87127 34.4161 10.8965C35.4413 11.9217 36.8313 12.4984 38.2812 12.5001H42.1875V34.3751H7.8125V7.03131C7.81366 5.99567 8.22559 5.00277 8.9579 4.27046C9.69021 3.53815 10.6831 3.12622 11.7188 3.12506ZM38.2812 46.8751H11.7188C10.6831 46.8739 9.69021 46.462 8.9579 45.7297C8.22559 44.9974 7.81366 44.0045 7.8125 42.9688V35.9376H42.1875V42.9688C42.1863 44.0045 41.7744 44.9974 41.0421 45.7297C40.3098 46.462 39.3169 46.8739 38.2812 46.8751Z" fill="#0151B6"/>
<path d="M31.25 39.0625H32.8125C33.0197 39.0625 33.2184 38.9802 33.3649 38.8337C33.5114 38.6872 33.5938 38.4885 33.5938 38.2813C33.5938 38.074 33.5114 37.8753 33.3649 37.7288C33.2184 37.5823 33.0197 37.5 32.8125 37.5H31.25C30.6284 37.5 30.0323 37.7469 29.5927 38.1865C29.1532 38.626 28.9062 39.2221 28.9062 39.8438C28.9062 40.4654 29.1532 41.0615 29.5927 41.501C30.0323 41.9406 30.6284 42.1875 31.25 42.1875C31.4572 42.1875 31.6559 42.2698 31.8024 42.4163C31.9489 42.5628 32.0312 42.7616 32.0312 42.9688C32.0312 43.176 31.9489 43.3747 31.8024 43.5212C31.6559 43.6677 31.4572 43.75 31.25 43.75H29.6875C29.4803 43.75 29.2816 43.8323 29.1351 43.9788C28.9886 44.1253 28.9062 44.3241 28.9062 44.5313C28.9062 44.7385 28.9886 44.9372 29.1351 45.0837C29.2816 45.2302 29.4803 45.3125 29.6875 45.3125H31.25C31.8716 45.3125 32.4677 45.0656 32.9073 44.626C33.3468 44.1865 33.5938 43.5904 33.5938 42.9688C33.5938 42.3472 33.3468 41.751 32.9073 41.3115C32.4677 40.8719 31.8716 40.625 31.25 40.625C31.0428 40.625 30.8441 40.5427 30.6976 40.3962C30.5511 40.2497 30.4688 40.051 30.4688 39.8438C30.4688 39.6366 30.5511 39.4378 30.6976 39.2913C30.8441 39.1448 31.0428 39.0625 31.25 39.0625Z" fill="#0151B6"/>
<path d="M25 37.5H23.4375C23.2303 37.5 23.0316 37.5823 22.8851 37.7288C22.7386 37.8753 22.6562 38.074 22.6562 38.2813V44.5313C22.6562 44.7385 22.7386 44.9372 22.8851 45.0837C23.0316 45.2302 23.2303 45.3125 23.4375 45.3125C23.6447 45.3125 23.8434 45.2302 23.9899 45.0837C24.1364 44.9372 24.2187 44.7385 24.2187 44.5313V42.1875H25C25.6216 42.1875 26.2177 41.9406 26.6573 41.501C27.0968 41.0615 27.3437 40.4654 27.3437 39.8438C27.3437 39.2221 27.0968 38.626 26.6573 38.1865C26.2177 37.7469 25.6216 37.5 25 37.5ZM25 40.625H24.2187V39.0625H25C25.2072 39.0625 25.4059 39.1448 25.5524 39.2913C25.6989 39.4378 25.7812 39.6366 25.7812 39.8438C25.7812 40.051 25.6989 40.2497 25.5524 40.3962C25.4059 40.5427 25.2072 40.625 25 40.625Z" fill="#0151B6"/>
<path d="M20.3125 39.0625C20.5197 39.0625 20.7184 38.9802 20.8649 38.8337C21.0114 38.6872 21.0938 38.4885 21.0938 38.2813C21.0938 38.074 21.0114 37.8753 20.8649 37.7288C20.7184 37.5823 20.5197 37.5 20.3125 37.5H17.1875C16.9803 37.5 16.7816 37.5823 16.6351 37.7288C16.4886 37.8753 16.4062 38.074 16.4062 38.2813V44.5313C16.4062 44.7385 16.4886 44.9372 16.6351 45.0837C16.7816 45.2302 16.9803 45.3125 17.1875 45.3125H20.3125C20.5197 45.3125 20.7184 45.2302 20.8649 45.0837C21.0114 44.9372 21.0938 44.7385 21.0938 44.5313C21.0938 44.3241 21.0114 44.1253 20.8649 43.9788C20.7184 43.8323 20.5197 43.75 20.3125 43.75H17.9688V42.1875H18.75C18.9572 42.1875 19.1559 42.1052 19.3024 41.9587C19.4489 41.8122 19.5312 41.6135 19.5312 41.4063C19.5312 41.1991 19.4489 41.0003 19.3024 40.8538C19.1559 40.7073 18.9572 40.625 18.75 40.625H17.9688V39.0625H20.3125Z" fill="#0151B6"/>
<path d="M13.2812 29.6876H16.4062C16.6135 29.6876 16.8122 29.6053 16.9587 29.4588C17.1052 29.3123 17.1875 29.1136 17.1875 28.9064V25.7814C17.1875 25.5742 17.1052 25.3755 16.9587 25.2289C16.8122 25.0824 16.6135 25.0001 16.4062 25.0001H15.6543C15.797 22.8549 16.5886 20.8039 17.9241 19.1191C19.1315 17.5935 20.7863 16.4844 22.6562 15.9474V16.4064C22.6562 16.6136 22.7386 16.8123 22.8851 16.9588C23.0316 17.1053 23.2303 17.1876 23.4375 17.1876H26.5625C26.7697 17.1876 26.9684 17.1053 27.1149 16.9588C27.2614 16.8123 27.3438 16.6136 27.3438 16.4064V15.9474C29.2136 16.4844 30.8682 17.5936 32.0755 19.1191C33.4111 20.8038 34.2029 22.8549 34.3457 25.0001H33.5938C33.3865 25.0001 33.1878 25.0824 33.0413 25.2289C32.8948 25.3755 32.8125 25.5742 32.8125 25.7814V28.9064C32.8125 29.1136 32.8948 29.3123 33.0413 29.4588C33.1878 29.6053 33.3865 29.6876 33.5938 29.6876H36.7188C36.926 29.6876 37.1247 29.6053 37.2712 29.4588C37.4177 29.3123 37.5 29.1136 37.5 28.9064V25.7814C37.5 25.5742 37.4177 25.3755 37.2712 25.2289C37.1247 25.0824 36.926 25.0001 36.7188 25.0001H35.9104C35.7647 22.4988 34.8507 20.1034 33.2933 18.1406C32.4982 17.1468 31.5392 16.2961 30.4577 15.6251H35.1562C35.3635 15.6251 35.5622 15.5428 35.7087 15.3963C35.8552 15.2498 35.9375 15.0511 35.9375 14.8439C35.9375 14.6367 35.8552 14.438 35.7087 14.2914C35.5622 14.1449 35.3635 14.0626 35.1562 14.0626H27.3438V13.2814C27.3438 13.0742 27.2614 12.8755 27.1149 12.7289C26.9684 12.5824 26.7697 12.5001 26.5625 12.5001H23.4375C23.2303 12.5001 23.0316 12.5824 22.8851 12.7289C22.7386 12.8755 22.6562 13.0742 22.6562 13.2814V14.0626H14.8438C14.6365 14.0626 14.4378 14.1449 14.2913 14.2914C14.1448 14.438 14.0625 14.6367 14.0625 14.8439C14.0625 15.0511 14.1448 15.2498 14.2913 15.3963C14.4378 15.5428 14.6365 15.6251 14.8438 15.6251H19.5423C18.4606 16.296 17.5015 17.1468 16.7063 18.1406C15.149 20.1034 14.2352 22.4989 14.0896 25.0001H13.2812C13.074 25.0001 12.8753 25.0824 12.7288 25.2289C12.5823 25.3755 12.5 25.5742 12.5 25.7814V28.9064C12.5 29.1136 12.5823 29.3123 12.7288 29.4588C12.8753 29.6053 13.074 29.6876 13.2812 29.6876ZM35.9375 28.1251H34.375V26.5626H35.9375V28.1251ZM24.2188 14.0626H25.7812V15.6251H24.2188V14.0626ZM14.0625 26.5626H15.625V28.1251H14.0625V26.5626Z" fill="#0151B6"/>
</svg>
