<svg width="50" height="50" viewBox="0 0 50 50" fill="none" xmlns="http://www.w3.org/2000/svg">
<path d="M34.1462 1.79143C34.0736 1.71889 33.9875 1.66134 33.8927 1.62208C33.7979 1.58282 33.6963 1.56262 33.5938 1.56262H11.7188C10.2689 1.56428 8.87882 2.14098 7.85359 3.16621C6.82836 4.19144 6.25165 5.58148 6.25 7.03137V42.9689C6.25165 44.4188 6.82836 45.8088 7.85359 46.834C8.87882 47.8593 10.2689 48.436 11.7188 48.4376H38.2812C39.7311 48.436 41.1212 47.8593 42.1464 46.834C43.1716 45.8088 43.7483 44.4188 43.75 42.9689V11.7189C43.75 11.6163 43.7298 11.5147 43.6905 11.4199C43.6513 11.3251 43.5937 11.239 43.5212 11.1664L34.1462 1.79143ZM34.375 4.22991L41.0827 10.9376H38.2812C37.2456 10.9365 36.2527 10.5245 35.5204 9.79222C34.7881 9.05991 34.3762 8.06702 34.375 7.03137V4.22991ZM11.7188 3.12512H32.8125V7.03137C32.8142 8.48127 33.3909 9.8713 34.4161 10.8965C35.4413 11.9218 36.8314 12.4985 38.2812 12.5001H42.1875V34.3751H7.8125V7.03137C7.81366 5.99573 8.22559 5.00283 8.9579 4.27052C9.69021 3.53821 10.6831 3.12629 11.7188 3.12512ZM38.2812 46.8751H11.7188C10.6831 46.874 9.69021 46.462 8.9579 45.7297C8.22559 44.9974 7.81366 44.0045 7.8125 42.9689V35.9376H42.1875V42.9689C42.1863 44.0045 41.7744 44.9974 41.0421 45.7297C40.3098 46.462 39.3169 46.874 38.2812 46.8751Z" fill="#0151B6"/>
<path d="M16.4063 37.5C16.1991 37.5 16.0003 37.5823 15.8538 37.7288C15.7073 37.8753 15.625 38.074 15.625 38.2813V40.625H14.0625V38.2813C14.0625 38.074 13.9802 37.8753 13.8337 37.7288C13.6872 37.5823 13.4885 37.5 13.2813 37.5C13.074 37.5 12.8753 37.5823 12.7288 37.7288C12.5823 37.8753 12.5 38.074 12.5 38.2813V44.5313C12.5 44.7385 12.5823 44.9372 12.7288 45.0837C12.8753 45.2302 13.074 45.3125 13.2813 45.3125C13.4885 45.3125 13.6872 45.2302 13.8337 45.0837C13.9802 44.9372 14.0625 44.7385 14.0625 44.5313V42.1875H15.625V44.5313C15.625 44.7385 15.7073 44.9372 15.8538 45.0837C16.0003 45.2302 16.1991 45.3125 16.4063 45.3125C16.6135 45.3125 16.8122 45.2302 16.9587 45.0837C17.1052 44.9372 17.1875 44.7385 17.1875 44.5313V38.2813C17.1875 38.074 17.1052 37.8753 16.9587 37.7288C16.8122 37.5823 16.6135 37.5 16.4063 37.5Z" fill="#0151B6"/>
<path d="M22.6562 37.5H19.5312C19.324 37.5 19.1253 37.5823 18.9788 37.7288C18.8323 37.8753 18.75 38.074 18.75 38.2813C18.75 38.4885 18.8323 38.6872 18.9788 38.8337C19.1253 38.9802 19.324 39.0625 19.5312 39.0625H20.3125V44.5313C20.3125 44.7385 20.3948 44.9372 20.5413 45.0837C20.6878 45.2302 20.8865 45.3125 21.0938 45.3125C21.301 45.3125 21.4997 45.2302 21.6462 45.0837C21.7927 44.9372 21.875 44.7385 21.875 44.5313V39.0625H22.6562C22.8635 39.0625 23.0622 38.9802 23.2087 38.8337C23.3552 38.6872 23.4375 38.4885 23.4375 38.2813C23.4375 38.074 23.3552 37.8753 23.2087 37.7288C23.0622 37.5823 22.8635 37.5 22.6562 37.5Z" fill="#0151B6"/>
<path d="M30.6482 37.5209C30.477 37.4805 30.2971 37.4991 30.1377 37.5736C29.9783 37.6482 29.8487 37.7744 29.77 37.9318L28.125 41.2218L26.48 37.9318C26.4013 37.7744 26.2717 37.6482 26.1123 37.5737C25.9529 37.4991 25.773 37.4805 25.6017 37.521C25.4305 37.5614 25.2779 37.6585 25.1687 37.7965C25.0594 37.9344 25 38.1053 25 38.2812V44.5312C25 44.7385 25.0823 44.9372 25.2288 45.0837C25.3753 45.2302 25.574 45.3125 25.7813 45.3125C25.9885 45.3125 26.1872 45.2302 26.3337 45.0837C26.4802 44.9372 26.5625 44.7385 26.5625 44.5312V41.5907L27.4263 43.3182C27.4912 43.4479 27.5909 43.557 27.7143 43.6333C27.8377 43.7096 27.9799 43.7499 28.125 43.7499C28.2701 43.7499 28.4123 43.7096 28.5357 43.6333C28.6591 43.557 28.7588 43.4479 28.8237 43.3182L29.6875 41.5907V44.5312C29.6875 44.7385 29.7698 44.9372 29.9163 45.0837C30.0628 45.2302 30.2616 45.3125 30.4688 45.3125C30.676 45.3125 30.8747 45.2302 31.0212 45.0837C31.1677 44.9372 31.25 44.7385 31.25 44.5312V38.2812C31.25 38.1053 31.1906 37.9344 31.0814 37.7964C30.9721 37.6584 30.8195 37.5613 30.6482 37.5209Z" fill="#0151B6"/>
<path d="M36.7188 43.75H34.375V38.2813C34.375 38.074 34.2927 37.8753 34.1462 37.7288C33.9997 37.5823 33.801 37.5 33.5938 37.5C33.3865 37.5 33.1878 37.5823 33.0413 37.7288C32.8948 37.8753 32.8125 38.074 32.8125 38.2813V44.5313C32.8125 44.7385 32.8948 44.9372 33.0413 45.0837C33.1878 45.2302 33.3865 45.3125 33.5938 45.3125H36.7188C36.926 45.3125 37.1247 45.2302 37.2712 45.0837C37.4177 44.9372 37.5 44.7385 37.5 44.5313C37.5 44.3241 37.4177 44.1253 37.2712 43.9788C37.1247 43.8323 36.926 43.75 36.7188 43.75Z" fill="#0151B6"/>
<path d="M18.9788 25.5525C19.1254 25.699 19.3241 25.7813 19.5313 25.7813C19.7385 25.7813 19.9372 25.699 20.0837 25.5525C20.2302 25.4059 20.3126 25.2072 20.3126 25C20.3126 24.7928 20.2302 24.5941 20.0837 24.4476L15.9486 20.3125L20.0837 16.1775C20.2302 16.0309 20.3126 15.8322 20.3126 15.625C20.3126 15.4178 20.2302 15.2191 20.0837 15.0726C19.9372 14.9261 19.7385 14.8438 19.5313 14.8438C19.3241 14.8438 19.1254 14.9261 18.9788 15.0726L14.2913 19.7601C14.2188 19.8326 14.1612 19.9188 14.122 20.0135C14.0827 20.1083 14.0625 20.2099 14.0625 20.3125C14.0625 20.4151 14.0827 20.5167 14.122 20.6115C14.1612 20.7063 14.2188 20.7924 14.2913 20.865L18.9788 25.5525Z" fill="#0151B6"/>
<path d="M29.9163 25.5525C29.9889 25.625 30.075 25.6826 30.1698 25.7218C30.2646 25.7611 30.3662 25.7813 30.4688 25.7813C30.5714 25.7813 30.673 25.7611 30.7678 25.7218C30.8625 25.6826 30.9487 25.625 31.0212 25.5525L35.7087 20.865C35.7813 20.7924 35.8388 20.7063 35.8781 20.6115C35.9174 20.5167 35.9376 20.4151 35.9376 20.3125C35.9376 20.2099 35.9174 20.1083 35.8781 20.0135C35.8388 19.9188 35.7813 19.8326 35.7087 19.7601L31.0212 15.0726C30.8747 14.9261 30.676 14.8438 30.4688 14.8438C30.2616 14.8438 30.0629 14.9261 29.9163 15.0726C29.7698 15.2191 29.6875 15.4178 29.6875 15.625C29.6875 15.8322 29.7698 16.0309 29.9163 16.1775L34.0515 20.3125L29.9163 24.4476C29.8438 24.5201 29.7862 24.6063 29.747 24.701C29.7077 24.7958 29.6875 24.8974 29.6875 25C29.6875 25.1026 29.7077 25.2042 29.747 25.299C29.7862 25.3938 29.8438 25.4799 29.9163 25.5525Z" fill="#0151B6"/>
<path d="M22.4092 28.0848C22.5065 28.1174 22.6093 28.1304 22.7117 28.1232C22.814 28.116 22.914 28.0887 23.0058 28.0428C23.0976 27.9969 23.1794 27.9333 23.2466 27.8558C23.3138 27.7782 23.365 27.6882 23.3974 27.5908L28.0849 13.5283C28.1185 13.4307 28.1324 13.3274 28.1259 13.2243C28.1193 13.1213 28.0924 13.0206 28.0467 12.928C28.001 12.8354 27.9374 12.7528 27.8595 12.685C27.7817 12.6172 27.6912 12.5654 27.5933 12.5328C27.4953 12.5001 27.3919 12.4872 27.2889 12.4948C27.186 12.5023 27.0855 12.5302 26.9934 12.5769C26.9013 12.6235 26.8193 12.6879 26.7523 12.7664C26.6852 12.8449 26.6343 12.9359 26.6027 13.0341L21.9152 27.0966C21.8496 27.2932 21.8649 27.5077 21.9575 27.693C22.0502 27.8784 22.2126 28.0193 22.4092 28.0848Z" fill="#0151B6"/>
</svg>
