<svg width="50" height="50" viewBox="0 0 50 50" fill="none" xmlns="http://www.w3.org/2000/svg">
<path d="M34.1462 1.79119C34.0736 1.71864 33.9875 1.6611 33.8927 1.62184C33.7979 1.58258 33.6963 1.56237 33.5938 1.56238H11.7188C10.2688 1.56401 8.8788 2.1407 7.85356 3.16594C6.82832 4.19117 6.25163 5.58123 6.25 7.03113V42.9686C6.25163 44.4185 6.82832 45.8086 7.85356 46.8338C8.8788 47.8591 10.2688 48.4358 11.7188 48.4374H38.2812C39.7312 48.4358 41.1212 47.8591 42.1464 46.8338C43.1717 45.8086 43.7484 44.4185 43.75 42.9686V11.7186C43.75 11.616 43.7298 11.5144 43.6905 11.4197C43.6513 11.3249 43.5937 11.2387 43.5212 11.1662L34.1462 1.79119ZM34.375 4.22966L41.0827 10.9374H38.2812C37.2456 10.9362 36.2527 10.5243 35.5204 9.79198C34.7881 9.05967 34.3762 8.06677 34.375 7.03113V4.22966ZM11.7188 3.12488H32.8125V7.03113C32.8141 8.48103 33.3908 9.87108 34.4161 10.8963C35.4413 11.9216 36.8313 12.4983 38.2812 12.4999H42.1875V34.3749H7.8125V7.03113C7.81366 5.99548 8.22559 5.00259 8.9579 4.27028C9.69021 3.53796 10.6831 3.12604 11.7188 3.12488ZM38.2812 46.8749H11.7188C10.6831 46.8737 9.69021 46.4618 8.9579 45.7295C8.22559 44.9972 7.81366 44.0043 7.8125 42.9686V35.9374H42.1875V42.9686C42.1863 44.0043 41.7744 44.9972 41.0421 45.7295C40.3098 46.4618 39.3169 46.8737 38.2812 46.8749Z" fill="#0151B6"/>
<path d="M23.4375 37.5C23.2303 37.5 23.0316 37.5823 22.8851 37.7288C22.7386 37.8753 22.6562 38.074 22.6562 38.2813V42.9688C22.6562 43.176 22.5739 43.3747 22.4274 43.5212C22.2809 43.6677 22.0822 43.75 21.875 43.75C21.6678 43.75 21.4691 43.6677 21.3226 43.5212C21.1761 43.3747 21.0938 43.176 21.0938 42.9688C21.0938 42.7616 21.0114 42.5628 20.8649 42.4163C20.7184 42.2698 20.5197 42.1875 20.3125 42.1875C20.1053 42.1875 19.9066 42.2698 19.7601 42.4163C19.6136 42.5628 19.5312 42.7616 19.5312 42.9688C19.5312 43.5904 19.7782 44.1865 20.2177 44.626C20.6573 45.0656 21.2534 45.3125 21.875 45.3125C22.4966 45.3125 23.0927 45.0656 23.5323 44.626C23.9718 44.1865 24.2188 43.5904 24.2188 42.9688V38.2813C24.2188 38.074 24.1364 37.8753 23.9899 37.7288C23.8434 37.5823 23.6447 37.5 23.4375 37.5Z" fill="#0151B6"/>
<path d="M28.125 39.0625H29.6875C29.8947 39.0625 30.0934 38.9802 30.2399 38.8337C30.3864 38.6872 30.4688 38.4885 30.4688 38.2813C30.4688 38.074 30.3864 37.8753 30.2399 37.7288C30.0934 37.5823 29.8947 37.5 29.6875 37.5H28.125C27.5034 37.5 26.9073 37.7469 26.4677 38.1865C26.0282 38.626 25.7812 39.2221 25.7812 39.8438C25.7812 40.4654 26.0282 41.0615 26.4677 41.501C26.9073 41.9406 27.5034 42.1875 28.125 42.1875C28.3322 42.1875 28.5309 42.2698 28.6774 42.4163C28.8239 42.5628 28.9062 42.7616 28.9062 42.9688C28.9062 43.176 28.8239 43.3747 28.6774 43.5212C28.5309 43.6677 28.3322 43.75 28.125 43.75H26.5625C26.3553 43.75 26.1566 43.8323 26.0101 43.9788C25.8636 44.1253 25.7812 44.3241 25.7812 44.5313C25.7812 44.7385 25.8636 44.9372 26.0101 45.0837C26.1566 45.2302 26.3553 45.3125 26.5625 45.3125H28.125C28.7466 45.3125 29.3427 45.0656 29.7823 44.626C30.2218 44.1865 30.4688 43.5904 30.4688 42.9688C30.4688 42.3472 30.2218 41.751 29.7823 41.3115C29.3427 40.8719 28.7466 40.625 28.125 40.625C27.9178 40.625 27.7191 40.5427 27.5726 40.3962C27.4261 40.2497 27.3438 40.051 27.3438 39.8438C27.3438 39.6366 27.4261 39.4378 27.5726 39.2913C27.7191 39.1448 27.9178 39.0625 28.125 39.0625Z" fill="#0151B6"/>
<path d="M28.125 21.8749C28.5565 21.8749 28.9062 21.5251 28.9062 21.0936C28.9062 20.6622 28.5565 20.3124 28.125 20.3124C27.6935 20.3124 27.3438 20.6622 27.3438 21.0936C27.3438 21.5251 27.6935 21.8749 28.125 21.8749Z" fill="#0151B6"/>
<path d="M21.875 21.8749C22.3065 21.8749 22.6562 21.5251 22.6562 21.0936C22.6562 20.6622 22.3065 20.3124 21.875 20.3124C21.4435 20.3124 21.0938 20.6622 21.0938 21.0936C21.0938 21.5251 21.4435 21.8749 21.875 21.8749Z" fill="#0151B6"/>
<path d="M25 21.8749C25.4315 21.8749 25.7812 21.5251 25.7812 21.0936C25.7812 20.6622 25.4315 20.3124 25 20.3124C24.5685 20.3124 24.2188 20.6622 24.2188 21.0936C24.2188 21.5251 24.5685 21.8749 25 21.8749Z" fill="#0151B6"/>
<path d="M14.8438 21.8749C15.0509 21.8751 15.2495 21.9575 15.3959 22.104C15.5424 22.2504 15.6248 22.449 15.625 22.6561V25.7811C15.6257 26.4025 15.8729 26.9982 16.3123 27.4376C16.7517 27.877 17.3474 28.1242 17.9688 28.1249C18.176 28.1249 18.3747 28.0426 18.5212 27.8961C18.6677 27.7495 18.75 27.5508 18.75 27.3436C18.75 27.1364 18.6677 26.9377 18.5212 26.7912C18.3747 26.6447 18.176 26.5624 17.9688 26.5624C17.7616 26.5621 17.563 26.4798 17.4166 26.3333C17.2701 26.1868 17.1877 25.9883 17.1875 25.7811V22.6561C17.188 22.0793 16.9749 21.5226 16.5893 21.0936C16.9749 20.6646 17.188 20.108 17.1875 19.5311V16.4061C17.1877 16.199 17.2701 16.0004 17.4166 15.854C17.563 15.7075 17.7616 15.6251 17.9688 15.6249C18.176 15.6249 18.3747 15.5426 18.5212 15.3961C18.6677 15.2495 18.75 15.0508 18.75 14.8436C18.75 14.6364 18.6677 14.4377 18.5212 14.2912C18.3747 14.1447 18.176 14.0624 17.9688 14.0624C17.3474 14.0631 16.7517 14.3103 16.3123 14.7496C15.8729 15.189 15.6257 15.7847 15.625 16.4061V19.5311C15.6248 19.7383 15.5424 19.9368 15.3959 20.0833C15.2495 20.2298 15.0509 20.3121 14.8438 20.3124C14.6365 20.3124 14.4378 20.3947 14.2913 20.5412C14.1448 20.6877 14.0625 20.8864 14.0625 21.0936C14.0625 21.3008 14.1448 21.4995 14.2913 21.6461C14.4378 21.7926 14.6365 21.8749 14.8438 21.8749Z" fill="#0151B6"/>
<path d="M32.8125 25.7811C32.8123 25.9883 32.7299 26.1868 32.5834 26.3333C32.437 26.4798 32.2384 26.5621 32.0313 26.5624C31.824 26.5624 31.6253 26.6447 31.4788 26.7912C31.3323 26.9377 31.25 27.1364 31.25 27.3436C31.25 27.5508 31.3323 27.7495 31.4788 27.8961C31.6253 28.0426 31.824 28.1249 32.0313 28.1249C32.6526 28.1242 33.2484 27.877 33.6877 27.4376C34.1271 26.9982 34.3743 26.4025 34.375 25.7811V22.6561C34.3752 22.449 34.4576 22.2504 34.6041 22.104C34.7505 21.9575 34.9491 21.8751 35.1563 21.8749C35.3635 21.8749 35.5622 21.7926 35.7087 21.6461C35.8552 21.4995 35.9375 21.3008 35.9375 21.0936C35.9375 20.8864 35.8552 20.6877 35.7087 20.5412C35.5622 20.3947 35.3635 20.3124 35.1563 20.3124C34.9491 20.3121 34.7505 20.2298 34.6041 20.0833C34.4576 19.9368 34.3752 19.7383 34.375 19.5311V16.4061C34.3743 15.7847 34.1271 15.189 33.6877 14.7496C33.2484 14.3103 32.6526 14.0631 32.0313 14.0624C31.824 14.0624 31.6253 14.1447 31.4788 14.2912C31.3323 14.4377 31.25 14.6364 31.25 14.8436C31.25 15.0508 31.3323 15.2495 31.4788 15.3961C31.6253 15.5426 31.824 15.6249 32.0313 15.6249C32.2384 15.6251 32.437 15.7075 32.5834 15.854C32.7299 16.0004 32.8123 16.199 32.8125 16.4061V19.5311C32.812 20.108 33.0251 20.6646 33.4107 21.0936C33.0251 21.5226 32.812 22.0793 32.8125 22.6561V25.7811Z" fill="#0151B6"/>
</svg>
