<svg width="50" height="50" viewBox="0 0 50 50" fill="none" xmlns="http://www.w3.org/2000/svg">
<path d="M34.1462 1.79131C34.0736 1.71876 33.9875 1.66122 33.8927 1.62196C33.7979 1.5827 33.6963 1.5625 33.5938 1.5625H11.7188C10.2688 1.56413 8.8788 2.14082 7.85356 3.16606C6.82832 4.1913 6.25163 5.58135 6.25 7.03125V42.9688C6.25163 44.4187 6.82832 45.8087 7.85356 46.8339C8.8788 47.8592 10.2688 48.4359 11.7188 48.4375H38.2812C39.7312 48.4359 41.1212 47.8592 42.1464 46.8339C43.1717 45.8087 43.7484 44.4187 43.75 42.9688V11.7188C43.75 11.6162 43.7298 11.5146 43.6905 11.4198C43.6513 11.325 43.5937 11.2389 43.5212 11.1663L34.1462 1.79131ZM34.375 4.22979L41.0827 10.9375H38.2812C37.2456 10.9363 36.2527 10.5244 35.5204 9.7921C34.7881 9.05979 34.3762 8.0669 34.375 7.03125V4.22979ZM11.7188 3.125H32.8125V7.03125C32.8141 8.48115 33.3908 9.8712 34.4161 10.8964C35.4413 11.9217 36.8313 12.4984 38.2812 12.5H42.1875V34.375H7.8125V7.03125C7.81366 5.9956 8.22559 5.00271 8.9579 4.2704C9.69021 3.53809 10.6831 3.12616 11.7188 3.125ZM38.2812 46.875H11.7188C10.6831 46.8738 9.69021 46.4619 8.9579 45.7296C8.22559 44.9973 7.81366 44.0044 7.8125 42.9688V35.9375H42.1875V42.9688C42.1863 44.0044 41.7744 44.9973 41.0421 45.7296C40.3098 46.4619 39.3169 46.8738 38.2812 46.875Z" fill="#0151B6"/>
<path d="M31.25 37.5H29.6875C29.4803 37.5 29.2816 37.5823 29.1351 37.7288C28.9886 37.8753 28.9062 38.074 28.9062 38.2813V44.5313C28.9062 44.7385 28.9886 44.9372 29.1351 45.0837C29.2816 45.2302 29.4803 45.3125 29.6875 45.3125C29.8947 45.3125 30.0934 45.2302 30.2399 45.0837C30.3864 44.9372 30.4688 44.7385 30.4688 44.5313V42.1875H31.25C31.8716 42.1875 32.4677 41.9406 32.9073 41.501C33.3468 41.0615 33.5938 40.4654 33.5938 39.8438C33.5938 39.2221 33.3468 38.626 32.9073 38.1865C32.4677 37.7469 31.8716 37.5 31.25 37.5ZM31.25 40.625H30.4688V39.0625H31.25C31.4572 39.0625 31.6559 39.1448 31.8024 39.2913C31.9489 39.4378 32.0312 39.6366 32.0312 39.8438C32.0312 40.051 31.9489 40.2497 31.8024 40.3962C31.6559 40.5427 31.4572 40.625 31.25 40.625Z" fill="#0151B6"/>
<path d="M18.75 37.5H17.1875C16.9803 37.5 16.7816 37.5823 16.6351 37.7288C16.4886 37.8753 16.4062 38.074 16.4062 38.2813V44.5313C16.4062 44.7385 16.4886 44.9372 16.6351 45.0837C16.7816 45.2302 16.9803 45.3125 17.1875 45.3125C17.3947 45.3125 17.5934 45.2302 17.7399 45.0837C17.8864 44.9372 17.9688 44.7385 17.9688 44.5313V42.1875H18.75C19.3716 42.1875 19.9677 41.9406 20.4073 41.501C20.8468 41.0615 21.0938 40.4654 21.0938 39.8438C21.0938 39.2221 20.8468 38.626 20.4073 38.1865C19.9677 37.7469 19.3716 37.5 18.75 37.5ZM18.75 40.625H17.9688V39.0625H18.75C18.9572 39.0625 19.1559 39.1448 19.3024 39.2913C19.4489 39.4378 19.5312 39.6366 19.5312 39.8438C19.5312 40.051 19.4489 40.2497 19.3024 40.3962C19.1559 40.5427 18.9572 40.625 18.75 40.625Z" fill="#0151B6"/>
<path d="M26.5625 37.5C26.3553 37.5 26.1566 37.5823 26.0101 37.7288C25.8636 37.8753 25.7812 38.074 25.7812 38.2813V40.625H24.2187V38.2813C24.2187 38.074 24.1364 37.8753 23.9899 37.7288C23.8434 37.5823 23.6447 37.5 23.4375 37.5C23.2303 37.5 23.0316 37.5823 22.8851 37.7288C22.7386 37.8753 22.6562 38.074 22.6562 38.2813V44.5313C22.6562 44.7385 22.7386 44.9372 22.8851 45.0837C23.0316 45.2302 23.2303 45.3125 23.4375 45.3125C23.6447 45.3125 23.8434 45.2302 23.9899 45.0837C24.1364 44.9372 24.2187 44.7385 24.2187 44.5313V42.1875H25.7812V44.5313C25.7812 44.7385 25.8636 44.9372 26.0101 45.0837C26.1566 45.2302 26.3553 45.3125 26.5625 45.3125C26.7697 45.3125 26.9684 45.2302 27.1149 45.0837C27.2614 44.9372 27.3437 44.7385 27.3437 44.5313V38.2813C27.3437 38.074 27.2614 37.8753 27.1149 37.7288C26.9684 37.5823 26.7697 37.5 26.5625 37.5Z" fill="#0151B6"/>
<path d="M18.1976 26.3337C18.3441 26.4802 18.5428 26.5625 18.75 26.5625C18.9572 26.5625 19.156 26.4802 19.3025 26.3337C19.449 26.1872 19.5313 25.9885 19.5313 25.7813C19.5313 25.5741 19.449 25.3753 19.3025 25.2288L15.1673 21.0938L19.3025 16.9587C19.449 16.8122 19.5313 16.6135 19.5313 16.4063C19.5313 16.1991 19.449 16.0003 19.3025 15.8538C19.156 15.7073 18.9572 15.625 18.75 15.625C18.5428 15.625 18.3441 15.7073 18.1976 15.8538L13.5101 20.5413C13.4375 20.6139 13.38 20.7 13.3407 20.7948C13.3015 20.8896 13.2812 20.9912 13.2812 21.0938C13.2812 21.1964 13.3015 21.298 13.3407 21.3928C13.38 21.4875 13.4375 21.5737 13.5101 21.6462L18.1976 26.3337Z" fill="#0151B6"/>
<path d="M30.6975 26.3337C30.7701 26.4063 30.8562 26.4638 30.951 26.5031C31.0458 26.5423 31.1474 26.5626 31.25 26.5626C31.3526 26.5626 31.4542 26.5423 31.5489 26.5031C31.6437 26.4638 31.7299 26.4063 31.8024 26.3337L36.4899 21.6462C36.5625 21.5737 36.62 21.4875 36.6593 21.3928C36.6985 21.298 36.7188 21.1964 36.7188 21.0938C36.7188 20.9912 36.6985 20.8896 36.6593 20.7948C36.62 20.7 36.5625 20.6139 36.4899 20.5413L31.8024 15.8538C31.6559 15.7073 31.4572 15.625 31.25 15.625C31.0428 15.625 30.844 15.7073 30.6975 15.8538C30.551 16.0003 30.4687 16.1991 30.4687 16.4063C30.4687 16.6135 30.551 16.8122 30.6975 16.9587L34.8327 21.0938L30.6975 25.2288C30.625 25.3014 30.5674 25.3875 30.5282 25.4823C30.4889 25.5771 30.4687 25.6787 30.4687 25.7813C30.4687 25.8839 30.4889 25.9855 30.5282 26.0803C30.5674 26.175 30.625 26.2612 30.6975 26.3337Z" fill="#0151B6"/>
<path d="M25 28.125C25.4315 28.125 25.7812 27.7752 25.7812 27.3438C25.7812 26.9123 25.4315 26.5625 25 26.5625C24.5685 26.5625 24.2188 26.9123 24.2188 27.3438C24.2188 27.7752 24.5685 28.125 25 28.125Z" fill="#0151B6"/>
<path d="M21.875 18.7501C22.0822 18.7501 22.2809 18.6677 22.4274 18.5212C22.5739 18.3747 22.6563 18.176 22.6563 17.9688C22.6563 17.5053 22.7937 17.0521 23.0512 16.6667C23.3088 16.2813 23.6748 15.9809 24.1031 15.8035C24.5314 15.6261 25.0026 15.5797 25.4572 15.6701C25.9119 15.7605 26.3295 15.9837 26.6573 16.3115C26.9851 16.6393 27.2083 17.0569 27.2987 17.5116C27.3892 17.9662 27.3427 18.4375 27.1653 18.8657C26.9879 19.294 26.6875 19.66 26.3021 19.9176C25.9167 20.1751 25.4636 20.3126 25 20.3126C24.7928 20.3126 24.5941 20.3949 24.4476 20.5414C24.3011 20.6879 24.2188 20.8866 24.2188 21.0938V24.2188C24.2188 24.426 24.3011 24.6247 24.4476 24.7712C24.5941 24.9177 24.7928 25.0001 25 25.0001C25.2072 25.0001 25.4059 24.9177 25.5524 24.7712C25.6989 24.6247 25.7813 24.426 25.7813 24.2188V21.7969C26.5054 21.6491 27.1728 21.2989 27.7058 20.7869C28.2389 20.275 28.6158 19.6223 28.7927 18.9047C28.9696 18.1871 28.9393 17.434 28.7053 16.733C28.4714 16.0319 28.0433 15.4116 27.4708 14.9441C26.8984 14.4766 26.2051 14.1811 25.4714 14.0919C24.7377 14.0027 23.9938 14.1235 23.326 14.4402C22.6582 14.757 22.094 15.2567 21.6989 15.8812C21.3037 16.5058 21.0939 17.2297 21.0938 17.9688C21.0937 18.176 21.1761 18.3747 21.3226 18.5212C21.4691 18.6677 21.6678 18.7501 21.875 18.7501Z" fill="#0151B6"/>
</svg>
