<svg width="50" height="50" viewBox="0 0 50 50" fill="none" xmlns="http://www.w3.org/2000/svg">
<path d="M34.1462 1.79131C34.0736 1.71876 33.9875 1.66122 33.8927 1.62196C33.7979 1.5827 33.6963 1.5625 33.5938 1.5625H11.7188C10.2689 1.56415 8.87882 2.14086 7.85359 3.16609C6.82836 4.19132 6.25165 5.58136 6.25 7.03125V42.9688C6.25165 44.4186 6.82836 45.8087 7.85359 46.8339C8.87882 47.8591 10.2689 48.4358 11.7188 48.4375H38.2812C39.7312 48.4359 41.1212 47.8592 42.1464 46.8339C43.1717 45.8087 43.7484 44.4187 43.75 42.9688V11.7188C43.75 11.6162 43.7298 11.5146 43.6905 11.4198C43.6513 11.325 43.5937 11.2389 43.5212 11.1663L34.1462 1.79131ZM34.375 4.22979L41.0827 10.9375H38.2812C37.2456 10.9363 36.2527 10.5244 35.5204 9.7921C34.7881 9.05979 34.3762 8.0669 34.375 7.03125V4.22979ZM11.7188 3.125H32.8125V7.03125C32.8141 8.48115 33.3908 9.8712 34.4161 10.8964C35.4413 11.9217 36.8313 12.4984 38.2812 12.5H42.1875V34.375H7.8125V7.03125C7.81366 5.9956 8.22559 5.00271 8.9579 4.2704C9.69021 3.53809 10.6831 3.12616 11.7188 3.125ZM38.2812 46.875H11.7188C10.6831 46.8738 9.69021 46.4619 8.9579 45.7296C8.22559 44.9973 7.81366 44.0044 7.8125 42.9688V35.9375H42.1875V42.9688C42.1863 44.0044 41.7744 44.9973 41.0421 45.7296C40.3098 46.4619 39.3169 46.8738 38.2812 46.875Z" fill="#0151B6"/>
<path d="M17.9688 39.0625H19.5313C19.7385 39.0625 19.9372 38.9802 20.0837 38.8337C20.2302 38.6872 20.3125 38.4885 20.3125 38.2813C20.3125 38.074 20.2302 37.8753 20.0837 37.7288C19.9372 37.5823 19.7385 37.5 19.5313 37.5H17.9688C17.3471 37.5 16.751 37.7469 16.3115 38.1865C15.8719 38.626 15.625 39.2221 15.625 39.8438C15.625 40.4654 15.8719 41.0615 16.3115 41.501C16.751 41.9406 17.3471 42.1875 17.9688 42.1875C18.176 42.1875 18.3747 42.2698 18.5212 42.4163C18.6677 42.5628 18.75 42.7616 18.75 42.9688C18.75 43.176 18.6677 43.3747 18.5212 43.5212C18.3747 43.6677 18.176 43.75 17.9688 43.75H16.4063C16.199 43.75 16.0003 43.8323 15.8538 43.9788C15.7073 44.1253 15.625 44.3241 15.625 44.5313C15.625 44.7385 15.7073 44.9372 15.8538 45.0837C16.0003 45.2302 16.199 45.3125 16.4063 45.3125H17.9688C18.5904 45.3125 19.1865 45.0656 19.626 44.626C20.0656 44.1865 20.3125 43.5904 20.3125 42.9688C20.3125 42.3472 20.0656 41.751 19.626 41.3115C19.1865 40.8719 18.5904 40.625 17.9688 40.625C17.7616 40.625 17.5628 40.5427 17.4163 40.3962C17.2698 40.2497 17.1875 40.051 17.1875 39.8438C17.1875 39.6366 17.2698 39.4378 17.4163 39.2913C17.5628 39.1448 17.7616 39.0625 17.9688 39.0625Z" fill="#0151B6"/>
<path d="M33.5938 43.75H31.25V38.2813C31.25 38.074 31.1677 37.8753 31.0212 37.7288C30.8747 37.5823 30.676 37.5 30.4688 37.5C30.2615 37.5 30.0628 37.5823 29.9163 37.7288C29.7698 37.8753 29.6875 38.074 29.6875 38.2813V44.5313C29.6875 44.7385 29.7698 44.9372 29.9163 45.0837C30.0628 45.2302 30.2615 45.3125 30.4688 45.3125H33.5938C33.801 45.3125 33.9997 45.2302 34.1462 45.0837C34.2927 44.9372 34.375 44.7385 34.375 44.5313C34.375 44.3241 34.2927 44.1253 34.1462 43.9788C33.9997 43.8323 33.801 43.75 33.5938 43.75Z" fill="#0151B6"/>
<path d="M27.56 43.6426C27.936 42.9575 28.1305 42.1877 28.125 41.4063C28.125 39.2523 26.7231 37.5 25 37.5C23.2769 37.5 21.875 39.2523 21.875 41.4063C21.875 43.5602 23.2769 45.3125 25 45.3125C25.5471 45.3087 26.0794 45.135 26.5234 44.8154L26.7917 45.0837C26.8642 45.1562 26.9504 45.2138 27.0452 45.2531C27.1399 45.2923 27.2415 45.3125 27.3441 45.3125C27.4467 45.3125 27.5483 45.2923 27.6431 45.2531C27.7379 45.2138 27.824 45.1562 27.8966 45.0837C27.9691 45.0111 28.0267 44.925 28.0659 44.8302C28.1052 44.7354 28.1254 44.6338 28.1254 44.5313C28.1254 44.4287 28.1052 44.3271 28.0659 44.2323C28.0267 44.1375 27.9691 44.0514 27.8966 43.9788L27.56 43.6426ZM25 43.75C24.153 43.75 23.4375 42.6767 23.4375 41.4063C23.4375 40.1358 24.153 39.0625 25 39.0625C25.847 39.0625 26.5625 40.1358 26.5625 41.4063C26.5635 41.7678 26.5038 42.1269 26.386 42.4687L25.5524 41.6351C25.4799 41.5625 25.3938 41.505 25.299 41.4657C25.2042 41.4264 25.1026 41.4062 25 41.4062C24.8974 41.4062 24.7958 41.4264 24.701 41.4657C24.6062 41.505 24.5201 41.5625 24.4476 41.6351C24.375 41.7076 24.3175 41.7937 24.2782 41.8885C24.2389 41.9833 24.2187 42.0849 24.2187 42.1875C24.2187 42.2901 24.2389 42.3917 24.2782 42.4865C24.3175 42.5813 24.375 42.6674 24.4476 42.7399L25.3831 43.6755C25.2613 43.7243 25.1313 43.7496 25 43.75Z" fill="#0151B6"/>
<path d="M19.8587 29.2112C21.2407 29.5184 23.0664 29.6875 25 29.6875C26.9336 29.6875 28.7598 29.5184 30.1413 29.2112C31.2881 28.9564 32.8125 28.4855 32.8125 27.3437V13.2812C32.8125 12.1395 31.2881 11.6686 30.1413 11.4138C28.7598 11.1066 26.9336 10.9375 25 10.9375C23.0664 10.9375 21.2402 11.1066 19.8587 11.4138C18.712 11.6686 17.1875 12.1395 17.1875 13.2812V27.3437C17.1875 28.4855 18.712 28.9564 19.8587 29.2112ZM25 28.125C21.4117 28.125 19.2259 27.5338 18.75 27.1853V24.2144C19.1128 24.3403 19.4831 24.4436 19.8587 24.5237C21.2407 24.8309 23.0664 25 25 25C26.9336 25 28.7598 24.8309 30.1413 24.5237C30.5169 24.4436 30.8872 24.3403 31.25 24.2144V27.1853C30.7741 27.5338 28.5882 28.125 25 28.125ZM18.75 19.5269C19.1128 19.6528 19.4831 19.7561 19.8587 19.8362C21.2407 20.1434 23.0664 20.3125 25 20.3125C26.9336 20.3125 28.7598 20.1434 30.1413 19.8362C30.5169 19.7561 30.8872 19.6528 31.25 19.5269V22.4972C30.7767 22.8454 28.5912 23.4375 25 23.4375C21.4088 23.4375 19.2233 22.8454 18.75 22.4972V19.5269ZM18.75 14.8394C19.1128 14.9653 19.4831 15.0686 19.8587 15.1487C21.2407 15.4559 23.0664 15.625 25 15.625C26.9336 15.625 28.7598 15.4559 30.1413 15.1487C30.5169 15.0686 30.8872 14.9653 31.25 14.8394V17.8097C30.7767 18.1579 28.5912 18.75 25 18.75C21.4088 18.75 19.2233 18.1579 18.75 17.8097V14.8394ZM25 12.5C28.0859 12.5 30.1343 12.9373 30.9504 13.2812C30.1343 13.6252 28.0856 14.0625 25 14.0625C21.9144 14.0625 19.8656 13.6252 19.0497 13.2812C19.8656 12.9373 21.9141 12.5 25 12.5Z" fill="#0151B6"/>
</svg>
